<svg xmlns="http://www.w3.org/2000/svg" width="173.987" height="174" viewBox="0 0 173.987 174">
    <g data-name="다각형 3" style="fill:#1f2c34">
        <path d="M695.03 277.064c-5.345 0-10.37-2.081-14.15-5.86l-41.748-41.748a20.065 20.065 0 0 1-5.178-19.33l15.247-56.982a20.07 20.07 0 0 1 14.152-14.155l56.985-15.244a20.005 20.005 0 0 1 5.176-.681c5.343 0 10.367 2.08 14.147 5.857l41.75 41.75a20.072 20.072 0 0 1 5.178 19.33l-15.244 56.976a20.067 20.067 0 0 1-14.161 14.161l-56.98 15.245c-1.685.451-3.427.68-5.174.68z" style="stroke:none" transform="translate(-623.277 -113.064)"/>
        <path d="M725.514 133.064c-.864 0-1.735.112-2.592.341l-56.98 15.243a10.014 10.014 0 0 0-7.08 7.08l-15.25 56.987a10.01 10.01 0 0 0 2.591 9.67l41.746 41.747a10.016 10.016 0 0 0 9.671 2.59l56.98-15.244a10.014 10.014 0 0 0 7.085-7.086l15.245-56.979a10.016 10.016 0 0 0-2.59-9.671l-41.747-41.747a10.015 10.015 0 0 0-7.08-2.931m0-20c8.013 0 15.548 3.12 21.216 8.783l41.752 41.753c7.557 7.56 10.532 18.666 7.768 28.987l-15.244 56.974c-2.764 10.335-10.902 18.472-21.237 21.237l-56.979 15.245a30.015 30.015 0 0 1-7.76 1.02c-8.015 0-15.55-3.12-21.22-8.786l-41.748-41.75c-7.558-7.558-10.534-18.667-7.766-28.991l15.246-56.977c2.766-10.328 10.898-18.461 21.223-21.229l56.99-15.245a29.999 29.999 0 0 1 7.76-1.021z" style="fill:#fff;stroke:none" transform="translate(-623.277 -113.064)"/>
    </g>
    <g data-name="service03 ico">
        <path data-name="패스 446" d="M685.361 217.4a.744.744 0 0 1-.272-.051 18.932 18.932 0 0 1 3.5-36.266 22.229 22.229 0 0 1 43.676 3.016 17.285 17.285 0 0 1 9.693 32.229.75.75 0 1 1-.749-1.3 15.785 15.785 0 0 0-9.546-29.374.751.751 0 0 1-.828-.692 20.728 20.728 0 0 0-40.9-3.057.747.747 0 0 1-.618.577 17.432 17.432 0 0 0-3.688 33.47.75.75 0 0 1-.273 1.448z" transform="translate(-623.179 -112.968)" style="fill:#fff"/>
        <path data-name="패스 447" d="M700.248 184.243a.748.748 0 0 1-.339-.081 17.427 17.427 0 0 0-10.588-1.7.75.75 0 1 1-.227-1.482 18.886 18.886 0 0 1 11.494 1.848.75.75 0 0 1-.34 1.418z" transform="translate(-623.179 -112.968)" style="fill:#fff"/>
        <path data-name="패스 448" d="M699.42 238.485a.749.749 0 0 1-.564-.256L687.28 225a.75.75 0 0 1 .564-1.244h5.865v-12.48a.75.75 0 1 1 1.5 0v13.23a.75.75 0 0 1-.75.75H689.5l9.92 11.344 9.923-11.341h-4.962a.75.75 0 0 1-.75-.75v-8.269a.75.75 0 0 1 1.5 0v7.519H711a.75.75 0 0 1 .565 1.244l-11.576 13.23a.75.75 0 0 1-.569.252z" transform="translate(-623.179 -112.968)" style="fill:#fff"/>
        <path data-name="패스 449" d="M729.188 228.563a.75.75 0 0 1-.75-.75v-13.23a.75.75 0 0 1 .75-.75h4.962l-9.924-11.341-9.926 11.341h4.962a.75.75 0 0 1 .75.75v8.27a.75.75 0 0 1-1.5 0v-7.52h-5.862a.75.75 0 0 1-.564-1.244l11.576-13.23a.775.775 0 0 1 1.129 0l11.577 13.23a.75.75 0 0 1-.565 1.244h-5.865v12.48a.75.75 0 0 1-.75.75z" transform="translate(-623.179 -112.968)" style="fill:#fff"/>
    </g>
</svg>
