<svg xmlns="http://www.w3.org/2000/svg" width="173.987" height="174" viewBox="0 0 173.987 174">
    <g data-name="다각형 3" style="fill:#1f2c34">
        <path d="M695.03 277.064c-5.345 0-10.37-2.081-14.15-5.86l-41.748-41.748a20.065 20.065 0 0 1-5.178-19.33l15.247-56.982a20.07 20.07 0 0 1 14.152-14.155l56.985-15.244a20.005 20.005 0 0 1 5.176-.681c5.343 0 10.367 2.08 14.147 5.857l41.75 41.75a20.072 20.072 0 0 1 5.178 19.33l-15.244 56.976a20.067 20.067 0 0 1-14.161 14.161l-56.98 15.245c-1.685.451-3.427.68-5.174.68z" style="stroke:none" transform="translate(-623.277 -113.064)"/>
        <path d="M725.514 133.064c-.864 0-1.735.112-2.592.341l-56.98 15.243a10.014 10.014 0 0 0-7.08 7.08l-15.25 56.987a10.01 10.01 0 0 0 2.591 9.67l41.746 41.747a10.016 10.016 0 0 0 9.671 2.59l56.98-15.244a10.014 10.014 0 0 0 7.085-7.086l15.245-56.979a10.016 10.016 0 0 0-2.59-9.671l-41.747-41.747a10.015 10.015 0 0 0-7.08-2.931m0-20c8.013 0 15.548 3.12 21.216 8.783l41.752 41.753c7.557 7.56 10.532 18.666 7.768 28.987l-15.244 56.974c-2.764 10.335-10.902 18.472-21.237 21.237l-56.979 15.245a30.015 30.015 0 0 1-7.76 1.02c-8.015 0-15.55-3.12-21.22-8.786l-41.748-41.75c-7.558-7.558-10.534-18.667-7.766-28.991l15.246-56.977c2.766-10.328 10.898-18.461 21.223-21.229l56.99-15.245a29.999 29.999 0 0 1 7.76-1.021z" style="fill:#fff;stroke:none" transform="translate(-623.277 -113.064)"/>
    </g>
    <path data-name="패스 389" d="M619.2 2107.326a.733.733 0 0 1-.732-.732v-17.58a.733.733 0 0 1 .732-.733h17.58a.733.733 0 0 1 .733.733v17.58a.733.733 0 0 1-.733.732zm.733-1.465h16.115v-16.115H619.93z" transform="translate(-562.61 -2031.422)" style="fill:#fff"/>
    <path data-name="패스 390" d="M642.9 2119.892a.733.733 0 0 1-.733-.733v-6.446a.733.733 0 0 1 .733-.732h6.446a.733.733 0 0 1 .732.732v6.446a.733.733 0 0 1-.732.733zm.732-1.465h4.981v-4.981h-4.981z" transform="translate(-580.832 -2049.649)" style="fill:#fff"/>
    <path data-name="패스 391" d="M619.2 2229.565a.733.733 0 0 1-.732-.732v-17.58a.733.733 0 0 1 .732-.732h17.58a.733.733 0 0 1 .733.732v17.58a.733.733 0 0 1-.733.732zm.733-1.465h16.115v-16.115H619.93z" transform="translate(-562.61 -2125.291)" style="fill:#fff"/>
    <path data-name="패스 392" d="M642.9 2242.13a.733.733 0 0 1-.733-.732v-6.446a.733.733 0 0 1 .733-.732h6.446a.733.733 0 0 1 .732.732v6.446a.733.733 0 0 1-.732.732zm.732-1.465h4.981v-4.981h-4.981z" transform="translate(-580.832 -2143.411)" style="fill:#fff"/>
    <path data-name="패스 393" d="M717.737 2095.313a.734.734 0 0 1-.732-.733v-5.567a.732.732 0 1 1 1.465 0v5.567a.734.734 0 0 1-.733.733z" transform="translate(-638.211 -2031.422)" style="fill:#fff"/>
    <path data-name="패스 394" d="M717.737 2216.813a.734.734 0 0 1-.732-.733v-4.827a.732.732 0 0 1 1.465 0v4.827a.734.734 0 0 1-.733.733z" transform="translate(-638.21 -2125.226)" style="fill:#fff"/>
    <path data-name="패스 395" d="M744.371 2244.193a.733.733 0 0 1-.732-.733v-4.143a.732.732 0 0 1 1.465 0v4.143a.733.733 0 0 1-.733.733z" transform="translate(-658.633 -2146.748)" style="fill:#fff"/>
    <path data-name="패스 396" d="M619.2 2188.285a.733.733 0 0 1 0-1.465h3.809a.733.733 0 0 1 0 1.465z" transform="translate(-562.61 -2107.032)" style="fill:#fff"/>
    <path data-name="패스 397" d="M676.575 2150.112a.733.733 0 1 1 0-1.465h8.936v-10.987a.732.732 0 1 1 1.465 0v11.72a.733.733 0 0 1-.732.732z" transform="translate(-606.669 -2068.796)" style="fill:#fff"/>
    <path data-name="패스 398" d="M623.71 2136.334a.728.728 0 0 1-.727-.727v-4.44a14.969 14.969 0 0 1 2.125-7.692l.659-1.1h-7.809a.727.727 0 1 1 0-1.454h9.072l.214-.22a15.091 15.091 0 0 1 3.679-2.775l-.344-1.368h-7.53a.728.728 0 0 1-.727-.727v-5.531a.727.727 0 0 1 1.455 0v4.8h15.966v-2.649l-.325-.216a9.661 9.661 0 0 1-4.334-8.058v-6.158a9.6 9.6 0 0 1 .64-3.453l.379-.988h-6.115v3.717a.727.727 0 0 1-1.455 0v-4.443a.728.728 0 0 1 .727-.727h7.826l.218-.263a9.684 9.684 0 0 1 3.026-2.435l-.334-1.373h-11.42a.728.728 0 0 1-.727-.727v-17.45a.728.728 0 0 1 .727-.727h17.457a.728.728 0 0 1 .727.727v17.45a.656.656 0 0 1 0 .066l-.085.9.894-.1a24.082 24.082 0 0 0 3.008-.545l.552-.137v-17.07a5.653 5.653 0 0 0-5.647-5.645H600.62a5.653 5.653 0 0 0-5.647 5.645v44.841a5.653 5.653 0 0 0 5.647 5.645h4.245a.727.727 0 1 1 0 1.454h-4.245a7.109 7.109 0 0 1-7.1-7.1v-44.841a7.109 7.109 0 0 1 7.1-7.1h44.858a7.109 7.109 0 0 1 7.1 7.1v18.046l.227.216a11.039 11.039 0 0 1 1.738 13.905l-.113.178v1.4a9.659 9.659 0 0 1-4.349 8.067l-.326.216v3.684h1.735a15.04 15.04 0 0 1 15.026 15.02v4.44a.728.728 0 0 1-.727.727zm14.3-18.733a13.584 13.584 0 0 0-13.57 13.566v3.713h40.626v-3.713a13.584 13.584 0 0 0-13.57-13.566h-2.166l-4.059 4.057a.727.727 0 0 1-1.029 0l-4.058-4.057zm3.189-1.044 3.56 3.558 3.546-3.545v-3.344l-.925.26a9.63 9.63 0 0 1-5.256 0l-.926-.262zm.008-19.106a4.977 4.977 0 0 0-4.666 5.228v1.5a8.219 8.219 0 0 0 16.439 0v-1.5a4.977 4.977 0 0 0-4.666-5.227 4.2 4.2 0 0 0-1.837.422 3.925 3.925 0 0 1-3.431 0 4.2 4.2 0 0 0-1.84-.423zm7.106-1.454a6 6 0 0 1 4.983 2.81l.981 1.5.342-1.758a9.56 9.56 0 0 0-3.36-9.279l-.277-.225-.347.082a25.627 25.627 0 0 1-5.873.68 8.249 8.249 0 0 0-8.051 6.556l-.377 1.828 1.514-1.091a5.728 5.728 0 0 1 3.36-1.1 5.643 5.643 0 0 1 2.469.567 2.489 2.489 0 0 0 2.167 0 5.636 5.636 0 0 1 2.467-.567zm-19.007-9.4h16v-16h-16z" transform="translate(-543.523 -2012.335)" style="fill:#fff"/>
    <path data-name="패스 399" d="M765.135 2119.892a.733.733 0 0 1-.732-.733v-6.446a.733.733 0 0 1 .732-.732h6.446a.733.733 0 0 1 .732.732v6.446a.733.733 0 0 1-.732.733zm.733-1.465h4.981v-4.981h-4.981z" transform="translate(-674.583 -2049.649)" style="fill:#fff"/>
    <path data-name="패스 400" d="M667.843 2311.772a.732.732 0 1 1 .733-.732.733.733 0 0 1-.733.732z" transform="translate(-599.953 -2201.731)" style="fill:#fff"/>
</svg>
