<svg xmlns="http://www.w3.org/2000/svg" width="60" height="64" viewBox="0 0 60 64">
    <path data-name="사각형 1604" style="fill:transparent" d="M0 0h60v64H0z"/>
    <path data-name="패스 450" d="M235.294 260.841h-23.869a.75.75 0 0 1 0-1.5h23.869a.75.75 0 0 1 0 1.5z" style="fill:#1e1e1e" transform="translate(-193.581 -246.32)"/>
    <path data-name="패스 451" d="M225.708 301.841a.75.75 0 1 1 0-1.5h12.564a2.327 2.327 0 0 0 2.272-2.364v-47.754a2.332 2.332 0 0 0-2.285-2.378h-25.052l-8.033 8.31v25.608a.75.75 0 0 1-1.5 0v-25.731a1.19 1.19 0 0 1 .333-.828l8.219-8.5a1.167 1.167 0 0 1 .838-.357h25.208a3.834 3.834 0 0 1 3.772 3.891v47.728a3.829 3.829 0 0 1-3.758 3.877zm-12.4-54.1z" style="fill:#1e1e1e" transform="translate(-193.581 -246.32)"/>
    <path data-name="패스 452" d="M212.013 256.634h-6.861a.75.75 0 1 1 0-1.5h6.861a1.2 1.2 0 0 0 1.2-1.2v-6.846a.75.75 0 0 1 1.5 0v6.846a2.7 2.7 0 0 1-2.7 2.7z" style="fill:#1e1e1e" transform="translate(-193.581 -246.32)"/>
    <path data-name="패스 453" d="M235.294 265.841h-23.869a.75.75 0 0 1 0-1.5h23.869a.75.75 0 0 1 0 1.5z" style="fill:#1e1e1e" transform="translate(-193.581 -246.32)"/>
    <path data-name="패스 454" d="M230.375 275.841h-19a.75.75 0 0 1 0-1.5h19a.75.75 0 0 1 0 1.5z" style="fill:#1e1e1e" transform="translate(-193.581 -246.32)"/>
    <path data-name="패스 455" d="M235.294 270.841h-23.869a.75.75 0 0 1 0-1.5h23.869a.75.75 0 0 1 0 1.5z" style="fill:#1e1e1e" transform="translate(-193.581 -246.32)"/>
    <path data-name="패스 456" d="M229.082 304.691a.75.75 0 1 1 0-1.5h10a5.372 5.372 0 0 0 5.25-5.469v-44.781a.75.75 0 0 1 1.5 0v44.767a6.874 6.874 0 0 1-6.736 6.983z" style="fill:#1e1e1e" transform="translate(-193.581 -246.32)"/>
    <path data-name="패스 457" d="M211.047 302.806a9.708 9.708 0 1 1 6.871-2.841 9.688 9.688 0 0 1-6.871 2.841zm0-17.925a8.213 8.213 0 1 0 5.81 2.4 8.191 8.191 0 0 0-5.81-2.4z" style="fill:#1e1e1e" transform="translate(-193.581 -246.32)"/>
    <path data-name="패스 458" d="M224.546 309.844a2.832 2.832 0 0 1-2.011-.833l-3.26-3.26a5.04 5.04 0 0 1-1.457-3.128l-.029-.348a1.8 1.8 0 0 1 0-.367 1.849 1.849 0 0 1 2.042-1.632l.1.011a6.156 6.156 0 0 1 3.677 1.762l2.874 2.875a2.844 2.844 0 0 1 .072 4.089 2.837 2.837 0 0 1-2.008.831zm-4.915-8.079a.348.348 0 0 0-.347.311l.028.418a3.548 3.548 0 0 0 1.024 2.2l3.26 3.26a1.344 1.344 0 0 0 1.9 0 1.135 1.135 0 0 0 .087-.1 1.4 1.4 0 0 0-.145-1.857l-.01-.01-2.879-2.88a4.655 4.655 0 0 0-2.778-1.331l-.1-.011z" style="fill:#1e1e1e" transform="translate(-193.581 -246.32)"/>
    <path data-name="패스 459" d="M218.957 302.071a.751.751 0 0 1-.531-.219l-1.889-1.89a.75.75 0 0 1 1.061-1.06l1.889 1.889a.75.75 0 0 1-.53 1.28z" style="fill:#1e1e1e" transform="translate(-193.581 -246.32)"/>
    <path data-name="패스 460" d="M215.123 289.768a.748.748 0 0 1-.531-.22 5 5 0 0 0-5.865-.9.75.75 0 1 1-.693-1.33 6.49 6.49 0 0 1 7.619 1.17.75.75 0 0 1-.53 1.28z" style="fill:#1e1e1e" transform="translate(-193.581 -246.32)"/>
</svg>
