<svg xmlns="http://www.w3.org/2000/svg" width="60" height="59.776" viewBox="0 0 60 59.776">
    <path data-name="사각형 1605" style="fill:transparent" d="M0 0h60v59.777H0z"/>
    <path data-name="패스 461" d="M33.966 54.939h-7.658a.75.75 0 0 1 0-1.5h7.658a.75.75 0 0 1 0 1.5z"/>
    <path data-name="패스 462" d="M5.165 58.769a4.547 4.547 0 0 1-4.5-4.588v-1.267a3.276 3.276 0 0 1 3.24-3.3h19.2a.75.75 0 0 1 0 1.5h-19.2a1.776 1.776 0 0 0-1.748 1.793v1.286a3.045 3.045 0 0 0 3 3.08h49.935a3.041 3.041 0 0 0 3-3.071v-1.284a1.78 1.78 0 0 0-1.756-1.8H37.16a.75.75 0 0 1 0-1.5h19.2a3.276 3.276 0 0 1 3.248 3.312v1.267a4.543 4.543 0 0 1-4.487 4.58z"/>
    <path data-name="패스 463" d="M55.026 46.324a.75.75 0 0 1-.75-.75V30.256a.75.75 0 0 1 1.5 0v15.316a.75.75 0 0 1-.75.752z"/>
    <path data-name="패스 464" d="M5.19 47.788a.75.75 0 0 1-.75-.75v-26.8a4.584 4.584 0 0 1 4.579-4.579h7.658a.75.75 0 0 1 0 1.5H9.019a3.083 3.083 0 0 0-3.079 3.079v26.8a.75.75 0 0 1-.75.75z"/>
    <path data-name="패스 465" d="M34.798 32.248h-.021a.749.749 0 0 1-.57-.285l-3.567-4.518a.5.5 0 0 0-.393-.194h-4.778a5.749 5.749 0 0 1-5.743-5.741V6.532A5.75 5.75 0 0 1 25.469.79h27.459a5.749 5.749 0 0 1 5.742 5.742v14.981a5.749 5.749 0 0 1-5.742 5.742H39.741a.492.492 0 0 0-.372.17l-4.007 4.567a.748.748 0 0 1-.564.256zM25.471 2.29a4.247 4.247 0 0 0-4.243 4.242v14.977a4.246 4.246 0 0 0 4.243 4.241h4.781a1.993 1.993 0 0 1 1.57.767l3.006 3.809 3.412-3.889a1.992 1.992 0 0 1 1.5-.682h13.189a4.247 4.247 0 0 0 4.242-4.241V6.532a4.247 4.247 0 0 0-4.242-4.242z"/>
    <path data-name="패스 466" d="M48.577 10.906H30.388a.75.75 0 0 1 0-1.5h18.189a.75.75 0 0 1 0 1.5z"/>
    <path data-name="패스 467" d="M43.761 17.692h-13.4a.75.75 0 0 1 0-1.5h13.4a.75.75 0 0 1 0 1.5z"/>
    <path data-name="패스 468" d="M18.65 38.666a4.579 4.579 0 1 1 4.579-4.579 4.584 4.584 0 0 1-4.579 4.579zm0-7.658a3.079 3.079 0 1 0 3.079 3.079 3.082 3.082 0 0 0-3.079-3.079z"/>
    <path data-name="패스 469" d="M23.436 44.41h-9.572a.75.75 0 0 1 0-1.5h9.572a.75.75 0 0 1 0 1.5z"/>
</svg>
