<svg xmlns="http://www.w3.org/2000/svg" width="173.987" height="174" viewBox="0 0 173.987 174">
    <g data-name="다각형 3" style="fill:#1f2c34">
        <path d="M695.03 277.064c-5.345 0-10.37-2.081-14.15-5.86l-41.748-41.748a20.065 20.065 0 0 1-5.178-19.33l15.247-56.982a20.07 20.07 0 0 1 14.152-14.155l56.985-15.244a20.005 20.005 0 0 1 5.176-.681c5.343 0 10.367 2.08 14.147 5.857l41.75 41.75a20.072 20.072 0 0 1 5.178 19.33l-15.244 56.976a20.067 20.067 0 0 1-14.161 14.161l-56.98 15.245c-1.685.451-3.427.68-5.174.68z" style="stroke:none" transform="translate(-623.277 -113.064)"/>
        <path d="M725.514 133.064c-.864 0-1.735.112-2.592.341l-56.98 15.243a10.014 10.014 0 0 0-7.08 7.08l-15.25 56.987a10.01 10.01 0 0 0 2.591 9.67l41.746 41.747a10.016 10.016 0 0 0 9.671 2.59l56.98-15.244a10.014 10.014 0 0 0 7.085-7.086l15.245-56.979a10.016 10.016 0 0 0-2.59-9.671l-41.747-41.747a10.015 10.015 0 0 0-7.08-2.931m0-20c8.013 0 15.548 3.12 21.216 8.783l41.752 41.753c7.557 7.56 10.532 18.666 7.768 28.987l-15.244 56.974c-2.764 10.335-10.902 18.472-21.237 21.237l-56.979 15.245a30.015 30.015 0 0 1-7.76 1.02c-8.015 0-15.55-3.12-21.22-8.786l-41.748-41.75c-7.558-7.558-10.534-18.667-7.766-28.991l15.246-56.977c2.766-10.328 10.898-18.461 21.223-21.229l56.99-15.245a29.999 29.999 0 0 1 7.76-1.021z" style="fill:#fff;stroke:none" transform="translate(-623.277 -113.064)"/>
    </g>
    <path data-name="패스 401" d="M1726.2 2201.958a4 4 0 0 1-2.849-1.18l-4.222-4.222a2.258 2.258 0 0 1 0-3.19l2.507-2.506a2.26 2.26 0 0 1 3.19 0l1.374 1.374 4.475-4.475a2.26 2.26 0 0 1 3.19 0l2.506 2.507a2.258 2.258 0 0 1 0 3.19l-7.323 7.324a4 4 0 0 1-2.848 1.178zm-6.387-7 4.678 4.678a2.4 2.4 0 0 0 1.709.708 2.434 2.434 0 0 0 1.709-.708l7.78-7.779-3.418-3.418-5.5 5.5a.805.805 0 0 1-1.139 0l-2.4-2.4z" transform="translate(-1641.832 -2113.974)" style="fill:#fff"/>
    <path data-name="패스 402" d="M1594.188 2136.334a.728.728 0 0 1-.727-.727v-3.063a10.19 10.19 0 0 1 7.425-9.779l1.1-.307-.74-.866a6.4 6.4 0 0 1-1.537-4.154v-1.138a6.346 6.346 0 0 1 1.259-3.808l.245-.331-.157-.381a31.292 31.292 0 0 1-1.211-3.5l-.126-.449-5.64-.894a.724.724 0 0 1-.614-.718l-.005-12.751a.724.724 0 0 1 .613-.718l5.64-.9.125-.449a31.071 31.071 0 0 1 2.854-6.891l.229-.406-3.358-4.623a.723.723 0 0 1 .074-.941l9.013-9.019a.727.727 0 0 1 .941-.075l4.632 3.36.406-.229a31.108 31.108 0 0 1 6.88-2.849l.449-.125.9-5.656a.724.724 0 0 1 .718-.613l12.75-.005a.725.725 0 0 1 .719.613l.9 5.666.448.125a31.1 31.1 0 0 1 6.862 2.845l.407.229 4.648-3.376a.726.726 0 0 1 .941.074l9.019 9.013a.723.723 0 0 1 .074.941l-3.377 4.657.229.406a31.1 31.1 0 0 1 2.84 6.851l.126.449 5.682.9a.724.724 0 0 1 .614.718l.005 12.75a.724.724 0 0 1-.613.719l-5.682.9-.125.449a31.3 31.3 0 0 1-1.2 3.481l-.158.383.249.331a6.344 6.344 0 0 1 1.283 3.84v1.136a6.4 6.4 0 0 1-1.537 4.154l-.74.866 1.1.307a10.19 10.19 0 0 1 7.425 9.78v3.063a.728.728 0 0 1-.727.727zm57.122-12.491a8.711 8.711 0 0 0-8.7 8.7v2.336H1665v-2.336a8.711 8.711 0 0 0-8.7-8.7h-1.768v3.577a.727.727 0 1 1-1.454 0v-3.577zm-23.847 0a8.711 8.711 0 0 0-8.7 8.7v2.336h22.393v-2.336a8.711 8.711 0 0 0-8.7-8.7h-1.768v3.577a.727.727 0 0 1-1.454 0v-3.577zm-23.847 0a8.711 8.711 0 0 0-8.7 8.7v2.336h22.393v-2.336a8.711 8.711 0 0 0-8.7-8.7h-1.768v3.577a.727.727 0 0 1-1.454 0v-3.577zm42.583-6.435a23.8 23.8 0 0 1-8.471 5.071l-1.49.513 1.357.8a10.238 10.238 0 0 1 3.656 3.691l.63 1.09.63-1.09a10.261 10.261 0 0 1 6.068-4.719l1.1-.307-.74-.866a6.342 6.342 0 0 1-1.518-3.7l-.106-1.513zm-33.7.512a6.341 6.341 0 0 1-1.516 3.672l-.74.866 1.1.307a10.26 10.26 0 0 1 6.068 4.719l.63 1.09.63-1.09a10.24 10.24 0 0 1 3.643-3.684l1.354-.8-1.489-.511a23.855 23.855 0 0 1-8.459-5.047l-1.105-1.018zm41.309-6.568a4.956 4.956 0 0 0-4.951 4.95v1.136a4.951 4.951 0 1 0 9.9 0v-1.138a4.956 4.956 0 0 0-4.951-4.948zm-23.847 0a4.956 4.956 0 0 0-4.951 4.95v1.136a4.951 4.951 0 0 0 9.9 0v-1.138a4.956 4.956 0 0 0-4.951-4.948zm-23.847 0a4.956 4.956 0 0 0-4.951 4.95v1.136a4.951 4.951 0 0 0 9.9 0v-1.138a4.956 4.956 0 0 0-4.951-4.948zm17.368-34.551a.727.727 0 0 1 .2 1.426 22.656 22.656 0 0 0-11.632 7.978 22.5 22.5 0 0 0 11.336 35.147l1.634.5-.773-1.523a6.319 6.319 0 0 1-.692-2.888v-1.551l-.439-.189a17.269 17.269 0 1 1 13.687-.016l-.438.19v1.566a6.321 6.321 0 0 1-.685 2.877l-.77 1.524 1.632-.5a22.5 22.5 0 0 0-.307-43.1.727.727 0 1 1 .406-1.4 24.119 24.119 0 0 1 12.357 8.5 23.949 23.949 0 0 1 3.073 23.635l-.49 1.187 1.27-.19a6.483 6.483 0 0 1 .955-.071 6.4 6.4 0 0 1 3.023.761l.734.395.292-.781a29.783 29.783 0 0 0 1.013-3.271.725.725 0 0 1 .592-.544l5.545-.882v-11.51l-5.545-.878a.726.726 0 0 1-.592-.543 29.615 29.615 0 0 0-3.393-8.185.725.725 0 0 1 .034-.8l3.3-4.544-8.141-8.135-4.535 3.295a.727.727 0 0 1-.8.034 29.6 29.6 0 0 0-8.2-3.4.727.727 0 0 1-.543-.592l-.88-5.529-11.509.005-.874 5.518a.726.726 0 0 1-.544.593 29.593 29.593 0 0 0-8.213 3.4.728.728 0 0 1-.8-.034l-4.519-3.278-8.135 8.141 3.277 4.511a.726.726 0 0 1 .034.8 29.589 29.589 0 0 0-3.406 8.224.727.727 0 0 1-.592.544l-5.5.876v11.509l5.5.872a.726.726 0 0 1 .592.543 29.741 29.741 0 0 0 1.016 3.274l.293.784.735-.4a6.381 6.381 0 0 1 3.974-.709l1.262.182-.486-1.179a23.941 23.941 0 0 1 3.086-23.646 24.12 24.12 0 0 1 12.384-8.492.716.716 0 0 1 .195-.032zm6.46 7.218a15.816 15.816 0 0 0-6.828 30.081l.678.325.3-.688a6.4 6.4 0 0 1 11.727-.014l.3.688.677-.327a15.816 15.816 0 0 0-6.861-30.065z" transform="translate(-1545.029 -2018.365)" style="fill:#fff"/>
    <path data-name="패스 403" d="M1747.6 2118.8a.806.806 0 1 1 .806-.806.807.807 0 0 1-.806.806z" transform="translate(-1662.693 -2058.302)" style="fill:#fff"/>
</svg>
