<svg xmlns="http://www.w3.org/2000/svg" width="60.181" height="59.776" viewBox="0 0 60.181 59.776">
    <path data-name="사각형 1610" transform="translate(.09)" style="fill:transparent" d="M0 0h60v59.777H0z"/>
    <g data-name="그룹 796">
        <g data-name="그룹 786">
            <path data-name="패스 422" d="M693.247 296.608h-8.433a.651.651 0 0 1-.636-.665v-21.519a.7.7 0 0 1 .064-.291l2.931-6.274a.636.636 0 0 1 .573-.373h5.5a.665.665 0 0 1 0 1.329h-5.1l-2.693 5.763v20.7h7.8a.666.666 0 0 1 0 1.33z" style="fill:#262626" transform="translate(-684.178 -242.94)"/>
        </g>
        <g data-name="그룹 795">
            <g data-name="그룹 787">
                <path data-name="패스 423" d="M712 296.613h-14.538a.661.661 0 0 1-.669-.655v-42.373a.661.661 0 0 1 .669-.655h29.727a.661.661 0 0 1 .668.655v13.628a.669.669 0 0 1-1.337 0V254.24h-28.39v41.06H712a.655.655 0 1 1 .051 1.31H712z" style="fill:#262626" transform="translate(-684.178 -242.94)"/>
            </g>
            <g data-name="그룹 788">
                <path data-name="패스 424" d="M718.443 253.9h-13.211a.655.655 0 0 1-.68-.63v-8.444a.655.655 0 0 1 .676-.634h13.215a.656.656 0 0 1 .679.63v8.445a.654.654 0 0 1-.676.633zm-12.537-1.267h11.861v-7.173h-11.861z" style="fill:#262626" transform="translate(-684.178 -242.94)"/>
            </g>
            <g data-name="그룹 794">
                <g data-name="그룹 789">
                    <path data-name="패스 425" d="M720.413 267h-17.15a.733.733 0 0 1 0-1.456h17.15a.733.733 0 0 1 0 1.456z" style="fill:#262626" transform="translate(-684.178 -242.94)"/>
                </g>
                <g data-name="그룹 791">
                    <path data-name="패스 427" d="M712.671 274.77h-9.431a.737.737 0 0 1 0-1.456h9.431a.737.737 0 0 1 0 1.456z" style="fill:#262626" transform="translate(-684.178 -242.94)"/>
                </g>
            </g>
        </g>
    </g>
    <g data-name="그룹 799">
        <g data-name="그룹 797">
            <path data-name="패스 430" d="M729.18 301.465a15.18 15.18 0 1 1 15.179-15.181 15.2 15.2 0 0 1-15.179 15.181zm0-29.042a13.862 13.862 0 1 0 13.862 13.862 13.882 13.882 0 0 0-13.862-13.862z" style="fill:#262626" transform="translate(-684.178 -242.94)"/>
        </g>
    </g>
    <g data-name="그룹 800">
        <path data-name="패스 490" d="M46.09 54.696h-2.174a1.678 1.678 0 0 1-1.639-1.344l-.3-1.484a9.084 9.084 0 0 1-.86-.36l-1.262.843a1.675 1.675 0 0 1-2.113-.21l-1.537-1.538a1.672 1.672 0 0 1-.209-2.111l.838-1.258a9.094 9.094 0 0 1-.358-.865l-1.483-.3a1.678 1.678 0 0 1-1.344-1.637V42.26a1.677 1.677 0 0 1 1.342-1.638l1.489-.3a8.927 8.927 0 0 1 .357-.859l-.843-1.263a1.675 1.675 0 0 1 .211-2.113l1.537-1.537a1.672 1.672 0 0 1 2.113-.208l1.26.84a8.8 8.8 0 0 1 .862-.36l.3-1.484a1.677 1.677 0 0 1 1.638-1.343h2.175a1.68 1.68 0 0 1 1.636 1.338l.3 1.488a8.861 8.861 0 0 1 .86.359l1.263-.842a1.673 1.673 0 0 1 2.113.21l1.537 1.538a1.672 1.672 0 0 1 .208 2.112l-.838 1.257a9.065 9.065 0 0 1 .359.865l1.482.3a1.675 1.675 0 0 1 1.346 1.642v2.174a1.676 1.676 0 0 1-1.343 1.638l-1.485.3a8.7 8.7 0 0 1-.359.859l.842 1.264a1.673 1.673 0 0 1-.21 2.111l-1.538 1.538a1.673 1.673 0 0 1-2.112.208l-1.257-.838a9.3 9.3 0 0 1-.865.358l-.3 1.483a1.678 1.678 0 0 1-1.639 1.339zm-5.021-4.806a.751.751 0 0 1 .359.091 7.44 7.44 0 0 0 1.417.593.749.749 0 0 1 .519.571l.383 1.913a.174.174 0 0 0 .17.138h2.172a.174.174 0 0 0 .169-.138l.382-1.914a.749.749 0 0 1 .521-.571 7.518 7.518 0 0 0 1.425-.589.749.749 0 0 1 .772.036l1.622 1.082a.172.172 0 0 0 .217-.021l1.541-1.539a.173.173 0 0 0 .022-.217l-1.087-1.63a.752.752 0 0 1-.035-.775 7.472 7.472 0 0 0 .593-1.418.751.751 0 0 1 .571-.519l1.913-.382a.173.173 0 0 0 .137-.168V42.26a.171.171 0 0 0-.138-.169l-1.913-.383a.75.75 0 0 1-.571-.521 7.54 7.54 0 0 0-.59-1.425.751.751 0 0 1 .037-.772l1.081-1.622a.172.172 0 0 0-.02-.217l-1.54-1.541a.174.174 0 0 0-.217-.022l-1.631 1.087a.752.752 0 0 1-.775.035 7.45 7.45 0 0 0-1.417-.593.751.751 0 0 1-.519-.571l-.382-1.913a.173.173 0 0 0-.168-.135h-2.172a.173.173 0 0 0-.169.138l-.382 1.912a.751.751 0 0 1-.52.571 7.467 7.467 0 0 0-1.418.592.75.75 0 0 1-.775-.035l-1.627-1.084a.171.171 0 0 0-.218.02l-1.54 1.54a.172.172 0 0 0-.022.218L38.333 39a.748.748 0 0 1 .035.773 7.561 7.561 0 0 0-.59 1.417.75.75 0 0 1-.572.52l-1.916.383a.173.173 0 0 0-.137.169v2.175a.173.173 0 0 0 .138.168l1.913.382a.749.749 0 0 1 .572.522 7.534 7.534 0 0 0 .589 1.424.749.749 0 0 1-.036.772l-1.082 1.623a.17.17 0 0 0 .021.216l1.54 1.54a.172.172 0 0 0 .218.022l1.629-1.087a.757.757 0 0 1 .414-.129z"/>
        <path data-name="패스 491" d="M44.998 48.705a5.36 5.36 0 1 1 2.26-10.222.75.75 0 1 1-.632 1.36 3.859 3.859 0 1 0 2.234 3.5.751.751 0 0 1 .75-.75.75.75 0 0 1 .749.751 5.386 5.386 0 0 1-.5 2.256 5.373 5.373 0 0 1-4.863 3.1z"/>
    </g>
</svg>
