<svg xmlns="http://www.w3.org/2000/svg" xmlns:xlink="http://www.w3.org/1999/xlink" width="64.179" height="65.987" viewBox="0 0 64.179 65.987">
  <defs>
    <style>
      .cls-1 {
        fill: none;
      }

      .cls-2 {
        fill: #1f1f1f;
      }

      .cls-3 {
        clip-path: url(#clip-path);
      }

      .cls-4 {
        fill: #fff;
      }
    </style>
    <clipPath id="clip-path">
      <rect id="사각형_1807" data-name="사각형 1807" class="cls-1" width="64.179" height="65.986" transform="translate(0 0)"/>
    </clipPath>
  </defs>
  <g id="ic-data-svc-05" transform="translate(0 0)">
    <rect id="사각형_1803" data-name="사각형 1803" class="cls-2" width="1.8" height="25.378" transform="matrix(0.406, -0.914, 0.914, 0.406, 0.535, 29.921)"/>
    <path id="패스_1041" data-name="패스 1041" d="M1.8,54.1V29.446l21.657-9.9,22.285,9.909V54.227L24.087,64.014ZM0,28.29V55.274L24.093,65.987l23.449-10.6V28.283l-24.1-10.714Z"/>
    <rect id="사각형_1804" data-name="사각형 1804" class="cls-2" width="24.797" height="1.8" transform="translate(23.715 38.589) rotate(-24.557)"/>
    <rect id="사각형_1805" data-name="사각형 1805" class="cls-2" width="1.8" height="25.469" transform="translate(23.19 39.41)"/>
    <rect id="사각형_1806" data-name="사각형 1806" class="cls-2" width="24.997" height="1.801" transform="matrix(0.914, -0.407, 0.407, 0.914, 11.801, 33.037)"/>
    <g id="그룹_1029" data-name="그룹 1029">
      <g id="그룹_1028" data-name="그룹 1028" class="cls-3">
        <path id="패스_1042" data-name="패스 1042" class="cls-4" d="M42.467,45.149,31.058,30.059a15.632,15.632,0,1,1,24.939,0L44.588,45.149a1.329,1.329,0,0,1-2.121,0"/>
        <path id="패스_1043" data-name="패스 1043" class="cls-4" d="M43.527,50.677a6.362,6.362,0,0,1-5.049-2.514L27.07,33.074a20.631,20.631,0,1,1,32.915,0L48.576,48.164a6.359,6.359,0,0,1-5.046,2.513ZM40.6,42.132l0,.005ZM43.527,10a10.438,10.438,0,0,0-9.518,5.9,10.438,10.438,0,0,0,1.038,11.148l8.48,11.218,8.481-11.218A10.438,10.438,0,0,0,53.046,15.9,10.439,10.439,0,0,0,43.527,10"/>
        <path id="패스_1044" data-name="패스 1044" d="M43.527,46.576a2.209,2.209,0,0,1-1.778-.884L30.34,30.6a16.532,16.532,0,1,1,26.375,0l-11.41,15.09a2.21,2.21,0,0,1-1.777.884Zm0-40.676a14.462,14.462,0,0,0-13.188,8.168,14.463,14.463,0,0,0,1.437,15.448l11.408,15.09a.423.423,0,0,0,.343.17h0a.421.421,0,0,0,.341-.169l11.41-15.091a14.463,14.463,0,0,0,1.436-15.448A14.461,14.461,0,0,0,43.527,5.9"/>
      </g>
    </g>
    <g id="그룹_1043" data-name="그룹 1043" transform="translate(0 -2)">
      <path id="사각형_1813" data-name="사각형 1813" d="M1.5,1.5v4h4v-4h-4M0,0H7V7H0Z" transform="translate(36.09 16)"/>
      <path id="사각형_1814" data-name="사각형 1814" d="M1.5,1.5v4h4v-4h-4M0,0H7V7H0Z" transform="translate(45.09 16)"/>
      <path id="사각형_1815" data-name="사각형 1815" d="M1.5,1.5v4h4v-4h-4M0,0H7V7H0Z" transform="translate(36.09 25)"/>
      <path id="사각형_1816" data-name="사각형 1816" d="M1.5,1.5v4h4v-4h-4M0,0H7V7H0Z" transform="translate(45.09 25)"/>
    </g>
  </g>
</svg>
