<svg xmlns="http://www.w3.org/2000/svg" width="60" height="59.776" viewBox="0 0 60 59.776">
    <path data-name="사각형 1606" style="fill:transparent" d="M0 0h60v59.777H0z"/>
    <g data-name="ico">
        <path data-name="패스 470" d="M24.371 20.143c-13.315 0-23.746-4.327-23.746-9.852S11.056.439 24.371.439s23.746 4.327 23.746 9.852-10.43 9.852-23.746 9.852zm0-18.2c-12.058 0-22.246 3.825-22.246 8.352s10.188 8.352 22.246 8.352 22.246-3.825 22.246-8.352S36.43 1.939 24.371 1.939z"/>
        <path data-name="패스 471" d="M24.522 59.345c-13.4 0-23.9-5.211-23.9-11.864V33.593a.75.75 0 0 1 1.5 0v13.888c0 5.618 10.256 10.364 22.4 10.364 1.231 0 2.457-.047 3.643-.139a.741.741 0 0 1 .806.689.749.749 0 0 1-.689.806 48.268 48.268 0 0 1-3.76.144z"/>
        <path data-name="패스 472" d="M20.819 46.238a.579.579 0 0 1-.059 0C9.093 45.338.625 40.41.625 34.522V21.557a.75.75 0 0 1 1.5 0v12.962c0 5 8.061 9.4 18.751 10.221a.75.75 0 0 1-.057 1.5z"/>
        <path data-name="패스 473" d="M47.367 21.102a.75.75 0 0 1-.75-.75V10.77a.75.75 0 0 1 1.5 0v9.582a.75.75 0 0 1-.75.75z"/>
        <path data-name="패스 474" d="M20.819 33.28a.578.578 0 0 1-.059 0C9.093 32.38.625 27.452.625 21.564V10.447a.75.75 0 0 1 1.5 0v11.115c0 5 8.061 9.4 18.751 10.221a.75.75 0 0 1-.057 1.5z"/>
    </g>
    <g data-name="그룹 780">
        <path data-name="패스 475" d="M32.858 34.346h-5.562a.75.75 0 0 1-.75-.75v-5.557a.75.75 0 0 1 1.5 0v4.807h4.808a.75.75 0 0 1 0 1.5z"/>
        <path data-name="패스 476" d="M56.004 57.492a.75.75 0 0 1-.75-.75v-4.807h-4.808a.75.75 0 0 1 0-1.5h5.558a.75.75 0 0 1 .75.75v5.557a.75.75 0 0 1-.75.75z"/>
        <path data-name="패스 477" d="M42.085 59.334a17.432 17.432 0 0 1-17.146-20.309.75.75 0 0 1 1.48.248A15.922 15.922 0 0 0 55.35 50.767a.75.75 0 0 1 1.246.835 17.311 17.311 0 0 1-11.1 7.4 17.61 17.61 0 0 1-3.411.332z"/>
        <path data-name="패스 478" d="M58.367 46.375a.721.721 0 0 1-.166-.018.749.749 0 0 1-.566-.9 16.02 16.02 0 0 0-6.669-16.749 15.92 15.92 0 0 0-22.088 4.37.75.75 0 0 1-1.247-.835 17.422 17.422 0 0 1 31.465 13.552.75.75 0 0 1-.729.58z"/>
    </g>
</svg>
