<svg xmlns="http://www.w3.org/2000/svg" xmlns:xlink="http://www.w3.org/1999/xlink" width="64.179" height="65.987" viewBox="0 0 64.179 65.987">
  <defs>
    <clipPath id="clip-path">
      <rect id="사각형_1807" data-name="사각형 1807" width="64.179" height="65.986" transform="translate(0 0)" fill="none"/>
    </clipPath>
  </defs>
  <g id="ic-data-svc-05" transform="translate(0 0)">
    <rect id="사각형_1803" data-name="사각형 1803" width="1.8" height="25.378" transform="matrix(0.406, -0.914, 0.914, 0.406, 0.535, 29.921)" fill="#1f1f1f"/>
    <path id="패스_1041" data-name="패스 1041" d="M1.8,54.1V29.446l21.657-9.9,22.285,9.909V54.227L24.087,64.014ZM0,28.29V55.274L24.093,65.987l23.449-10.6V28.283l-24.1-10.714Z"/>
    <rect id="사각형_1804" data-name="사각형 1804" width="24.797" height="1.8" transform="translate(23.715 38.589) rotate(-24.557)" fill="#1f1f1f"/>
    <rect id="사각형_1805" data-name="사각형 1805" width="1.8" height="25.469" transform="translate(23.19 39.41)" fill="#1f1f1f"/>
    <rect id="사각형_1806" data-name="사각형 1806" width="24.997" height="1.801" transform="matrix(0.914, -0.407, 0.407, 0.914, 11.801, 33.037)" fill="#1f1f1f"/>
    <g id="그룹_1029" data-name="그룹 1029">
      <g id="그룹_1028" data-name="그룹 1028" clip-path="url(#clip-path)">
        <path id="패스_1042" data-name="패스 1042" d="M42.467,45.149,31.058,30.059a15.632,15.632,0,1,1,24.939,0L44.588,45.149a1.329,1.329,0,0,1-2.121,0" fill="#fff"/>
        <path id="패스_1043" data-name="패스 1043" d="M43.527,50.677a6.362,6.362,0,0,1-5.049-2.514L27.07,33.074a20.631,20.631,0,1,1,32.915,0L48.576,48.164a6.359,6.359,0,0,1-5.046,2.513ZM40.6,42.132l0,.005ZM43.527,10a10.438,10.438,0,0,0-9.518,5.9,10.438,10.438,0,0,0,1.038,11.148l8.48,11.218,8.481-11.218A10.438,10.438,0,0,0,53.046,15.9,10.439,10.439,0,0,0,43.527,10" fill="#fff"/>
        <path id="패스_1044" data-name="패스 1044" d="M43.527,46.576a2.209,2.209,0,0,1-1.778-.884L30.34,30.6a16.532,16.532,0,1,1,26.375,0l-11.41,15.09a2.21,2.21,0,0,1-1.777.884Zm0-40.676a14.462,14.462,0,0,0-13.188,8.168,14.463,14.463,0,0,0,1.437,15.448l11.408,15.09a.423.423,0,0,0,.343.17h0a.421.421,0,0,0,.341-.169l11.41-15.091a14.463,14.463,0,0,0,1.436-15.448A14.461,14.461,0,0,0,43.527,5.9"/>
      </g>
    </g>
    <g id="그룹_1032" data-name="그룹 1032" transform="translate(34.09 12)">
      <g id="그룹_1033" data-name="그룹 1033">
        <path id="패스_1054" data-name="패스 1054" d="M20.5,2h-1a.5.5,0,1,1,0-1h1a.5.5,0,0,1,0,1" transform="translate(-12 -1)"/>
        <path id="패스_1055" data-name="패스 1055" d="M13.5,21a.5.5,0,0,1-.5-.5v-1a.5.5,0,1,1,1,0v1a.5.5,0,0,1-.5.5" transform="translate(-7.999 -12)"/>
        <path id="패스_1058" data-name="패스 1058" d="M1,1V5H5V1H1M0,0H6V6H0Z"/>
        <path id="패스_1058-2" data-name="패스 1058" d="M1,1V5H5V1H1M0,0H6V6H0Z" transform="translate(12)"/>
        <path id="패스_1058-3" data-name="패스 1058" d="M1,1V5H5V1H1M0,0H6V6H0Z" transform="translate(0 12)"/>
        <path id="합치기_5" data-name="합치기 5" d="M20688-24572V-24574h1v2.006Zm0-2.006v-1h3v1Zm3-1v-3h1v3Z" transform="translate(-20681 24579)" fill="#101010"/>
        <path id="합치기_6" data-name="합치기 6" d="M20688-24574v-4h1v3h3v1Z" transform="translate(-20688 24585)"/>
        <path id="패스_1063" data-name="패스 1063" d="M11.157,11.107H6.939V7.8h.991v2.312h2.235V7.107h3.774V8.1H11.157Z" transform="translate(0.061 -0.107)"/>
        <path id="패스_1063-2" data-name="패스 1063" d="M18.064,10.975h-1V8.125H15v-1h3.064Z"/>
        <path id="패스_1063-3" data-name="패스 1063" d="M18,13.98H17v-.871H13.078V10h1v2.109H18Z"/>
        <path id="패스_1063-4" data-name="패스 1063" d="M7.908,17.98h-1V12.041H10v1H7.908Z"/>
        <path id="패스_1063-5" data-name="패스 1063" d="M14.012,17.99h-1V16.029H10.072v-1h3.939Z"/>
        <path id="패스_1063-6" data-name="패스 1063" d="M17.986,17.881H15.033v-1h1.953V15.029h1Z"/>
      </g>
    </g>
  </g>
</svg>
