<svg xmlns="http://www.w3.org/2000/svg" width="59.828" height="47.284" viewBox="0 0 59.828 47.284">
    <g data-name="그룹 801">
        <path data-name="패스 411" d="M49.695 47.284a10.14 10.14 0 0 1-10.066-9.065l-.059-.533H5.363A5.388 5.388 0 0 1 0 32.286V5.407a5.387 5.387 0 0 1 5.363-5.4h16.672a.6.6 0 0 1 0 1.2H5.363a4.19 4.19 0 0 0-4.171 4.2v26.875a4.19 4.19 0 0 0 4.171 4.2H39.57l.059-.533a10.125 10.125 0 0 1 13.444-8.486l.795.285V5.4a4.19 4.19 0 0 0-4.172-4.2H32.76a.6.6 0 0 1 0-1.2h16.936a5.386 5.386 0 0 1 5.363 5.4v23.019l.264.179a10.208 10.208 0 0 1-5.627 18.673zm0-19.2a9 9 0 1 0 8.938 9.06v-.062a8.974 8.974 0 0 0-8.938-8.995z"/>
        <path data-name="패스 412" d="M48.889 40.244a.6.6 0 0 1-.422-.176l-2.539-2.539a.6.6 0 0 1 .846-.846l2.115 2.116 4.3-4.3a.6.6 0 0 1 .845.846l-4.719 4.72a.6.6 0 0 1-.426.179z"/>
        <path data-name="패스 413" d="M30.259 16.194a.6.6 0 0 1-.6-.6v-4.786a.6.6 0 0 1 .6-.6h19.39a.6.6 0 0 1 .6.6v4.786a.6.6 0 0 1-.6.6h-19.39zm.6-1.2h18.193v-3.59H30.857z"/>
        <path data-name="패스 414" d="M30.259 21.847a.6.6 0 0 1 0-1.2h19.39a.6.6 0 0 1 0 1.2z"/>
        <path data-name="패스 415" d="M30.301 27.492a.6.6 0 0 1 0-1.2h7.176a.6.6 0 1 1 0 1.2z"/>
        <path data-name="패스 416" d="M15.436 29.49a10.65 10.65 0 1 1 10.651-10.656A10.652 10.652 0 0 1 15.436 29.49zm-1.528-7.8a4.556 4.556 0 0 0-4.535 4.041l-.039.332.263.207a9.425 9.425 0 0 0 11.67 0l.262-.207-.038-.332a4.557 4.557 0 0 0-4.535-4.041zm1.528-8.694a3.781 3.781 0 0 1 3.777 3.777v1.14a3.756 3.756 0 0 1-.6 2.035l-.405.631.705.255a5.8 5.8 0 0 1 3.34 3.146l.435 1.011.611-.916a9.456 9.456 0 1 0-15.728 0l.612.915.435-1.01a5.8 5.8 0 0 1 3.339-3.146l.706-.255-.406-.631a3.757 3.757 0 0 1-.6-2.035v-1.14a3.781 3.781 0 0 1 3.777-3.777zm0 1.2a2.584 2.584 0 0 0-2.58 2.581v1.14a2.581 2.581 0 0 0 5.162 0v-1.14a2.585 2.585 0 0 0-2.582-2.585z"/>
        <path data-name="패스 417" d="M27.397 1.208a.6.6 0 1 1 .6-.6.6.6 0 0 1-.6.6z"/>
    </g>
</svg>
