<svg xmlns="http://www.w3.org/2000/svg" width="64" height="88" viewBox="0 0 64 88">
    <g data-name="사각형 1612" style="stroke:#000;stroke-width:2px;fill:#fff">
        <rect width="64" height="88" rx="10" style="stroke:none"/>
        <rect x="1" y="1" width="62" height="86" rx="9" style="fill:none"/>
    </g>
    <path data-name="사각형 1613" d="M26 77h13v2H26z"/>
    <g style="fill:#fff">
        <path d="M17.5 36.5a18.933 18.933 0 0 1-13.435-5.565A18.933 18.933 0 0 1-1.5 17.5 18.933 18.933 0 0 1 4.065 4.065 18.933 18.933 0 0 1 17.5-1.5a18.933 18.933 0 0 1 13.435 5.565A18.933 18.933 0 0 1 36.5 17.5a18.933 18.933 0 0 1-5.565 13.435A18.933 18.933 0 0 1 17.5 36.5zm0-13.125a.688.688 0 1 0 .002 1.377.688.688 0 0 0-.002-1.377zm0-13.125c-.08 0-.14.06-.14.14v7.657c0 .08.06.14.14.14.08 0 .14-.06.14-.14V10.39c0-.08-.06-.141-.14-.141z" style="stroke:none" transform="translate(15 19)"/>
        <path d="M17.5 35C27.166 35 35 27.166 35 17.5S27.166 0 17.5 0 0 7.834 0 17.5 7.834 35 17.5 35m0-13.125c1.21 0 2.188.978 2.188 2.188 0 1.21-.978 2.187-2.188 2.187a2.185 2.185 0 0 1-2.188-2.188c0-1.21.978-2.187 2.188-2.187m0-13.125c.91 0 1.64.731 1.64 1.64v7.657c0 .91-.73 1.64-1.64 1.64-.91 0-1.64-.73-1.64-1.64V10.39c0-.91.73-1.641 1.64-1.641m0 29.25c-2.766 0-5.452-.542-7.98-1.612a20.426 20.426 0 0 1-6.516-4.392 20.426 20.426 0 0 1-4.392-6.515A20.377 20.377 0 0 1-3 17.5c0-2.766.542-5.452 1.612-7.98a20.426 20.426 0 0 1 4.392-6.516 20.426 20.426 0 0 1 6.515-4.392A20.377 20.377 0 0 1 17.5-3c2.766 0 5.452.542 7.98 1.612a20.426 20.426 0 0 1 6.516 4.392 20.426 20.426 0 0 1 4.392 6.515A20.377 20.377 0 0 1 38 17.5c0 2.766-.542 5.452-1.612 7.98a20.426 20.426 0 0 1-4.392 6.516 20.426 20.426 0 0 1-6.515 4.392A20.377 20.377 0 0 1 17.5 38z" style="fill:red;stroke:none" transform="translate(15 19)"/>
    </g>
    <path data-name="사각형 1614" d="M2 69h60v2H2z"/>
</svg>
