<svg xmlns="http://www.w3.org/2000/svg" width="66.82" height="64.001" viewBox="0 0 66.82 64.001">
    <path data-name="패스 307" d="M582.274 401.207a14.089 14.089 0 0 0-8.522-26.218 18.3 18.3 0 0 0-36.11-2.7 15.491 15.491 0 0 0-3.278 29.745" transform="translate(-523.5 -357)" style="stroke:#000;fill:none;stroke-linecap:round;stroke-linejoin:round;stroke-width:2px"/>
    <path data-name="패스 308" d="M543.231 369.691a15.56 15.56 0 0 0-9.407-1.512" transform="translate(-519.685 -352.909)" style="stroke:#000;fill:none;stroke-linecap:round;stroke-linejoin:round;stroke-width:2px"/>
    <path data-name="패스 309" d="M538.636 386v11.273H533l9.864 11.273 9.864-11.273h-5.636v-7.046h0" transform="translate(-520.022 -345.545)" style="stroke:#0021ff;fill:none;stroke-linecap:round;stroke-linejoin:round;stroke-width:2px"/>
    <path data-name="패스 310" d="M562.091 402.546v-11.273h5.637L557.864 380 548 391.273h5.637v7.046" transform="translate(-513.886 -347.999)" style="stroke:#0021ff;fill:none;stroke-linecap:round;stroke-linejoin:round;stroke-width:2px"/>
</svg>
