<svg xmlns="http://www.w3.org/2000/svg" width="71.39" height="69.609" viewBox="0 0 71.39 69.609">
    <g data-name="그룹 618">
        <g data-name="그룹 613">
            <g data-name="그룹 612">
                <g data-name="그룹 611">
                    <g data-name="그룹 610">
                        <path data-name="패스 319" d="M592.666 78.978s6.768-5.33 10.983-8.573c4.028-3.1 7.239-2.189 9.874.137a.977.977 0 0 1 .054 1.44l-20.41 19.7h-27.4" style="stroke-width:5.628px;stroke-linecap:round;stroke-linejoin:round;stroke:#004cf0;fill:none" transform="translate(-545.293 -34.217)"/>
                        <path data-name="패스 320" d="M555.553 82.374c5.193-6.675 9.31-9.221 14.438-9.221 4.29 0 6.575.519 10.235 3.037h7.852c1.261 0 5.425.574 5.425 6.861h-16.529" style="stroke-width:5.628px;stroke-linecap:round;stroke-linejoin:round;stroke:#004cf0;fill:none" transform="translate(-545.293 -34.217)"/>
                        <path data-name="패스 321" d="M592.556 78.861s6.74-5.271 10.938-8.478c4.119-3.147 7.381-2.113 10.044.323a.748.748 0 0 1 0 1.087l-20.083 19.243a1.381 1.381 0 0 1-.958.385h-26.726" transform="translate(-545.792 -34.421)" style="stroke:#fff;stroke-width:2px;stroke-linecap:round;stroke-linejoin:round;fill:none"/>
                        <path data-name="패스 322" d="M588.078 76.19c1.209 0 5.085.528 5.4 6.107" style="stroke-width:5.628px;stroke-linecap:round;stroke-linejoin:round;stroke:#004cf0;fill:none" transform="translate(-545.293 -34.217)"/>
                        <path data-name="패스 323" d="M555.553 82.374c5.193-6.675 9.31-9.221 14.438-9.221 4.29 0 6.575.519 10.235 3.037h7.852c1.209 0 5.085.528 5.4 6.107a.726.726 0 0 1-.724.754h-15.78" style="stroke:#fff;stroke-width:2px;stroke-linecap:round;stroke-linejoin:round;fill:none" transform="translate(-545.293 -34.217)"/>
                        <path data-name="패스 324" d="m549.272 85.5 4.27-4.424L567.5 95.423l-4.27 4.424" style="stroke-width:5.628px;stroke-linecap:round;stroke-linejoin:round;stroke:#004cf0;fill:none" transform="translate(-545.293 -34.217)"/>
                        <path data-name="패스 325" d="m549.272 85.5 4.27-4.424L567.5 95.423l-4.27 4.424" style="fill:#004cf0;stroke:#fff;stroke-width:2px;stroke-linecap:round;stroke-linejoin:round" transform="translate(-545.293 -34.217)"/>
                    </g>
                </g>
            </g>
        </g>
        <g data-name="그룹 617">
            <g data-name="그룹 616">
                <g data-name="그룹 615">
                    <g data-name="그룹 614">
                        <path data-name="패스 326" d="M596.78 55.85V40.135c-5.822 0-10.886-1.461-13.5-4.918-2.614 3.458-7.678 4.918-13.5 4.918V55.85a8.25 8.25 0 0 0 3.69 6.883l9.81 6.484 9.81-6.484a8.249 8.249 0 0 0 3.69-6.883z" transform="translate(-545.801 -34.217)" style="stroke:#fff;stroke-width:2px;stroke-linecap:round;stroke-linejoin:round;fill:none"/>
                    </g>
                    <path data-name="패스 327" d="m591.62 46.9-8.875 12-6.125-7.053" transform="translate(-545.641 -34.902)" style="stroke:#fff;stroke-width:2px;stroke-linecap:round;stroke-linejoin:round;fill:none"/>
                </g>
            </g>
        </g>
    </g>
</svg>
