<svg xmlns="http://www.w3.org/2000/svg" width="64.001" height="64.001" viewBox="0 0 64.001 64.001">
    <g transform="translate(-521 -280)">
        <path data-name="패스 296" d="M554.783 333.663h-8" transform="translate(2.218 4.337)" style="stroke:#000;fill:none;stroke-linecap:round;stroke-linejoin:round;stroke-width:2px"/>
        <path data-name="패스 297" d="M545.419 330.565H524.7a2.7 2.7 0 0 0-2.7 2.7v1.349a4.043 4.043 0 0 0 4.043 4.043h53.915a4.043 4.043 0 0 0 4.042-4.048v-1.349a2.7 2.7 0 0 0-2.7-2.7h-20.718" transform="translate(0 4.349)" style="stroke:#000;fill:none;stroke-linecap:round;stroke-linejoin:round;stroke-width:2px"/>
        <path data-name="선 27" transform="translate(579.958 313.349)" style="stroke:#000;fill:none;stroke-linecap:round;stroke-linejoin:round;stroke-width:2px" d="M0 0v16.174"/>
        <path data-name="패스 298" d="M525.717 328.218v-28.305a4.044 4.044 0 0 1 4.044-4.043h8.087" transform="translate(.326 1.305)" style="stroke:#000;fill:none;stroke-linecap:round;stroke-linejoin:round;stroke-width:2px"/>
        <path data-name="패스 299" d="M541.826 294.333v8a5.334 5.334 0 0 0 5.334 5.334h5.108a1.335 1.335 0 0 1 1.047.507l3.809 4.826 4.28-4.879a1.331 1.331 0 0 1 1-.454h14.085a5.334 5.334 0 0 0 5.334-5.334v-16a5.333 5.333 0 0 0-5.331-5.333H547.16a5.333 5.333 0 0 0-5.334 5.334z" transform="translate(1.174)" style="stroke:#0121fb;fill:none;stroke-linecap:round;stroke-linejoin:round;stroke-width:2px"/>
        <path data-name="선 28" transform="translate(554 290)" style="stroke:#0121fb;fill:none;stroke-linecap:round;stroke-linejoin:round;stroke-width:2px" d="M0 0h18"/>
        <circle data-name="타원 3" cx="4" cy="4" r="4" transform="translate(536 313)" style="stroke:#000;fill:none;stroke-linecap:round;stroke-linejoin:round;stroke-width:2px"/>
        <path data-name="선 30" transform="translate(535 326)" style="stroke:#000;fill:none;stroke-linecap:round;stroke-linejoin:round;stroke-width:2px" d="M0 0h10"/>
        <path data-name="선 31" transform="translate(554 297)" style="stroke:#0121fb;fill:none;stroke-linecap:round;stroke-linejoin:round;stroke-width:2px" d="M0 0h12"/>
    </g>
</svg>
