<svg xmlns="http://www.w3.org/2000/svg" width="65.861" height="79.45" viewBox="0 0 65.861 79.45">
    <path data-name="패스 279" d="M1579.1 2486.71v1.091a4.85 4.85 0 0 1-4.851 4.851h-23.989" transform="translate(-1523.338 -2432.375)" style="stroke-width:2px;stroke:#0121fb;fill:none;stroke-linejoin:round"/>
    <path data-name="패스 280" d="M1553.591 2457.558h21.017" transform="translate(-1526.146 -2407.527)" style="stroke-width:2px;stroke:#0121fb;fill:none;stroke-linejoin:round"/>
    <path data-name="패스 281" d="M1534.705 2146.543v-13.5a4.851 4.851 0 0 0-4.851-4.852h-26.976a4.852 4.852 0 0 0-4.854 4.852v10.4" transform="translate(-1478.939 -2127.192)" style="stroke-width:2px;stroke:#0121fb;fill:none;stroke-linejoin:round"/>
    <path data-name="패스 282" d="M1498.024 2183.263h36" transform="translate(-1479.163 -2174.262)" style="stroke-width:2px;stroke:#0121fb;fill:none;stroke-linejoin:round"/>
    <path data-name="선 26" transform="translate(34.509 55.096)" style="stroke-width:2px;stroke:#0121fb;fill:none;stroke-linejoin:round" d="M0 0h5.879"/>
    <path data-name="패스 283" d="M1397.969 2299.984s4.008-14.094-3.316-22.523c0 0 5.3-15.049-1.061-20.663-1.368-1.208-3.339-.184-3.918 1.546l-5.689 17a16.387 16.387 0 0 0-.66 3.212l-.615 11.81a8.944 8.944 0 0 1-.948 3.084l-5.492 9.282" transform="translate(-1375.409 -2236.435)" style="stroke:#000;stroke-width:2px;fill:none;stroke-linejoin:round"/>
    <path data-name="패스 284" d="M1560.274 2550a17.344 17.344 0 0 1-14.21 8.124l-3.631 7.209" transform="translate(-1516.659 -2486.337)" style="stroke:#000;stroke-width:2px;fill:none;stroke-linejoin:round"/>
    <path data-name="패스 285" d="M1761.836 2199.181a4.241 4.241 0 0 1 4.936 6.772l-3.349 3.35a4.25 4.25 0 0 1-.938.709" transform="translate(-1703.153 -2187.129)" style="stroke:#000;stroke-width:2px;fill:none;stroke-linejoin:round"/>
    <path data-name="패스 286" d="M1721.543 2275.1a4.241 4.241 0 0 1 6 0 4.241 4.241 0 0 1 0 6l-1.011 1.011a4.239 4.239 0 0 1-6 0 4.24 4.24 0 0 1 0-6z" transform="translate(-1666.993 -2251.2)" style="stroke:#000;stroke-width:2px;fill:none;stroke-linejoin:round"/>
    <path data-name="패스 287" d="M1725.215 2335.775a4.241 4.241 0 0 1 2.325 7.186l-1.011 1.012a4.241 4.241 0 0 1-6.364-5.579" transform="translate(-1666.993 -2303.908)" style="stroke:#000;stroke-width:2px;fill:none;stroke-linejoin:round"/>
    <path data-name="패스 288" d="M1725.221 2397.41a4.241 4.241 0 0 1 2.319 7.185l-1.011 1.012a4.241 4.241 0 0 1-6.544-5.327" transform="translate(-1666.993 -2356.378)" style="stroke:#000;stroke-width:2px;fill:none;stroke-linejoin:round"/>
    <g data-name="그룹 579">
        <path data-name="사각형 710" style="stroke-width:.75px;stroke:#000;fill:none;stroke-linejoin:round" d="M0 0h6.201v6.201H0z" transform="translate(27.861 19.637)"/>
        <path data-name="사각형 711" transform="translate(29.61 21.385)" style="stroke-width:.75px;stroke:#000;fill:none;stroke-linejoin:round" d="M0 0h2.704v2.704H0z"/>
        <path data-name="사각형 712" transform="translate(41.024 19.637)" style="stroke-width:.75px;stroke:#000;fill:none;stroke-linejoin:round" d="M0 0h6.2v6.201H0z"/>
        <path data-name="사각형 713" transform="translate(42.927 21.385)" style="stroke-width:.75px;stroke:#000;fill:none;stroke-linejoin:round" d="M0 0h2.548v2.704H0z"/>
        <path data-name="사각형 714" transform="translate(27.861 32.8)" style="stroke-width:.75px;stroke:#000;fill:none;stroke-linejoin:round" d="M0 0h6.201v6.201H0z"/>
        <path data-name="사각형 715" transform="translate(29.61 34.548)" style="stroke-width:.75px;stroke:#000;fill:none;stroke-linejoin:round" d="M0 0h2.704v2.704H0z"/>
        <path data-name="패스 289" d="M493.672 469.955h-1.044v-1.9h2.095v.892" transform="translate(-456.133 -448.414)" style="stroke-width:.75px;stroke:#000;fill:none;stroke-linejoin:round"/>
        <path data-name="패스 290" d="M508.225 510.609h1.081v2.315h-2.275v-1.5" transform="translate(-466.081 -477.809)" style="stroke-width:.75px;stroke:#000;fill:none;stroke-linejoin:round"/>
        <path data-name="패스 291" d="M494.723 512.924v2.137h-2.095v-4.452h2.095" transform="translate(-456.133 -477.809)" style="stroke-width:.75px;stroke:#000;fill:none;stroke-linejoin:round"/>
        <path data-name="패스 292" d="M520.544 496.652v-1.006h2.095v2.095h-1.126" transform="translate(-475.414 -467.475)" style="stroke-width:.75px;stroke:#000;fill:none;stroke-linejoin:round"/>
        <path data-name="패스 293" d="M473.069 497.741h-2.7v-2.095h4.452v2.095" transform="translate(-440.756 -467.475)" style="stroke-width:.75px;stroke:#000;fill:none;stroke-linejoin:round"/>
        <path data-name="패스 294" d="M494.723 484.194v-1.748h-2.095v6.178h6.432v-2.095h-4.337" transform="translate(-456.133 -458.357)" style="stroke-width:.75px;stroke:#000;fill:none;stroke-linejoin:round"/>
        <path data-name="패스 295" d="M511.211 513.262V511.1h2.095v6.049h-6.274v-2.095h4.179" transform="translate(-466.081 -478.148)" style="stroke-width:.75px;stroke:#000;fill:none;stroke-linejoin:round"/>
    </g>
</svg>
