<svg xmlns="http://www.w3.org/2000/svg" width="68" height="68" viewBox="0 0 68 68">
    <g transform="translate(-601 -194)">
        <path data-name="패스 300" d="M668 222.3v24.437a2.873 2.873 0 0 1-2.87 2.875h-60.26a2.873 2.873 0 0 1-2.87-2.875v-40.25a2.872 2.872 0 0 1 2.87-2.874h21.521" transform="translate(0 -.609)" style="stroke-linejoin:round;stroke:#000;fill:none;stroke-linecap:round;stroke-width:2px"/>
        <path data-name="선 32" transform="translate(623.522 261)" style="stroke-linejoin:round;stroke:#000;fill:none;stroke-linecap:round;stroke-width:2px" d="M0 0h22.957"/>
        <path data-name="선 33" transform="translate(627 255)" style="stroke-linejoin:round;stroke:#000;fill:none;stroke-linecap:round;stroke-width:2px" d="M0 5V0"/>
        <path data-name="선 34" transform="translate(642 255)" style="stroke-linejoin:round;stroke:#000;fill:none;stroke-linecap:round;stroke-width:2px" d="M0 0v5"/>
        <path data-name="선 35" transform="translate(622 239)" style="stroke-linejoin:round;stroke:#000;fill:none;stroke-linecap:round;stroke-width:2px" d="M0 0h37"/>
        <path data-name="선 36" transform="translate(610 239)" style="stroke-linejoin:round;stroke:#000;fill:none;stroke-linecap:round;stroke-width:2px" d="M0 0h4"/>
        <path data-name="패스 301" d="m663.508 208.805-3.069-.613a13.249 13.249 0 0 0-1.039-2.513l1.735-2.6a1.478 1.478 0 0 0-.185-1.865l-2.467-2.467a1.479 1.479 0 0 0-1.865-.185l-2.613 1.743a13.207 13.207 0 0 0-2.5-1.048l-.613-3.068a1.478 1.478 0 0 0-1.45-1.188h-3.489a1.478 1.478 0 0 0-1.45 1.188l-.613 3.068a13.147 13.147 0 0 0-2.506 1.045l-2.609-1.74a1.479 1.479 0 0 0-1.865.185l-2.467 2.467a1.478 1.478 0 0 0-.185 1.865l1.742 2.612a13.209 13.209 0 0 0-1.042 2.5l-3.073.614a1.478 1.478 0 0 0-1.188 1.449v3.489a1.476 1.476 0 0 0 1.188 1.449l3.069.614a13.24 13.24 0 0 0 1.039 2.512l-1.735 2.6a1.479 1.479 0 0 0 .185 1.866l2.467 2.466a1.478 1.478 0 0 0 1.865.185l2.613-1.742a13.18 13.18 0 0 0 2.5 1.048l.613 3.067a1.478 1.478 0 0 0 1.45 1.189h3.489a1.478 1.478 0 0 0 1.45-1.189l.614-3.069a13.265 13.265 0 0 0 2.512-1.038l2.6 1.734a1.478 1.478 0 0 0 1.865-.185l2.467-2.466a1.479 1.479 0 0 0 .185-1.866l-1.742-2.613a13.261 13.261 0 0 0 1.047-2.5l3.068-.614a1.477 1.477 0 0 0 1.188-1.449v-3.489a1.478 1.478 0 0 0-1.186-1.448z" transform="translate(-.696)" style="stroke:#0021ff;stroke-linejoin:round;fill:none;stroke-linecap:round;stroke-width:2px"/>
        <circle data-name="타원 4" cx="7" cy="7" r="7" transform="translate(640 205)" style="stroke-miterlimit:10;stroke:#0021ff;fill:none;stroke-linecap:round;stroke-width:2px"/>
    </g>
</svg>
