<svg xmlns="http://www.w3.org/2000/svg" width="75.565" height="87.952" viewBox="0 0 75.565 87.952">
    <g data-name="그룹 85">
        <path data-name="패스 517" d="M602 134.364V118.7a4.732 4.732 0 0 1 4.765-4.7H670.3a4.732 4.732 0 0 1 4.765 4.7v53.259" transform="translate(-600.75 -112.75)" style="stroke-miterlimit:10;stroke:#000;fill:none;stroke-linecap:round;stroke-width:2.5px"/>
        <path data-name="패스 518" d="M630 166.944h-23.333a4.716 4.716 0 0 1-4.667-4.765V132" transform="translate(-600.75 -102.971)" style="stroke-miterlimit:10;stroke:#000;fill:none;stroke-linecap:round;stroke-width:2.5px"/>
        <path data-name="사각형 1732" d="M2.25 13.25h53v2.5h-53z"/>
        <path data-name="사각형 1733" d="M59.25 13.25h14v2.5h-14z"/>
        <g data-name="그룹 974" transform="translate(10.25 1.25)">
            <circle data-name="타원 44" cx="1.5" cy="1.5" r="1.5" transform="translate(46 5)"/>
            <circle data-name="타원 45" cx="1.5" cy="1.5" r="1.5" transform="translate(54 5)"/>
        </g>
        <path data-name="사각형 1742" transform="translate(11.25 25.25)" style="fill:#0121fb" d="M0 0h27v2H0z"/>
        <path data-name="사각형 1743" transform="translate(11.25 33.25)" style="fill:#0121fb" d="M0 0h17v2H0z"/>
    </g>
    <path data-name="ico" d="M-1755.275-384.5h0a3.619 3.619 0 0 1 4.968 1.169l5.066 8.186a3.6 3.6 0 0 1 1.625-2.311h0a3.621 3.621 0 0 1 4.662.748 3.61 3.61 0 0 1 1.7-2.815h0a3.621 3.621 0 0 1 4.662.748 3.609 3.609 0 0 1 1.7-2.815h0a3.555 3.555 0 0 1 4.968 1.169l7.012 12.806c5.7 10.412-5.306 23.8-16.371 18.578l-19.193-9.05a3.619 3.619 0 0 1-1.725-4.8c1.674-1.036 5.277-1.5 7.085-.649l3.635 1.714-10.958-17.706a3.619 3.619 0 0 1 1.169-4.967z" transform="translate(1791.278 434.559)" style="stroke-linejoin:round;stroke:#000;fill:none;stroke-linecap:round;stroke-width:2.5px"/>
    <path data-name="ico" d="M-1757.353-372.176a10.48 10.48 0 0 1-6.985-9.88 10.476 10.476 0 0 1 10.475-10.475 10.479 10.479 0 0 1 10.354 8.878" transform="translate(1791.277 434.559)" style="stroke:#0021ff;stroke-linejoin:round;fill:none;stroke-linecap:round;stroke-width:2.5px"/>
</svg>
