<svg xmlns="http://www.w3.org/2000/svg" width="86" height="79" viewBox="0 0 86 79">
    <g data-name="그룹 975" transform="translate(21 1)">
        <circle data-name="타원 44" cx="1.5" cy="1.5" r="1.5" transform="translate(46 5)"/>
        <circle data-name="타원 45" cx="1.5" cy="1.5" r="1.5" transform="translate(54 5)"/>
    </g>
    <path data-name="사각형 1734" d="M42 27h33v2H42z"/>
    <path data-name="사각형 1735" d="M42 37h23v2H42z"/>
    <path data-name="사각형 1736" d="M42 47h16v2H42z"/>
    <g data-name="그룹 978">
        <g data-name="사각형 1744" style="stroke:#000;stroke-width:2.5px;fill:none">
            <rect width="86" height="79" rx="5" style="stroke:none"/>
            <rect x="1.25" y="1.25" width="83.5" height="76.5" rx="3.75" style="fill:none"/>
        </g>
        <path data-name="사각형 1745" d="M2 13h82v2H2z"/>
        <g data-name="그룹 485">
            <path data-name="패스 360" d="M5751.1 259.08a7.727 7.727 0 1 1 3.012-.617 7.693 7.693 0 0 1-3.012.617zm0-13.993a6.29 6.29 0 1 0 2.35.46 6.265 6.265 0 0 0-2.35-.459z" transform="translate(-5728.791 -207.613)" style="fill:#0021ff;stroke:#0021ff;stroke-width:.5px"/>
        </g>
        <path data-name="패스 361" d="M5719.482 237.248a2.338 2.338 0 0 1-.878-.171l-1.491-.6a2.356 2.356 0 0 1-1.3-3.063l.443-1.1a11.16 11.16 0 0 1-1.729-1.7l-1.087.462a2.355 2.355 0 0 1-3.085-1.246l-.628-1.479a2.356 2.356 0 0 1 1.247-3.086l1.087-.462a11.134 11.134 0 0 1-.021-2.423l-1.1-.443a2.353 2.353 0 0 1-1.3-3.063l.6-1.49a2.352 2.352 0 0 1 3.063-1.3l1.1.443a11.118 11.118 0 0 1 1.7-1.729l-.462-1.087a2.356 2.356 0 0 1 1.246-3.086l1.479-.628a2.356 2.356 0 0 1 3.086 1.246l.461 1.087a11.15 11.15 0 0 1 2.423-.021l.443-1.1a2.356 2.356 0 0 1 3.063-1.3l1.49.6a2.354 2.354 0 0 1 1.3 3.063l-.443 1.1a11.141 11.141 0 0 1 1.729 1.7l1.087-.462a2.357 2.357 0 0 1 3.086 1.246l.628 1.479a2.355 2.355 0 0 1-1.247 3.086l-1.087.462a11.136 11.136 0 0 1 .021 2.423l1.1.443a2.353 2.353 0 0 1 1.3 3.063l-.6 1.49a2.352 2.352 0 0 1-3.063 1.3l-1.1-.443a11.133 11.133 0 0 1-1.7 1.729l.462 1.087a2.356 2.356 0 0 1-1.247 3.086l-1.479.628a2.356 2.356 0 0 1-3.085-1.246l-.462-1.088a11.15 11.15 0 0 1-2.422.021l-.442 1.1a2.359 2.359 0 0 1-2.186 1.472zm-4.728-8.225a.716.716 0 0 1 .579.292 9.742 9.742 0 0 0 2.211 2.171.718.718 0 0 1 .25.854l-.65 1.608a.919.919 0 0 0 .508 1.194l1.489.6a.919.919 0 0 0 1.195-.507l.65-1.608a.716.716 0 0 1 .773-.441 9.721 9.721 0 0 0 3.1-.027l.041-.006a.718.718 0 0 1 .757.478l.659 1.551a.918.918 0 0 0 1.2.486l1.479-.628a.918.918 0 0 0 .485-1.2l-.658-1.551a.718.718 0 0 1 .173-.87.34.34 0 0 1 .042-.033 9.737 9.737 0 0 0 2.171-2.212.718.718 0 0 1 .854-.25l1.608.65a.917.917 0 0 0 1.194-.507l.6-1.49a.917.917 0 0 0-.506-1.194l-1.609-.65a.719.719 0 0 1-.441-.773 9.723 9.723 0 0 0-.027-3.1c0-.014 0-.028-.006-.041a.718.718 0 0 1 .479-.758l1.551-.659a.918.918 0 0 0 .486-1.2l-.628-1.479a.918.918 0 0 0-1.2-.486l-1.552.659a.718.718 0 0 1-.869-.174c-.012-.013-.022-.027-.033-.042a9.744 9.744 0 0 0-2.212-2.172.718.718 0 0 1-.25-.854l.65-1.608a.917.917 0 0 0-.507-1.194l-1.491-.6a.918.918 0 0 0-1.193.507l-.65 1.608a.717.717 0 0 1-.773.441 9.728 9.728 0 0 0-3.1.027.718.718 0 0 1-.781-.427l-.677-1.6a.918.918 0 0 0-1.2-.486l-1.479.628a.918.918 0 0 0-.486 1.2l.678 1.6a.718.718 0 0 1-.235.859 9.725 9.725 0 0 0-2.17 2.211.718.718 0 0 1-.854.25l-1.608-.65a.917.917 0 0 0-1.194.507l-.6 1.49a.917.917 0 0 0 .507 1.194l1.608.65a.718.718 0 0 1 .441.773 9.728 9.728 0 0 0 .027 3.1.718.718 0 0 1-.427.781l-1.6.677a.919.919 0 0 0-.486 1.2l.628 1.479a.918.918 0 0 0 1.2.486l1.6-.678a.714.714 0 0 1 .279-.056z" transform="translate(-5700.914 -179.744)" style="fill:#0021ff;stroke:#0021ff;stroke-width:.5px"/>
    </g>
</svg>
