<svg xmlns="http://www.w3.org/2000/svg" width="76" height="71.999" viewBox="0 0 76 71.999">
    <g transform="translate(-292 -1082.001)">
        <circle data-name="타원 39" cx="23" cy="23" r="23" transform="translate(322 1108)" style="fill:#e2e5ff"/>
        <g data-name="그룹 198">
            <path data-name="패스 88" d="M305.151 1142.001h-11.955a1.2 1.2 0 0 1-1.2-1.2v-9.6a1.2 1.2 0 0 1 1.2-1.2h11.955a1.2 1.2 0 0 1 1.2 1.2v9.6a1.2 1.2 0 0 1-1.2 1.2zm-10.76-2.4h9.564v-7.2h-9.564z"/>
        </g>
        <g data-name="그룹 199">
            <path data-name="패스 89" d="M317.75 1141.998h-12.5a1.231 1.231 0 0 1-1.25-1.214v-14.569a1.231 1.231 0 0 1 1.25-1.214h12.5a1.232 1.232 0 0 1 1.25 1.214v14.571a1.232 1.232 0 0 1-1.25 1.212zm-11.25-2.429h10v-12.142h-10z"/>
        </g>
        <g data-name="그룹 200">
            <path data-name="패스 90" d="M330.749 1141.998h-12.5a1.235 1.235 0 0 1-1.25-1.222v-19.556a1.235 1.235 0 0 1 1.25-1.222h12.5a1.236 1.236 0 0 1 1.25 1.222v19.556a1.236 1.236 0 0 1-1.25 1.222zm-11.25-2.444h10v-17.112h-10z"/>
        </g>
        <g data-name="그룹 201">
            <path data-name="패스 91" d="M343.75 1141.999h-12.5a1.26 1.26 0 0 1-1.25-1.273v-25.454a1.26 1.26 0 0 1 1.25-1.273h12.5a1.261 1.261 0 0 1 1.25 1.273v25.454a1.261 1.261 0 0 1-1.25 1.273zm-11.25-2.545h10v-22.91h-10z"/>
        </g>
        <g data-name="그룹 202">
            <path data-name="패스 92" d="M70.384 341.737a1.274 1.274 0 0 1-.9-.374l-3.457-3.458h-5.861a1.276 1.276 0 0 1-1.277-1.277v-5.857l-3.457-3.458a1.278 1.278 0 0 1 0-1.806l3.457-3.457v-5.857a1.276 1.276 0 0 1 1.277-1.277h5.857l3.457-3.457a1.276 1.276 0 0 1 1.806 0l3.457 3.457H80.6a1.277 1.277 0 0 1 1.277 1.277v5.857l3.457 3.457a1.278 1.278 0 0 1 0 1.806l-3.457 3.458v5.857a1.277 1.277 0 0 1-1.277 1.277h-5.856l-3.457 3.458a1.276 1.276 0 0 1-.903.374zm-8.941-6.386h5.109a1.281 1.281 0 0 1 .9.374l2.929 2.929 2.929-2.929a1.279 1.279 0 0 1 .9-.374h5.109v-5.109a1.274 1.274 0 0 1 .374-.9l2.929-2.929-2.922-2.932a1.272 1.272 0 0 1-.374-.9v-5.109h-5.111a1.274 1.274 0 0 1-.9-.374l-2.929-2.929-2.931 2.931a1.276 1.276 0 0 1-.9.374h-5.112v5.109a1.277 1.277 0 0 1-.374.9l-2.929 2.927 2.929 2.929a1.279 1.279 0 0 1 .374.9z" transform="translate(267.29 770.918)" style="fill:#0021ff"/>
        </g>
        <g data-name="그룹 203">
            <path data-name="패스 93" d="M68.411 330.855a6.386 6.386 0 1 1 6.386-6.386 6.394 6.394 0 0 1-6.386 6.386zm0-10.218a3.832 3.832 0 1 0 3.832 3.832 3.836 3.836 0 0 0-3.832-3.831z" transform="translate(269.222 772.859)" style="fill:#0021ff"/>
        </g>
        <g data-name="그룹 204">
            <path data-name="패스 94" d="M294.554 1127.982H292v-44.7a1.276 1.276 0 0 1 1.277-1.277h31.931v2.555h-30.654z"/>
        </g>
        <g data-name="그룹 205">
            <path data-name="사각형 114" d="M350.001 1108.999h2.5v33h-2.5z"/>
        </g>
        <g data-name="그룹 206">
            <path data-name="사각형 115" d="M293.277 1092.165h28.099v2.554h-28.099z"/>
        </g>
        <g data-name="그룹 207">
            <path data-name="사각형 116" d="M297.108 1087.11h2.554v2.554h-2.554z"/>
        </g>
        <g data-name="그룹 208">
            <path data-name="사각형 117" d="M302.164 1087.11h2.554v2.554h-2.554z"/>
        </g>
        <g data-name="그룹 209">
            <path data-name="사각형 118" d="M307.246 1087.11h2.554v2.554h-2.554z"/>
        </g>
    </g>
</svg>
