<svg xmlns="http://www.w3.org/2000/svg" width="116.55" height="80.55" viewBox="0 0 116.55 80.55">
    <path data-name="패스 511" d="M686.522 1101.339a1.112 1.112 0 0 1 0-2.224h6.709v-1.527a14.094 14.094 0 0 0-14.025-14.132h-1.513v4.15a1.1 1.1 0 1 1-2.207 0v-4.15h-1.513a14.094 14.094 0 0 0-14.025 14.132v1.527h6.709a1.112 1.112 0 0 1 0 2.224h-7.813a1.109 1.109 0 0 1-1.1-1.112v-2.18h-20.259a1.11 1.11 0 0 1-1.1-1.113v-2.4a14.9 14.9 0 0 1 10.352-14.252l1.461-.468-.9-1.247a7.835 7.835 0 0 1-1.5-4.628v-2.739a7.807 7.807 0 1 1 15.613 0v2.739a7.835 7.835 0 0 1-1.5 4.624l-.9 1.25 1.463.466a14.626 14.626 0 0 1 4.866 2.65l.562.462.644-.336a16.12 16.12 0 0 1 2.815-1.146l1.552-.466-1-1.285a8.5 8.5 0 0 1-1.8-5.256v-3.016a8.486 8.486 0 1 1 16.972 0v3.016a8.5 8.5 0 0 1-1.8 5.256l-1 1.285 1.552.466a16.1 16.1 0 0 1 2.815 1.146l.643.336c2.012-1.653 7.656 17.944 7.047 17.944zm-35.3-19.529a12.7 12.7 0 0 0-12.632 12.729v1.285h19.224l.154-.93a16.463 16.463 0 0 1 5-9.307l1.043-.973-1.194-.778a12.5 12.5 0 0 0-6.84-2.026H654.7v3.166a1.1 1.1 0 1 1-2.207 0v-3.166zm25.369-16.247a6.31 6.31 0 0 0-6.279 6.327v3.016a6.279 6.279 0 1 0 12.558 0v-3.016a6.31 6.31 0 0 0-6.28-6.327zm-22.994 0a5.627 5.627 0 0 0-5.6 5.642v2.739a5.6 5.6 0 1 0 11.2 0v-2.744a5.627 5.627 0 0 0-5.597-5.637z" transform="translate(-636.131 -1063.089)" style="fill:#d94301;stroke:#d94301;stroke-width:.5px"/>
    <path data-name="사각형 1617" transform="translate(49.07 19.217)" style="fill:#fff" d="M0 0h31v51H0z"/>
    <g data-name="그룹 104">
        <g data-name="그룹 86">
            <path data-name="사각형 66" d="M37.25 54.252h7v3h-7z"/>
        </g>
        <g data-name="그룹 87">
            <path data-name="사각형 67" d="M37.25 62.25h7v3h-7z"/>
        </g>
        <g data-name="그룹 88">
            <path data-name="사각형 68" d="M98.25 54.252h7v3h-7z"/>
        </g>
        <g data-name="그룹 89">
            <path data-name="사각형 69" d="M98.796 63.176h7v3h-7z"/>
        </g>
        <g data-name="그룹 90">
            <path data-name="사각형 70" d="M62.251 56.251h7v3h-7z"/>
        </g>
        <g data-name="그룹 91">
            <path data-name="사각형 71" d="M74.25 56.251h7v3h-7z"/>
        </g>
        <g data-name="그룹 92">
            <path data-name="사각형 72" d="M62.251 46.251h7v3h-7z"/>
        </g>
        <g data-name="그룹 93">
            <path data-name="사각형 73" d="M74.25 46.251h7v3h-7z"/>
        </g>
        <g data-name="그룹 94">
            <path data-name="사각형 74" d="M62.251 35.25h7v3h-7z"/>
        </g>
        <g data-name="그룹 95">
            <path data-name="사각형 75" d="M75.004 36.008h7v3h-7z"/>
        </g>
        <g data-name="그룹 96">
            <path data-name="패스 18" d="M144.807 160.707h-34.77a1.614 1.614 0 0 1-1.615-1.612v-53.776a1.614 1.614 0 0 1 1.615-1.612h34.77a1.614 1.614 0 0 1 1.615 1.612v53.776a1.614 1.614 0 0 1-1.615 1.612zm-33.154-3.224h31.539v-50.552h-31.54z" transform="translate(-55.171 -80.457)" style="stroke:#fff;stroke-width:.6px"/>
        </g>
        <g data-name="그룹 98">
            <path data-name="패스 20" d="M179.585 165.974h-20.421v-3.2h18.841v-27.596h-18.841v-3.2h20.421a1.591 1.591 0 0 1 1.579 1.6v30.8a1.59 1.59 0 0 1-1.579 1.596z" transform="translate(-64.913 -85.724)" style="stroke:#fff;stroke-width:.6px"/>
        </g>
        <g data-name="그룹 99">
            <path data-name="패스 21" d="M98.615 165.974H78.184a1.586 1.586 0 0 1-1.569-1.6v-30.8a1.586 1.586 0 0 1 1.569-1.6h20.431v3.2H79.752v27.596h18.863z" transform="translate(-49.364 -85.724)" style="stroke:#fff;stroke-width:.6px"/>
        </g>
    </g>
</svg>
