<svg xmlns="http://www.w3.org/2000/svg" width="102.683" height="72.679" viewBox="0 0 102.683 72.679">
    <g transform="translate(-349.317 -1091.321)">
        <circle data-name="타원 39" cx="23" cy="23" r="23" transform="translate(406 1118)" style="fill:#e2e5ff"/>
        <g data-name="그룹 559">
            <g data-name="그룹 553">
                <g data-name="그룹 552">
                    <g data-name="그룹 551">
                        <g data-name="그룹 550">
                            <g data-name="그룹 549">
                                <path data-name="사각형 28" d="M1.038 0h68.77a1.038 1.038 0 0 1 1.038 1.038V47.88a4.823 4.823 0 0 1-4.817 4.82H4.817A4.823 4.823 0 0 1 0 47.881V1.038A1.038 1.038 0 0 1 1.038 0zM68.77 2.076H2.076v45.8a2.744 2.744 0 0 0 2.741 2.741h61.212a2.744 2.744 0 0 0 2.741-2.737z" transform="rotate(180 213.368 572.135)" style="stroke-linecap:round;stroke-width:.5px;stroke:#000"/>
                            </g>
                            <path data-name="패스 1084" d="M1022.5 567.223h-68.77a7.371 7.371 0 0 1-7.362-7.363 1.038 1.038 0 1 1 2.076 0 5.292 5.292 0 0 0 5.286 5.287h68.77a5.293 5.293 0 0 0 5.287-5.287 1.038 1.038 0 0 1 2.076 0 7.371 7.371 0 0 1-7.363 7.363z" transform="translate(-596.802 583.371)" style="stroke-linecap:round;stroke-width:.5px;stroke:#000"/>
                        </g>
                        <path data-name="선 223" d="M6.454 3.659H.129a3.529 3.529 0 0 1 0-7.059h6.325a3.529 3.529 0 1 1 0 7.059z" transform="translate(388.023 1143.102)" style="fill:#fff"/>
                        <path data-name="선 224" d="M394.476 1144.269h-6.324a1.038 1.038 0 0 1 0-2.076h6.324a1.038 1.038 0 1 1 0 2.076z"/>
                    </g>
                </g>
            </g>
            <g data-name="그룹 558">
                <path data-name="타원 24" d="M10.706 0c3.01 0 5.772 2.386 7.778 6.719a37.175 37.175 0 0 1 2.928 15.2 37.175 37.175 0 0 1-2.928 15.2c-2.006 4.333-4.768 6.719-7.778 6.719s-5.772-2.386-7.778-6.719A37.175 37.175 0 0 1 0 21.923a37.175 37.175 0 0 1 2.928-15.2C4.933 2.386 7.7 0 10.706 0zm0 41.769a4.565 4.565 0 0 0 3.062-1.369 13.112 13.112 0 0 0 2.832-4.146 35.082 35.082 0 0 0 2.736-14.332A35.082 35.082 0 0 0 16.6 7.591a13.112 13.112 0 0 0-2.831-4.145 4.565 4.565 0 0 0-3.063-1.369 4.565 4.565 0 0 0-3.063 1.369 13.112 13.112 0 0 0-2.831 4.145 35.082 35.082 0 0 0-2.736 14.332 35.082 35.082 0 0 0 2.736 14.331A13.112 13.112 0 0 0 7.643 40.4a4.565 4.565 0 0 0 3.063 1.369z" transform="rotate(-45 1523.9 110.446)" style="stroke:#0021ff;fill:#0021ff;stroke-linecap:round;stroke-width:.5px"/>
                <path data-name="타원 25" d="M21.923 0a37.175 37.175 0 0 1 15.2 2.928c4.333 2.006 6.719 4.768 6.719 7.778s-2.386 5.772-6.719 7.778a37.175 37.175 0 0 1-15.2 2.928 37.175 37.175 0 0 1-15.2-2.928C2.386 16.478 0 13.716 0 10.706s2.386-5.773 6.719-7.778A37.175 37.175 0 0 1 21.923 0zm0 19.335A35.082 35.082 0 0 0 36.254 16.6a13.112 13.112 0 0 0 4.146-2.832 4.565 4.565 0 0 0 1.369-3.063A4.565 4.565 0 0 0 40.4 7.643a13.112 13.112 0 0 0-4.145-2.831 35.082 35.082 0 0 0-14.332-2.736A35.082 35.082 0 0 0 7.591 4.812a13.112 13.112 0 0 0-4.145 2.831 4.565 4.565 0 0 0-1.369 3.063 4.565 4.565 0 0 0 1.369 3.063A13.112 13.112 0 0 0 7.591 16.6a35.082 35.082 0 0 0 14.332 2.735z" transform="rotate(-45 1543.049 118.377)" style="stroke:#0021ff;fill:#0021ff;stroke-linecap:round;stroke-width:.5px"/>
                <path data-name="타원 26" d="M4.267-1A5.267 5.267 0 1 1-1 4.267 5.273 5.273 0 0 1 4.267-1zm0 8.457a3.191 3.191 0 1 0-3.191-3.19 3.194 3.194 0 0 0 3.191 3.19z" transform="translate(387.048 1113.574)" style="fill:#0021ff"/>
                <g data-name="그룹 554">
                    <path data-name="패스 1085" d="M995.284 543.584a3.114 3.114 0 0 1-2.344-5.163c4.755-5.443 6.523-10.252 6.593-12.937a3.114 3.114 0 1 1 6.226.161c-.129 4.957-3.091 11.108-8.129 16.874a3.107 3.107 0 0 1-2.346 1.065z" transform="translate(-595.058 581.987)" style="fill:#fff"/>
                    <path data-name="패스 1086" d="M993.209 543.817a1.038 1.038 0 0 1-.734-1.772 35.085 35.085 0 0 0 8.2-12.069 13.118 13.118 0 0 0 .93-4.934 4.565 4.565 0 0 0-1.2-3.134 1.038 1.038 0 1 1 1.468-1.468c2.128 2.129 2.394 5.769.748 10.251a37.179 37.179 0 0 1-8.68 12.821 1.035 1.035 0 0 1-.732.305z" transform="translate(-595.058 581.899)" style="stroke:#0021ff;fill:#0021ff;stroke-linecap:round;stroke-width:.5px"/>
                </g>
                <g data-name="그룹 555">
                    <path data-name="패스 1087" d="M997.16 554.537h-.082c-4.957-.128-11.108-3.091-16.874-8.129a3.114 3.114 0 0 1 4.1-4.691c5.443 4.755 10.252 6.524 12.937 6.593a3.114 3.114 0 0 1-.079 6.227z" transform="translate(-595.555 582.691)" style="fill:#fff"/>
                    <path data-name="패스 1088" d="M997.417 552.467a15.582 15.582 0 0 1-5.292-1.066 37.173 37.173 0 0 1-12.825-8.681 1.038 1.038 0 0 1 1.468-1.468 35.081 35.081 0 0 0 12.069 8.2 13.113 13.113 0 0 0 4.933.929 4.565 4.565 0 0 0 3.134-1.2 1.038 1.038 0 0 1 1.468 1.468 6.768 6.768 0 0 1-4.955 1.818z" transform="translate(-595.56 582.691)" style="stroke:#0021ff;fill:#0021ff;stroke-linecap:round;stroke-width:.5px"/>
                </g>
                <g data-name="그룹 556">
                    <path data-name="패스 1089" d="M971.025 549.05h-.082a3.114 3.114 0 0 1-3.033-3.194c.128-4.957 3.091-11.108 8.129-16.874a3.114 3.114 0 0 1 4.691 4.1c-4.755 5.443-6.524 10.252-6.593 12.937a3.114 3.114 0 0 1-3.112 3.031z" transform="translate(-595.982 582.194)" style="fill:#fff"/>
                    <path data-name="패스 1090" d="M972.453 551.456a1.035 1.035 0 0 1-.734-.3c-2.129-2.128-2.395-5.768-.749-10.25a37.174 37.174 0 0 1 8.681-12.821 1.038 1.038 0 0 1 1.468 1.468 35.083 35.083 0 0 0-8.2 12.069 13.112 13.112 0 0 0-.929 4.933 4.563 4.563 0 0 0 1.2 3.134 1.038 1.038 0 0 1-.734 1.772z" transform="translate(-595.906 582.189)" style="stroke:#0021ff;fill:#0021ff;stroke-linecap:round;stroke-width:.5px"/>
                </g>
                <g data-name="그룹 557">
                    <path data-name="패스 1091" d="M991.692 530.275a3.1 3.1 0 0 1-2.048-.769c-5.442-4.755-10.252-6.524-12.938-6.594a3.114 3.114 0 1 1 .163-6.226c4.958.13 11.108 3.093 16.873 8.13a3.114 3.114 0 0 1-2.05 5.46z" transform="translate(-595.763 581.767)" style="fill:#fff"/>
                    <path data-name="패스 1092" d="M994 530.2a1.035 1.035 0 0 1-.734-.3 35.084 35.084 0 0 0-12.069-8.2 13.117 13.117 0 0 0-4.933-.929 4.565 4.565 0 0 0-3.134 1.2 1.038 1.038 0 0 1-1.468-1.468c2.128-2.128 5.769-2.394 10.251-.749a37.174 37.174 0 0 1 12.821 8.681A1.038 1.038 0 0 1 994 530.2z" transform="translate(-595.851 581.843)" style="stroke:#0021ff;fill:#0021ff;stroke-linecap:round;stroke-width:.5px"/>
                </g>
            </g>
        </g>
    </g>
</svg>
