<svg xmlns="http://www.w3.org/2000/svg" width="84" height="82" viewBox="0 0 84 82">
    <g transform="translate(-284.364 -1071.945)">
        <circle data-name="타원 39" cx="23" cy="23" r="23" transform="translate(322.364 1107.945)" style="fill:#e2e5ff"/>
        <g data-name="그룹 145">
            <path data-name="패스 66" d="M338.507 1107.143h-5.414v-2.707h5.414a8.122 8.122 0 0 0 0-16.243 8.032 8.032 0 0 0-3.56.831l-1.193-2.43a10.7 10.7 0 0 1 4.752-1.109 10.829 10.829 0 0 1 0 21.658z"/>
        </g>
        <g data-name="그룹 146">
            <path data-name="사각형 88" d="M320.911 1104.431h8.122v2.707h-8.122z"/>
        </g>
        <g data-name="그룹 147">
            <path data-name="사각형 89" d="M308.728 1104.431h8.122v2.707h-8.122z"/>
        </g>
        <g data-name="그룹 148">
            <path data-name="패스 67" d="M304.668 1107.136h-8.122a12.177 12.177 0 1 1 12.183-12.18h-2.707a9.475 9.475 0 1 0-9.475 9.475h8.122z"/>
        </g>
        <g data-name="그룹 149">
            <path data-name="패스 68" d="m334.791 1095.407-2.552-.907a14.742 14.742 0 0 0 .854-4.962 15.115 15.115 0 0 0-.088-1.595 14.881 14.881 0 0 0-29.29-1.787l-2.637-.615a17.591 17.591 0 1 1 33.713 9.866z"/>
        </g>
        <g data-name="그룹 150">
            <path data-name="패스 69" d="M56.825 282.174a6.768 6.768 0 1 1 6.768-6.768 6.776 6.776 0 0 1-6.768 6.768zm0-10.829a4.061 4.061 0 1 0 4.061 4.061 4.064 4.064 0 0 0-4.061-4.061z" transform="translate(260.025 854.744)" style="fill:#0021ff"/>
        </g>
        <g data-name="그룹 151">
            <path data-name="사각형 90" d="M315.496 1094.956h2.707v29.779h-2.707z"/>
        </g>
        <g data-name="그룹 152">
            <path data-name="패스 70" d="M73.825 282.174a6.768 6.768 0 1 1 6.768-6.768 6.776 6.776 0 0 1-6.768 6.768zm0-10.829a4.061 4.061 0 1 0 4.061 4.061 4.064 4.064 0 0 0-4.061-4.061z" transform="translate(266.036 854.744)" style="fill:#0021ff"/>
        </g>
        <g data-name="그룹 153">
            <path data-name="패스 71" d="M39.825 282.174a6.768 6.768 0 1 1 6.768-6.768 6.776 6.776 0 0 1-6.768 6.768zm0-10.829a4.061 4.061 0 1 0 4.061 4.061 4.064 4.064 0 0 0-4.061-4.061z" transform="translate(254.014 854.744)" style="fill:#0021ff"/>
        </g>
        <g data-name="그룹 154">
            <path data-name="패스 72" d="m298.857 1127.046-1.914-1.914 6.371-6.371v-19.744h2.707v20.3a1.358 1.358 0 0 1-.4.957z"/>
        </g>
        <g data-name="그룹 155">
            <path data-name="패스 73" d="m334.844 1127.046-6.768-6.767a1.352 1.352 0 0 1-.4-.957v-20.3h2.707v19.744l6.371 6.371z"/>
        </g>
    </g>
</svg>
