<svg xmlns="http://www.w3.org/2000/svg" width="101.041" height="90.398" viewBox="0 0 101.041 90.398">
    <g transform="translate(-266.959 -1063.602)">
        <circle data-name="타원 39" cx="23" cy="23" r="23" transform="translate(322 1108)" style="fill:#e2e5ff"/>
        <path data-name="패스 594" d="M334.184 1106.033a.759.759 0 0 1-.757-.688 27.763 27.763 0 0 0-8.888-17.764.762.762 0 0 1 1.03-1.123 29.281 29.281 0 0 1 9.375 18.738.762.762 0 0 1-.684.833.634.634 0 0 1-.076.004z"/>
        <path data-name="패스 594 - 윤곽선" d="M334.184 1106.533a1.257 1.257 0 0 1-1.255-1.139 27.264 27.264 0 0 0-8.729-17.444 1.262 1.262 0 1 1 1.707-1.86 29.78 29.78 0 0 1 9.534 19.058 1.262 1.262 0 0 1-1.133 1.379 1.351 1.351 0 0 1-.124.006zm-9.13-19.775a.262.262 0 0 0-.262.273.257.257 0 0 0 .085.182 28.262 28.262 0 0 1 9.048 18.083.257.257 0 0 0 .259.237h.029a.262.262 0 0 0 .234-.286 28.782 28.782 0 0 0-9.216-18.419.26.26 0 0 0-.176-.07z"/>
        <path data-name="패스 595" d="M305.729 1137.453a29.594 29.594 0 0 1-5.416-.5.763.763 0 1 1 .28-1.5 28.262 28.262 0 0 0 10.271 0 .778.778 0 0 1 .141-.013.762.762 0 0 1 .139 1.512 29.6 29.6 0 0 1-5.415.501z"/>
        <path data-name="패스 595 - 윤곽선" d="M305.729 1137.953a30.1 30.1 0 0 1-5.507-.507 1.262 1.262 0 1 1 .464-2.482 27.761 27.761 0 0 0 10.087 0 1.277 1.277 0 0 1 .233-.021 1.262 1.262 0 0 1 .231 2.5 30.1 30.1 0 0 1-5.508.51zm-5.277-2.01a.262.262 0 0 0-.047.52 29.289 29.289 0 0 0 10.647 0 .262.262 0 0 0-.047-.52.282.282 0 0 0-.05 0 28.761 28.761 0 0 1-10.454 0 .268.268 0 0 0-.049-.001z"/>
        <path data-name="패스 596" d="M277.274 1106.033h-.075a.764.764 0 0 1-.686-.833 29.283 29.283 0 0 1 9.375-18.738.763.763 0 0 1 1.031 1.124 27.761 27.761 0 0 0-8.891 17.76.758.758 0 0 1-.754.687z"/>
        <path data-name="패스 596 - 윤곽선" d="M277.274 1106.533c-.043 0-.084 0-.123-.006a1.265 1.265 0 0 1-1.135-1.379 29.783 29.783 0 0 1 9.534-19.058 1.262 1.262 0 0 1 1.707 1.86 27.262 27.262 0 0 0-8.729 17.446 1.257 1.257 0 0 1-1.254 1.137zm9.129-19.775a.261.261 0 0 0-.177.069 28.784 28.784 0 0 0-9.215 18.419.264.264 0 0 0 .237.287h.026a.257.257 0 0 0 .259-.237 28.26 28.26 0 0 1 9.047-18.083.263.263 0 0 0 .016-.371.253.253 0 0 0-.193-.084z"/>
        <path data-name="패스 597" d="M305.73 1094.902a15.4 15.4 0 0 1-7.018-29.11.763.763 0 1 1 .7 1.357 13.863 13.863 0 0 0-4.976 20.393l.828 1.16.506-1.332a8.365 8.365 0 0 1 5.179-4.941l.984-.321-.6-.844a5.347 5.347 0 0 1-.991-3.108v-1.66a5.391 5.391 0 1 1 10.782 0v1.66a5.348 5.348 0 0 1-.991 3.108l-.6.844.984.321a8.365 8.365 0 0 1 5.18 4.941l.505 1.332.828-1.16a13.863 13.863 0 0 0-4.976-20.393.763.763 0 0 1 .349-1.441.754.754 0 0 1 .347.084 15.4 15.4 0 0 1-7.018 29.11zm-2.226-11.357a6.719 6.719 0 0 0-6.72 6.118l-.038.409.321.257a13.835 13.835 0 0 0 17.328 0l.32-.257-.038-.409a6.719 6.719 0 0 0-6.72-6.118h-1.464v1.745a.762.762 0 0 1-1.525 0v-1.745zm2.226-10.918a3.871 3.871 0 0 0-3.866 3.866v1.66a3.866 3.866 0 1 0 7.733 0v-1.66a3.871 3.871 0 0 0-3.867-3.866z"/>
        <path data-name="패스 597 - 윤곽선" d="M305.73 1095.402a15.9 15.9 0 0 1-7.246-30.055 1.262 1.262 0 1 1 1.152 2.246 13.363 13.363 0 0 0-4.8 19.658l.285.4.174-.459a8.869 8.869 0 0 1 5.492-5.239l.339-.11-.206-.291a5.844 5.844 0 0 1-1.083-3.4v-1.66a5.891 5.891 0 1 1 11.782 0v1.66a5.846 5.846 0 0 1-1.083 3.4l-.206.291.338.11a8.868 8.868 0 0 1 5.492 5.239l.174.458.285-.4a13.363 13.363 0 0 0-4.8-19.658 1.262 1.262 0 1 1 1.152-2.246 15.9 15.9 0 0 1-7.246 30.055zm-6.672-29.195a.252.252 0 0 0-.119.029 14.9 14.9 0 1 0 13.581 0 .255.255 0 0 0-.119-.029.258.258 0 0 0-.234.143.263.263 0 0 0 .113.353 14.363 14.363 0 0 1 5.155 21.129l-1.371 1.92-.837-2.206a7.86 7.86 0 0 0-4.867-4.643l-1.629-.532.991-1.4a4.85 4.85 0 0 0 .9-2.819v-1.66a4.891 4.891 0 1 0-9.782 0v1.66a4.85 4.85 0 0 0 .9 2.819l.991 1.4-1.629.531a7.861 7.861 0 0 0-4.867 4.643l-.838 2.206-1.37-1.921a14.363 14.363 0 0 1 5.155-21.128.263.263 0 0 0-.121-.5zm6.672 27.67a14.4 14.4 0 0 1-8.977-3.159l-.531-.425.063-.677a7.217 7.217 0 0 1 7.218-6.571h1.964v2.245a.262.262 0 0 0 .525 0v-2.245h1.964a7.217 7.217 0 0 1 7.218 6.571l.063.677-.531.425a14.4 14.4 0 0 1-8.976 3.159zm-8.461-4.027.11.088a13.335 13.335 0 0 0 16.7 0l.11-.089-.013-.141a6.221 6.221 0 0 0-6.223-5.664h-.964v1.245a1.262 1.262 0 0 1-2.525 0v-1.245h-.964a6.221 6.221 0 0 0-6.223 5.664zm8.461-7.329a4.371 4.371 0 0 1-4.366-4.366v-1.66a4.367 4.367 0 0 1 8.733 0v1.66a4.371 4.371 0 0 1-4.367 4.365zm0-9.393a3.37 3.37 0 0 0-3.366 3.366v1.66a3.366 3.366 0 1 0 6.733 0v-1.66a3.37 3.37 0 0 0-3.367-3.367z"/>
        <path data-name="패스 598" d="M1608.859 781.234a15.4 15.4 0 1 1 15.4-15.4 15.417 15.417 0 0 1-15.4 15.4zm-2.226-11.357a6.719 6.719 0 0 0-6.72 6.117l-.038.409.32.257a13.835 13.835 0 0 0 17.328 0l.32-.257-.038-.409a6.719 6.719 0 0 0-6.72-6.117h-1.464v1.95a.762.762 0 1 1-1.525 0v-1.95zm2.226-17.918a13.865 13.865 0 0 0-11.3 21.914l.828 1.16.505-1.332a8.365 8.365 0 0 1 5.18-4.941l.984-.321-.6-.845a5.348 5.348 0 0 1-.991-3.108v-1.661a5.391 5.391 0 0 1 10.782 0v1.661a5.349 5.349 0 0 1-.991 3.108l-.6.845.984.321a8.365 8.365 0 0 1 5.179 4.941l.506 1.332.828-1.16a13.864 13.864 0 0 0-11.3-21.914zm0 7a3.871 3.871 0 0 0-3.867 3.866v1.661a3.866 3.866 0 0 0 7.733 0v-1.661a3.871 3.871 0 0 0-3.866-3.865z" transform="translate(-1326 359.409)" style="fill:#0021ff"/>
        <path data-name="패스 598 - 윤곽선" d="M1608.859 781.734a15.9 15.9 0 1 1 15.9-15.9 15.918 15.918 0 0 1-15.9 15.9zm0-30.8a14.9 14.9 0 1 0 14.9 14.9 14.917 14.917 0 0 0-14.9-14.899zm0 29.274a14.4 14.4 0 0 1-8.977-3.159l-.531-.425.064-.677a7.216 7.216 0 0 1 7.218-6.571h1.964v2.45a.262.262 0 1 0 .525 0v-2.45h1.964a7.217 7.217 0 0 1 7.218 6.571l.063.677-.531.425a14.4 14.4 0 0 1-8.977 3.161zm-8.462-4.027.11.088a13.335 13.335 0 0 0 16.7 0l.11-.088-.013-.141a6.221 6.221 0 0 0-6.222-5.664h-.964v1.45a1.262 1.262 0 1 1-2.525 0v-1.45h-.964a6.221 6.221 0 0 0-6.222 5.664zm18.8-.1-.837-2.206a7.86 7.86 0 0 0-4.867-4.643l-1.629-.532.991-1.4a4.852 4.852 0 0 0 .9-2.819v-1.661a4.891 4.891 0 0 0-9.782 0v1.661a4.851 4.851 0 0 0 .9 2.819l.991 1.4-1.629.532a7.861 7.861 0 0 0-4.867 4.643l-.837 2.206-1.37-1.921a14.375 14.375 0 1 1 23.411 0zm-5.733-7.911.339.111a8.869 8.869 0 0 1 5.492 5.239l.174.459.285-.4a13.375 13.375 0 1 0-21.783 0l.285.4.174-.458a8.87 8.87 0 0 1 5.492-5.239l.339-.111-.206-.291a5.846 5.846 0 0 1-1.083-3.4v-1.661a5.891 5.891 0 0 1 11.782 0v1.661a5.846 5.846 0 0 1-1.083 3.4zm-4.6.679a4.371 4.371 0 0 1-4.367-4.366v-1.661a4.366 4.366 0 0 1 8.733 0v1.661a4.371 4.371 0 0 1-4.371 4.37zm0-9.393a3.37 3.37 0 0 0-3.367 3.366v1.661a3.366 3.366 0 0 0 6.733 0v-1.661a3.37 3.37 0 0 0-3.371-3.362z" transform="translate(-1326 359.409)" style="fill:#0021ff"/>
        <path data-name="패스 599" d="M328.6 1140.643a15.4 15.4 0 1 1 15.4-15.4 15.417 15.417 0 0 1-15.4 15.4zm-2.226-11.357a6.719 6.719 0 0 0-6.72 6.117l-.038.409.32.257a13.835 13.835 0 0 0 17.328 0l.32-.257-.038-.409a6.719 6.719 0 0 0-6.72-6.117h-1.463v1.745a.762.762 0 0 1-1.525 0v-1.745zm2.226-17.918a13.864 13.864 0 0 0-11.3 21.914l.828 1.16.506-1.332a8.365 8.365 0 0 1 5.18-4.941l.984-.321-.6-.845a5.347 5.347 0 0 1-.991-3.108v-1.661a5.391 5.391 0 0 1 10.782 0v1.661a5.349 5.349 0 0 1-.991 3.108l-.6.844.984.321a8.363 8.363 0 0 1 5.179 4.941l.506 1.332.828-1.16a13.864 13.864 0 0 0-11.3-21.914zm0 7a3.871 3.871 0 0 0-3.866 3.866v1.661a3.866 3.866 0 1 0 7.733 0v-1.661a3.87 3.87 0 0 0-3.867-3.865z"/>
        <path data-name="패스 599 - 윤곽선" d="M328.6 1141.143a15.9 15.9 0 1 1 15.9-15.9 15.918 15.918 0 0 1-15.9 15.9zm0-30.8a14.9 14.9 0 1 0 14.9 14.9 14.916 14.916 0 0 0-14.9-14.899zm0 29.274a14.4 14.4 0 0 1-8.977-3.159l-.531-.425.063-.677a7.217 7.217 0 0 1 7.218-6.571h1.963v2.245a.262.262 0 0 0 .525 0v-2.245h1.963a7.217 7.217 0 0 1 7.218 6.571l.063.677-.53.425a14.4 14.4 0 0 1-8.975 3.161zm-8.461-4.027.11.088a13.335 13.335 0 0 0 16.7 0l.11-.088-.013-.141a6.221 6.221 0 0 0-6.223-5.664h-.963v1.245a1.262 1.262 0 0 1-2.525 0v-1.245h-.963a6.221 6.221 0 0 0-6.223 5.664zm-1.874-.1-1.37-1.921a14.375 14.375 0 1 1 23.411 0l-1.371 1.921-.837-2.206a7.858 7.858 0 0 0-4.867-4.643l-1.629-.532.991-1.4a4.85 4.85 0 0 0 .9-2.819v-1.661a4.891 4.891 0 0 0-9.782 0v1.661a4.849 4.849 0 0 0 .9 2.819l.991 1.4-1.629.532a7.861 7.861 0 0 0-4.867 4.643zm14.938-7.911.339.111a8.867 8.867 0 0 1 5.491 5.239l.174.459.285-.4a13.375 13.375 0 1 0-21.783 0l.285.4.174-.459a8.869 8.869 0 0 1 5.492-5.239l.339-.111-.206-.291a5.844 5.844 0 0 1-1.083-3.4v-1.661a5.891 5.891 0 0 1 11.782 0v1.661a5.845 5.845 0 0 1-1.083 3.4zm-4.6.679a4.371 4.371 0 0 1-4.366-4.366v-1.661a4.367 4.367 0 0 1 8.733 0v1.661a4.371 4.371 0 0 1-4.37 4.37zm0-9.393a3.37 3.37 0 0 0-3.366 3.366v1.661a3.366 3.366 0 1 0 6.733 0v-1.661a3.37 3.37 0 0 0-3.37-3.362z"/>
        <path data-name="패스 600" d="M305.729 1065.627a.762.762 0 1 1 .762-.763.763.763 0 0 1-.762.763z"/>
        <path data-name="패스 600 - 윤곽선" d="M305.729 1066.127a1.262 1.262 0 1 1 1.262-1.263 1.264 1.264 0 0 1-1.262 1.263zm0-1.525a.262.262 0 1 0 .262.262.263.263 0 0 0-.262-.262z"/>
    </g>
</svg>
