<svg xmlns="http://www.w3.org/2000/svg" width="134.865" height="100.575" viewBox="0 0 134.865 100.575">
    <path data-name="패스 366" d="m195.893 180.286 1.94-3.928a2.172 2.172 0 0 1 3.895 0l4.327 8.766a2.169 2.169 0 0 0 1.634 1.187l9.673 1.406a2.172 2.172 0 0 1 1.2 3.7l-7 6.822a2.173 2.173 0 0 0-.625 1.923l1.652 9.634a2.171 2.171 0 0 1-3.151 2.289l-8.653-4.548a2.172 2.172 0 0 0-2.021 0l-.9.471" transform="translate(-85.637 -113.06)" style="stroke:#1e1e1e;fill:none;stroke-linecap:round;stroke-linejoin:round;stroke-width:2.5px"/>
    <g data-name="그룹 688">
        <path data-name="패스 367" d="M175.069 171.669a12.826 12.826 0 1 1 12.831-12.825 12.825 12.825 0 0 1-12.831 12.825z" transform="translate(-107.64 -132.106)" style="stroke:#0021ff;fill:none;stroke-linecap:round;stroke-linejoin:round;stroke-width:2.5px"/>
    </g>
    <path data-name="패스 368" d="M159.875 175.18a19.227 19.227 0 0 1 16.742-9.761h0a19.222 19.222 0 0 1 16.74 9.761" transform="translate(-109.188 -119.42)" style="stroke:#0021ff;fill:none;stroke-linecap:round;stroke-linejoin:round;stroke-width:2.5px"/>
    <path data-name="패스 369" d="M219.867 197.453a39.474 39.474 0 1 0-68.52 0" transform="translate(-118.173 -137.112)" style="stroke:#1e1e1e;fill:none;stroke-linecap:round;stroke-linejoin:round;stroke-width:2.5px"/>
    <path data-name="패스 370" d="m179.634 176.358 4.327 8.766a2.172 2.172 0 0 0 1.636 1.187l9.673 1.406a2.172 2.172 0 0 1 1.2 3.7l-7 6.822a2.176 2.176 0 0 0-.624 1.923l1.654 9.638a2.173 2.173 0 0 1-3.152 2.291l-8.651-4.55a2.172 2.172 0 0 0-2.021 0l-8.653 4.55a2.172 2.172 0 0 1-3.151-2.291l1.652-9.634a2.173 2.173 0 0 0-.625-1.923l-7-6.822a2.172 2.172 0 0 1 1.2-3.7l9.673-1.406a2.178 2.178 0 0 0 1.636-1.187l4.325-8.766a2.172 2.172 0 0 1 3.901-.004z" transform="translate(-110.255 -113.06)" style="stroke:#0021ff;fill:none;stroke-linecap:round;stroke-linejoin:round;stroke-width:2.5px"/>
    <path data-name="패스 371" d="m181.716 180.286 1.938-3.928a2.173 2.173 0 0 1 3.9 0l4.325 8.766a2.175 2.175 0 0 0 1.636 1.187l9.673 1.406a2.172 2.172 0 0 1 1.2 3.7l-7 6.822a2.176 2.176 0 0 0-.624 1.923l1.652 9.634a2.171 2.171 0 0 1-3.151 2.289l-8.653-4.548a2.172 2.172 0 0 0-2.021 0l-.9.471" transform="translate(-94.907 -113.06)" style="stroke:#1e1e1e;fill:none;stroke-linecap:round;stroke-linejoin:round;stroke-width:2.5px"/>
    <path data-name="패스 372" d="m153.331 180.286-1.94-3.928a2.172 2.172 0 0 0-3.895 0l-4.327 8.766a2.169 2.169 0 0 1-1.634 1.187l-9.673 1.406a2.172 2.172 0 0 0-1.2 3.7l7 6.822a2.173 2.173 0 0 1 .625 1.923l-1.657 9.638a2.171 2.171 0 0 0 3.151 2.289l8.653-4.548a2.173 2.173 0 0 1 2.021 0l.9.471" transform="translate(-128.722 -113.06)" style="stroke:#1e1e1e;fill:none;stroke-linecap:round;stroke-linejoin:round;stroke-width:2.5px"/>
    <path data-name="패스 373" d="m167.508 180.286-1.938-3.928a2.173 2.173 0 0 0-3.9 0l-4.325 8.766a2.175 2.175 0 0 1-1.636 1.187l-9.673 1.406a2.172 2.172 0 0 0-1.2 3.7l7 6.822a2.176 2.176 0 0 1 .624 1.923l-1.652 9.634a2.171 2.171 0 0 0 3.151 2.289l8.653-4.548a2.173 2.173 0 0 1 2.021 0l.9.471" transform="translate(-119.452 -113.06)" style="stroke:#1e1e1e;fill:none;stroke-linecap:round;stroke-linejoin:round;stroke-width:2.5px"/>
</svg>
