<svg width="40" height="40" viewBox="0 0 40 40" fill="none" xmlns="http://www.w3.org/2000/svg">
<rect width="40" height="40" fill="white"/>
<path d="M0.5 0V40" stroke="#DEDEDE"/>
<g clip-path="url(#clip0_440_434)">
<path d="M27.667 12H13C11.8954 12 11 12.8954 11 14V28C11 29.1046 11.8954 30 13 30H27.667C28.7716 30 29.667 29.1046 29.667 28V14C29.667 12.8954 28.7716 12 27.667 12Z" fill="white"/>
<path d="M27.667 12.5H13C12.1716 12.5 11.5 13.1716 11.5 14V28C11.5 28.8284 12.1716 29.5 13 29.5H27.667C28.4954 29.5 29.167 28.8284 29.167 28V14C29.167 13.1716 28.4954 12.5 27.667 12.5Z" stroke="#B4B4B4"/>
<path d="M13 12H27.667C28.1974 12 28.7061 12.2107 29.0812 12.5858C29.4563 12.9609 29.667 13.4696 29.667 14V17H11V14C11 13.4696 11.2107 12.9609 11.5858 12.5858C11.9609 12.2107 12.4696 12 13 12V12Z" fill="#B4B4B4"/>
<path d="M16.167 10C16.4322 10 16.6866 10.1054 16.8741 10.2929C17.0616 10.4804 17.167 10.7348 17.167 11V13H15.167V11C15.167 10.7348 15.2723 10.4804 15.4599 10.2929C15.6474 10.1054 15.9018 10 16.167 10V10Z" fill="#B4B4B4"/>
<path d="M24.5 10C24.7652 10 25.0196 10.1054 25.2071 10.2929C25.3946 10.4804 25.5 10.7348 25.5 11V13H23.5V11C23.5 10.7348 23.6054 10.4804 23.7929 10.2929C23.9804 10.1054 24.2348 10 24.5 10V10Z" fill="#B4B4B4"/>
<path d="M12 16.7759H28.707" stroke="#B4B4B4"/>
<path d="M17.9978 20.1818V26H17.2933V20.9205H17.2592L15.8387 21.8636V21.1477L17.2933 20.1818H17.9978ZM19.6711 26V25.4886L21.5916 23.3864C21.817 23.1402 22.0026 22.9261 22.1484 22.7443C22.2942 22.5606 22.4022 22.3883 22.4723 22.2273C22.5442 22.0644 22.5802 21.8939 22.5802 21.7159C22.5802 21.5114 22.531 21.3343 22.4325 21.1847C22.3359 21.035 22.2033 20.9195 22.0348 20.8381C21.8662 20.7566 21.6768 20.7159 21.4666 20.7159C21.2431 20.7159 21.048 20.7623 20.8813 20.8551C20.7166 20.946 20.5887 21.0739 20.4978 21.2386C20.4088 21.4034 20.3643 21.5966 20.3643 21.8182H19.6938C19.6938 21.4773 19.7724 21.178 19.9296 20.9205C20.0868 20.6629 20.3009 20.4621 20.5717 20.3182C20.8444 20.1742 21.1503 20.1023 21.4893 20.1023C21.8302 20.1023 22.1323 20.1742 22.3956 20.3182C22.6588 20.4621 22.8652 20.6562 23.0149 20.9006C23.1645 21.1449 23.2393 21.4167 23.2393 21.7159C23.2393 21.9299 23.2005 22.1392 23.1228 22.3438C23.0471 22.5464 22.9145 22.7727 22.7251 23.0227C22.5376 23.2708 22.2772 23.5739 21.9438 23.9318L20.637 25.3295V25.375H23.3416V26H19.6711Z" fill="#959595"/>
</g>
<defs>
<clipPath id="clip0_440_434">
<rect width="18.667" height="20" fill="white" transform="translate(11 10)"/>
</clipPath>
</defs>
</svg>
