<svg xmlns="http://www.w3.org/2000/svg" width="16.5" height="16.667" viewBox="0 0 16.5 16.667">
    <path d="M3.833 7.667a3.833 3.833 0 1 1 3.834-3.834 3.838 3.838 0 0 1-3.834 3.834zm0-6.667a2.833 2.833 0 1 0 2.834 2.833A2.836 2.836 0 0 0 3.833 1z" transform="translate(4.417 .25)" style="fill:#000;stroke:#000;stroke-width:.5px"/>
    <path data-name="Vector" d="M11.453 5.167C11.453 2.867 9.107 1 6.227 1S1 2.867 1 5.167a.5.5 0 0 1-.5.5.5.5 0 0 1-.5-.5C0 2.32 2.793 0 6.227 0s6.227 2.32 6.227 5.167a.5.5 0 0 1-1 0z" transform="translate(2.023 9.917)" style="fill:#000;stroke:#000;stroke-width:.5px"/>
</svg>
