<svg xmlns="http://www.w3.org/2000/svg" width="69.744" height="61.091" viewBox="0 0 69.744 61.091">
    <path data-name="패스 352" d="M297.558 291.751h6.555a3.021 3.021 0 0 0 2.056-5.234l-11.649-10.825a8.734 8.734 0 0 0-5.945-2.336h-30.011a8.734 8.734 0 0 0-5.945 2.336l-11.649 10.825a3.021 3.021 0 0 0 2.056 5.234h6.555" transform="translate(-238.698 -247.547)" style="stroke:#0021ff;fill:none;stroke-linecap:round;stroke-linejoin:round;stroke-width:2.5px"/>
    <path data-name="패스 353" d="M275.771 295.274h7.1" transform="translate(-244.448 -251.071)" style="stroke:#1e1e1e;fill:none;stroke-linecap:round;stroke-linejoin:round;stroke-width:2.5px"/>
    <g data-name="그룹 677">
        <path data-name="패스 354" d="M278.832 256.287a6.1 6.1 0 1 1 6.1-6.1 6.1 6.1 0 0 1-6.1 6.1z" transform="translate(-243.96 -242.843)" style="stroke:#1e1e1e;fill:none;stroke-linecap:round;stroke-linejoin:round;stroke-width:2.5px"/>
    </g>
    <path data-name="패스 355" d="M268.71 267.939a7.219 7.219 0 0 1 6.732-4.613h5.485a7.218 7.218 0 0 1 6.732 4.614" transform="translate(-243.313 -245.935)" style="stroke:#1e1e1e;fill:none;stroke-linecap:round;stroke-linejoin:round;stroke-width:2.5px"/>
    <g data-name="그룹 678">
        <path data-name="패스 356" d="M262.215 294.77a6.846 6.846 0 1 1 6.847-6.847 6.846 6.846 0 0 1-6.847 6.847z" transform="translate(-241.168 -248.788)" style="stroke:#1e1e1e;fill:none;stroke-linecap:round;stroke-linejoin:round;stroke-width:2.5px"/>
    </g>
    <path data-name="패스 357" d="M251.416 310.3a10.267 10.267 0 0 1 10.164-8.817h0a10.268 10.268 0 0 1 10.167 8.844 31.032 31.032 0 0 1-10.167 1.579 30.536 30.536 0 0 1-10.164-1.606z" transform="translate(-240.533 -252.069)" style="stroke:#1e1e1e;fill:none;stroke-linecap:round;stroke-linejoin:round;stroke-width:2.5px"/>
    <g data-name="그룹 679">
        <path data-name="패스 358" d="M295.156 294.77a6.846 6.846 0 1 1 6.844-6.846 6.846 6.846 0 0 1-6.844 6.846z" transform="translate(-246.464 -248.788)" style="stroke:#1e1e1e;fill:none;stroke-linecap:round;stroke-linejoin:round;stroke-width:2.5px"/>
    </g>
    <path data-name="패스 359" d="M284.357 310.3a10.267 10.267 0 0 1 10.164-8.817h0a10.266 10.266 0 0 1 10.167 8.844 31.032 31.032 0 0 1-10.167 1.579 30.536 30.536 0 0 1-10.164-1.606z" transform="translate(-245.829 -252.069)" style="stroke:#1e1e1e;fill:none;stroke-linecap:round;stroke-linejoin:round;stroke-width:2.5px"/>
</svg>
