<svg xmlns="http://www.w3.org/2000/svg" width="71.283" height="45.051" viewBox="0 0 71.283 45.051">
    <path data-name="패스 344" d="M3907.377 685.139a11.63 11.63 0 1 0-10.565 0 17.941 17.941 0 0 0-12.56 15.406 1.316 1.316 0 0 0 1.311 1.442 1.315 1.315 0 0 0 1.311-1.19 15.132 15.132 0 0 1 1.131-4.475 15.3 15.3 0 0 1 28.182 0 15.131 15.131 0 0 1 1.13 4.475 1.317 1.317 0 0 0 2.622-.252 17.942 17.942 0 0 0-12.562-15.406zm-5.283-1.368a8.96 8.96 0 1 1 3.5-.706 8.939 8.939 0 0 1-3.499.706z" transform="translate(-3866.493 -656.936)" style="fill:#1a1a1a"/>
    <path data-name="패스 345" d="M4527.737 553.151a17.94 17.94 0 0 0-12.555-15.353 11.632 11.632 0 1 0-14.784-17.074 1.293 1.293 0 0 0 .277 1.768l.021.016a1.3 1.3 0 0 0 1.861-.275 8.992 8.992 0 1 1 3.841 13.491.308.308 0 0 0-.426.231 14.039 14.039 0 0 1-1.315 4.045.31.31 0 0 0 .375.434 15.266 15.266 0 0 1 13.419 1.819 15.385 15.385 0 0 1 4.134 4.134 15.2 15.2 0 0 1 2.54 7.072 1.317 1.317 0 0 0 1.385 1.188 1.342 1.342 0 0 0 1.227-1.496z" transform="translate(-4456.461 -515.802)" style="fill:#1a1a1a"/>
    <path data-name="패스 346" d="M3485.617 540.431a.31.31 0 0 0 .375-.434 14.039 14.039 0 0 1-1.315-4.044.307.307 0 0 0-.426-.231 8.993 8.993 0 1 1 3.842-13.491 1.3 1.3 0 0 0 1.86.275l.021-.016a1.293 1.293 0 0 0 .277-1.768 11.631 11.631 0 1 0-14.783 17.074 17.942 17.942 0 0 0-12.556 15.353 1.342 1.342 0 0 0 1.232 1.493 1.316 1.316 0 0 0 1.385-1.188 15.131 15.131 0 0 1 1.13-4.475 15.316 15.316 0 0 1 18.962-8.549z" transform="translate(-3462.901 -515.802)" style="fill:#0021ff"/>
</svg>
