<svg xmlns="http://www.w3.org/2000/svg" width="67.681" height="70.986" viewBox="0 0 67.681 70.986">
    <g transform="translate(-240.539 -128.75)">
        <g data-name="그룹 671">
            <path data-name="패스 336" d="M278.9 197.335a6.339 6.339 0 1 1 6.334-6.335 6.339 6.339 0 0 1-6.334 6.335z" transform="translate(-4.514 -8.117)" style="stroke:#1e1e1e;fill:none;stroke-linecap:round;stroke-linejoin:round;stroke-width:2.5px"/>
        </g>
        <path data-name="패스 337" d="M268.43 209.162a7.505 7.505 0 0 1 7-4.8h5.7a7.506 7.506 0 0 1 7 4.8" transform="translate(-3.902 -11.044)" style="stroke:#1e1e1e;fill:none;stroke-linecap:round;stroke-linejoin:round;stroke-width:2.5px"/>
        <g data-name="그룹 672">
            <path data-name="패스 338" d="M252.62 189.8a6.339 6.339 0 1 1 6.339-6.339 6.339 6.339 0 0 1-6.339 6.339z" transform="translate(-.612 -6.997)" style="stroke:#1e1e1e;fill:none;stroke-linecap:round;stroke-linejoin:round;stroke-width:2.5px"/>
        </g>
        <path data-name="패스 339" d="M242.156 201.624a7.506 7.506 0 0 1 7-4.8h5.7a7.506 7.506 0 0 1 7 4.8" transform="translate(0 -9.925)" style="stroke:#1e1e1e;fill:none;stroke-linecap:round;stroke-linejoin:round;stroke-width:2.5px"/>
        <g data-name="그룹 673">
            <path data-name="패스 340" d="M305.168 190.485a6.339 6.339 0 1 1 6.339-6.339 6.339 6.339 0 0 1-6.339 6.339z" transform="translate(-8.416 -7.1)" style="stroke:#1e1e1e;fill:none;stroke-linecap:round;stroke-linejoin:round;stroke-width:2.5px"/>
        </g>
        <path data-name="패스 341" d="M294.7 202.312a7.506 7.506 0 0 1 7-4.8h5.7a7.506 7.506 0 0 1 7 4.8" transform="translate(-7.804 -10.027)" style="stroke:#1e1e1e;fill:none;stroke-linecap:round;stroke-linejoin:round;stroke-width:2.5px"/>
        <path data-name="패스 342" d="M294.178 166.491a21.35 21.35 0 0 0 1.837-4.456h3.44a2.112 2.112 0 0 0 2.112-2.112v-7.6a2.112 2.112 0 0 0-2.112-2.112h-3.44a21.35 21.35 0 0 0-1.837-4.456l2.426-2.426a2.112 2.112 0 0 0 0-2.986l-5.377-5.377a2.111 2.111 0 0 0-2.986 0l-2.406 2.406a21.293 21.293 0 0 0-4.476-1.87v-3.387a2.111 2.111 0 0 0-2.113-2.115h-7.6a2.111 2.111 0 0 0-2.112 2.112v3.345a21.3 21.3 0 0 0-4.534 1.858l-2.354-2.353a2.111 2.111 0 0 0-2.986 0l-5.377 5.377a2.112 2.112 0 0 0 0 2.986l2.333 2.333a21.336 21.336 0 0 0-1.89 4.549h-3.294a2.112 2.112 0 0 0-2.112 2.112v7.6a2.112 2.112 0 0 0 2.112 2.112h3.294a21.378 21.378 0 0 0 1.557 3.929" transform="translate(-1.064)" style="stroke:#1e1e1e;fill:none;stroke-linecap:round;stroke-linejoin:round;stroke-width:2.5px"/>
        <circle data-name="타원 23" cx="12.762" cy="12.762" r="12.762" transform="translate(261.618 143.359)" style="stroke:#0021ff;fill:none;stroke-linecap:round;stroke-linejoin:round;stroke-width:2.5px"/>
        <path data-name="패스 343" d="m273.515 159.873 4.2 4.2 7.029-7.029" transform="translate(-4.657 -4.016)" style="stroke:#0021ff;fill:none;stroke-linecap:round;stroke-linejoin:round;stroke-width:2.5px"/>
    </g>
</svg>
