<svg xmlns="http://www.w3.org/2000/svg" width="10.39" height="12.699" viewBox="0 0 10.39 12.699">
    <path d="M2.886-5.228H7.5V-6.96a2.224 2.224 0 0 0-.676-1.632 2.224 2.224 0 0 0-1.632-.676 2.224 2.224 0 0 0-1.632.676 2.224 2.224 0 0 0-.674 1.632zm7.5.866V.833a.835.835 0 0 1-.253.613.835.835 0 0 1-.613.253H.866a.835.835 0 0 1-.613-.253A.835.835 0 0 1 0 .833v-5.195a.835.835 0 0 1 .253-.613.835.835 0 0 1 .613-.253h.289V-6.96a3.888 3.888 0 0 1 1.191-2.85A3.888 3.888 0 0 1 5.195-11a3.888 3.888 0 0 1 2.85 1.191 3.888 3.888 0 0 1 1.19 2.849v1.732h.289a.835.835 0 0 1 .613.253.835.835 0 0 1 .253.613z" transform="translate(0 11)" style="fill:#cecece;fill-rule:evenodd"/>
</svg>
