<svg xmlns="http://www.w3.org/2000/svg" width="10" height="12" viewBox="0 0 10 12">
    <path d="M10-2.07a2.264 2.264 0 0 1-.488 1.461A1.463 1.463 0 0 1 8.336 0H1.664A1.463 1.463 0 0 1 .488-.609 2.264 2.264 0 0 1 0-2.07a11.224 11.224 0 0 1 .066-1.254 6.738 6.738 0 0 1 .247-1.188A3.954 3.954 0 0 1 .77-5.535a2.187 2.187 0 0 1 .734-.7A2.029 2.029 0 0 1 2.555-6.5 3.377 3.377 0 0 0 5-5.5a3.377 3.377 0 0 0 2.445-1 2.029 2.029 0 0 1 1.055.27 2.187 2.187 0 0 1 .734.7 3.954 3.954 0 0 1 .457 1.023 6.738 6.738 0 0 1 .246 1.188A11.224 11.224 0 0 1 10-2.07zM8-9a2.89 2.89 0 0 1-.879 2.121A2.89 2.89 0 0 1 5-6a2.89 2.89 0 0 1-2.121-.879A2.89 2.89 0 0 1 2-9a2.89 2.89 0 0 1 .879-2.121A2.89 2.89 0 0 1 5-12a2.89 2.89 0 0 1 2.121.879A2.89 2.89 0 0 1 8-9z" transform="translate(0 12)" style="fill:#cecece;fill-rule:evenodd"/>
</svg>
