<svg xmlns="http://www.w3.org/2000/svg" width="83" height="72" viewBox="0 0 83 72">
    <defs>
        <clipPath id="aqlr1wzl3a">
            <path data-name="사각형 1766" transform="translate(-7)" style="fill:none" d="M0 0h58.582v66.2H0z"/>
        </clipPath>
    </defs>
    <g transform="translate(-285 -1082)">
        <circle data-name="타원 39" cx="23" cy="23" r="23" transform="translate(322 1108)" style="fill:#e2e5ff"/>
        <g data-name="그룹 1007" style="clip-path:url(#aqlr1wzl3a)" transform="translate(292 1082)">
            <path data-name="패스 960" d="M49.556 39.623V15.288a4.994 4.994 0 0 0-4.988-4.988h-6.175a.713.713 0 1 1 0-1.425h6.175a6.42 6.42 0 0 1 6.413 6.413v24.335"/>
            <path data-name="패스 961" d="M51.582 39.624h-1.2V15.289a5.819 5.819 0 0 0-5.813-5.812h-6.175a.112.112 0 1 0 0 .224h6.175a5.6 5.6 0 0 1 5.588 5.588v24.335h-1.2V15.289a4.394 4.394 0 0 0-4.388-4.389h-6.175a1.313 1.313 0 1 1 0-2.625h6.175a7.021 7.021 0 0 1 7.013 7.013z"/>
            <path data-name="패스 962" d="m15.6 59.957-14.586.079A6.42 6.42 0 0 1-5.4 53.623V15.289a6.42 6.42 0 0 1 6.413-6.413h6.175a.712.712 0 0 1 0 1.425H1.013a4.994 4.994 0 0 0-4.988 4.988v38.334a4.993 4.993 0 0 0 4.988 4.988h14.808"/>
            <path data-name="패스 963" d="M1.016 60.636A7.022 7.022 0 0 1-6 53.623V15.288a7.021 7.021 0 0 1 7.013-7.012h6.175a1.313 1.313 0 1 1 0 2.625H1.013a4.392 4.392 0 0 0-4.388 4.387v38.335a4.392 4.392 0 0 0 4.388 4.388h14.808v1.2H1.013a5.6 5.6 0 0 1-5.588-5.588V15.288A5.6 5.6 0 0 1 1.013 9.7h6.175a.112.112 0 1 0 0-.224H1.013A5.819 5.819 0 0 0-4.8 15.288v38.335a5.82 5.82 0 0 0 5.813 5.813l14.587-.079.006 1.2z"/>
            <path data-name="패스 964" d="M27.553 15.741h-9.526a3.8 3.8 0 0 1-3.8-3.8V4.4a3.8 3.8 0 0 1 3.8-3.8h9.526a3.8 3.8 0 0 1 3.8 3.8v7.541a3.8 3.8 0 0 1-3.8 3.8M18.027 2.025A2.378 2.378 0 0 0 15.652 4.4v7.541a2.377 2.377 0 0 0 2.375 2.375h9.526a2.377 2.377 0 0 0 2.375-2.375V4.4a2.378 2.378 0 0 0-2.375-2.375z"/>
            <path data-name="패스 965" d="M27.553 16.342h-9.526a4.405 4.405 0 0 1-4.4-4.4V4.4a4.405 4.405 0 0 1 4.4-4.4h9.526a4.405 4.405 0 0 1 4.4 4.4v7.541a4.405 4.405 0 0 1-4.4 4.4M18.027 1.2a3.2 3.2 0 0 0-3.2 3.2v7.541a3.2 3.2 0 0 0 3.2 3.2h9.526a3.2 3.2 0 0 0 3.2-3.2V4.4a3.2 3.2 0 0 0-3.2-3.2zm9.526 13.716h-9.526a2.978 2.978 0 0 1-2.975-2.975V4.4a2.978 2.978 0 0 1 2.975-2.975h9.526A2.978 2.978 0 0 1 30.529 4.4v7.541a2.978 2.978 0 0 1-2.976 2.975m-9.526-12.29A1.777 1.777 0 0 0 16.252 4.4v7.541a1.777 1.777 0 0 0 1.775 1.775h9.526a1.778 1.778 0 0 0 1.776-1.775V4.4a1.778 1.778 0 0 0-1.776-1.775z"/>
            <path data-name="패스 966" d="M10.557 28.341H3.55a.712.712 0 0 1-.712-.712v-7.007a.712.712 0 0 1 .712-.712h7.007a.712.712 0 0 1 .712.712v7.007a.712.712 0 0 1-.712.712m-6.294-1.425h5.582v-5.582H4.263z"/>
            <path data-name="패스 967" d="M10.557 28.941H3.55a1.314 1.314 0 0 1-1.313-1.312v-7.007a1.314 1.314 0 0 1 1.313-1.313h7.007a1.314 1.314 0 0 1 1.313 1.313v7.007a1.314 1.314 0 0 1-1.313 1.312M3.55 20.51a.112.112 0 0 0-.112.112v7.007a.112.112 0 0 0 .112.112h7.007a.112.112 0 0 0 .112-.112v-7.007a.112.112 0 0 0-.112-.112zm6.894 7.006H3.662v-6.782h6.782zm-5.581-1.2h4.381v-4.381H4.863z"/>
            <path data-name="패스 968" d="M36.03 22.641H17.088a.713.713 0 0 1 0-1.425H36.03a.713.713 0 1 1 0 1.425"/>
            <path data-name="패스 969" d="M36.03 23.241H17.088a1.313 1.313 0 0 1 0-2.625H36.03a1.313 1.313 0 0 1 0 2.625m-18.942-1.425a.113.113 0 0 0 0 .225H36.03a.113.113 0 0 0 0-.225z"/>
            <path data-name="패스 970" d="M28.311 27.035H17.088a.712.712 0 0 1 0-1.425h11.223a.712.712 0 1 1 0 1.425"/>
            <path data-name="패스 971" d="M28.311 27.635H17.088a1.313 1.313 0 0 1 0-2.625h11.223a1.313 1.313 0 0 1 0 2.625M17.088 26.21a.113.113 0 0 0 0 .225h11.223a.113.113 0 0 0 0-.225z"/>
            <path data-name="패스 972" d="M10.557 41.048H3.55a.712.712 0 0 1-.712-.712v-7.007a.712.712 0 0 1 .712-.712h7.007a.712.712 0 0 1 .712.712v7.007a.712.712 0 0 1-.712.712m-6.294-1.425h5.582v-5.582H4.263z"/>
            <path data-name="패스 973" d="M10.557 41.648H3.55a1.314 1.314 0 0 1-1.313-1.312v-7.007a1.314 1.314 0 0 1 1.313-1.313h7.007a1.314 1.314 0 0 1 1.313 1.313v7.007a1.314 1.314 0 0 1-1.313 1.312M3.55 33.217a.112.112 0 0 0-.112.112v7.007a.112.112 0 0 0 .112.112h7.007a.112.112 0 0 0 .112-.112v-7.007a.112.112 0 0 0-.112-.112zm6.894 7.006H3.662v-6.782h6.782zm-5.581-1.2h4.381v-4.381H4.863z"/>
            <g data-name="그룹 1008">
                <path data-name="패스 974" d="M31.938 65.6a.708.708 0 0 1-.465-.173l-4.237-3.653-5.383 1.526a.713.713 0 0 1-.872-.9l3.447-10.645a.712.712 0 1 1 1.355.438l-3.035 9.377 4.469-1.27a.715.715 0 0 1 .66.146l3.516 3.033 1.219-9.91a.713.713 0 0 1 1.415.174l-1.382 11.231a.712.712 0 0 1-.45.578.722.722 0 0 1-.257.048"/>
                <path data-name="패스 975" d="M31.939 66.2a1.305 1.305 0 0 1-.858-.32l-3.991-3.441-5.072 1.44a1.312 1.312 0 0 1-1.607-1.667l3.446-10.646a1.312 1.312 0 0 1 2.418-.192 1.3 1.3 0 0 1 .079 1l-2.689 8.307 3.388-.962a1.3 1.3 0 0 1 1.216.269l2.666 2.3 1.082-8.8a1.313 1.313 0 0 1 2.606.32l-1.382 11.239a1.309 1.309 0 0 1-.83 1.064 1.285 1.285 0 0 1-.472.089m-4.555-5.092L31.939 65a.128.128 0 0 0 .039-.007.114.114 0 0 0 .072-.093l1.382-11.232a.113.113 0 0 0-.1-.126.122.122 0 0 0-.125.1l-1.355 11.022-4.367-3.764a.116.116 0 0 0-.1-.024l-5.554 1.574 3.382-10.445a.112.112 0 1 0-.213-.069l-3.448 10.646a.115.115 0 0 0 .027.113.111.111 0 0 0 .111.03z"/>
                <path data-name="패스 976" d="M37.328 62.918a.713.713 0 0 1-.642-1.022l1.614-3.365a.718.718 0 0 1 .724-.4l3.1.359-4.517-6.96a.712.712 0 1 1 1.195-.775l5.34 8.229a.712.712 0 0 1-.679 1.095l-4.1-.474-1.4 2.909a.711.711 0 0 1-.642.4"/>
                <path data-name="패스 977" d="M37.328 63.518a1.313 1.313 0 0 1-1.182-1.882l1.617-3.366a1.315 1.315 0 0 1 1.331-.735l1.841.212-3.823-5.891a1.312 1.312 0 1 1 2.2-1.428l5.341 8.229a1.312 1.312 0 0 1-1.249 2.018l-3.681-.425-1.214 2.523a1.318 1.318 0 0 1-1.183.745m1.62-4.792a.118.118 0 0 0-.1.063l-1.617 3.367a.113.113 0 0 0 .052.151l.048.01a.111.111 0 0 0 .1-.063l1.584-3.294 4.527.523a.116.116 0 0 0 .108-.053.111.111 0 0 0 0-.12l-5.341-8.229-.155-.033a.126.126 0 0 0-.033.155l5.21 8.029-4.37-.5h-.011"/>
                <path data-name="패스 978" d="M31.426 48.82a5.2 5.2 0 1 1 5.2-5.2 5.208 5.208 0 0 1-5.2 5.2m0-8.978a3.777 3.777 0 1 0 3.774 3.777 3.781 3.781 0 0 0-3.777-3.777"/>
                <path data-name="패스 979" d="M31.426 49.421a5.8 5.8 0 1 1 5.8-5.8 5.809 5.809 0 0 1-5.8 5.8m0-10.4a4.6 4.6 0 1 0 4.6 4.6 4.607 4.607 0 0 0-4.6-4.6m0 8.978a4.376 4.376 0 1 1 4.374-4.38 4.381 4.381 0 0 1-4.376 4.376m0-7.553a3.176 3.176 0 1 0 3.176 3.177 3.18 3.18 0 0 0-3.176-3.177"/>
                <path data-name="패스 980" d="M31.426 55.493a.716.716 0 0 1-.363-.1l-2.409-1.43-2.8.034h-.009a.712.712 0 0 1-.621-.364l-1.371-2.442-2.443-1.37a.711.711 0 0 1-.363-.63l.033-2.8-1.429-2.408a.712.712 0 0 1 0-.727l1.429-2.409-.033-2.8a.712.712 0 0 1 .363-.63l2.443-1.37 1.371-2.447a.713.713 0 0 1 .621-.363h.009l2.8.034 2.409-1.43a.712.712 0 0 1 .727 0l2.408 1.43 2.8-.034h.009a.713.713 0 0 1 .621.363L39 36.045l2.442 1.37a.715.715 0 0 1 .364.63l-.034 2.8 1.43 2.409a.712.712 0 0 1 0 .727l-1.43 2.408.034 2.8a.714.714 0 0 1-.364.63L39 51.192l-1.371 2.442a.712.712 0 0 1-.621.364H37l-2.8-.034-2.408 1.43a.717.717 0 0 1-.364.1m-2.58-2.956a.712.712 0 0 1 .363.1l2.217 1.316 2.217-1.316a.716.716 0 0 1 .364-.1h.009l2.578.031 1.261-2.248a.716.716 0 0 1 .273-.273l2.248-1.262-.031-2.578a.718.718 0 0 1 .1-.372l1.316-2.217-1.319-2.219a.719.719 0 0 1-.1-.373l.031-2.578-2.248-1.262a.713.713 0 0 1-.273-.272l-1.261-2.248-2.578.031h-.009a.707.707 0 0 1-.364-.1l-2.217-1.316-2.216 1.318a.69.69 0 0 1-.372.1l-2.578-.031L25 36.917a.711.711 0 0 1-.272.272l-2.248 1.262.031 2.578a.72.72 0 0 1-.1.373l-1.315 2.216 1.315 2.217a.719.719 0 0 1 .1.372l-.031 2.578 2.248 1.262a.713.713 0 0 1 .272.273l1.262 2.248 2.578-.031zm-4.47-15.969z"/>
                <path data-name="패스 981" d="M31.426 56.094a1.314 1.314 0 0 1-.669-.183l-2.264-1.344-2.632.032a1.32 1.32 0 0 1-1.16-.67l-1.289-2.3-2.3-1.288a1.313 1.313 0 0 1-.671-1.161l.033-2.632-1.344-2.263a1.312 1.312 0 0 1 0-1.339l1.344-2.264-.033-2.632a1.314 1.314 0 0 1 .67-1.161l2.3-1.289 1.288-2.3a1.318 1.318 0 0 1 1.145-.67l2.648.032 2.263-1.343a1.313 1.313 0 0 1 1.34 0l2.263 1.343 2.633-.032a1.323 1.323 0 0 1 1.16.67l1.288 2.3 2.3 1.289a1.313 1.313 0 0 1 .671 1.161l-.032 2.632 1.344 2.263a1.311 1.311 0 0 1 0 1.34l-1.343 2.263.032 2.633a1.314 1.314 0 0 1-.67 1.16l-2.3 1.288-1.288 2.3a1.314 1.314 0 0 1-1.144.671l-2.649-.032-2.26 1.343a1.315 1.315 0 0 1-.67.183m-2.611-2.731 2.611 1.531a.122.122 0 0 0 .059-.016l2.552-1.515 2.969.035a.115.115 0 0 0 .1-.057l1.453-2.59 2.585-1.451a.113.113 0 0 0 .058-.1l-.036-2.97 1.516-2.554a.111.111 0 0 0 0-.114l-1.516-2.554.036-2.969a.115.115 0 0 0-.058-.1l-2.589-1.453L37.1 33.9a.111.111 0 0 0-.1-.057l-2.971.036-2.545-1.519a.108.108 0 0 0-.115 0l-2.554 1.515-2.968-.036a.114.114 0 0 0-.1.058l-1.367 2.434v.364l.051-.029 1.48-2.6 2.933.036 2.582-1.514 2.523 1.5 2.993-.02 1.436 2.559 2.6 1.479-.036 2.934 1.514 2.582-1.5 2.523.02 2.993-2.559 1.436-1.479 2.6-2.934-.036-2.582 1.514-2.59-1.514-2.925.036-1.437-2.559-2.6-1.479.036-2.934-1.506-2.583 1.5-2.523-.02-2.993 2.498-1.403v-.36l-.084.15-2.594 1.449a.115.115 0 0 0-.058.1l.037 2.969-1.516 2.554a.113.113 0 0 0 0 .115l1.516 2.553-.033 2.97a.116.116 0 0 0 .058.1l2.589 1.452 1.454 2.59a.111.111 0 0 0 .1.057zm.018-1.426h.012a1.311 1.311 0 0 1 .671.185l1.91 1.133 1.911-1.134a1.314 1.314 0 0 1 .67-.184l2.237.027 1.088-1.937a1.318 1.318 0 0 1 .5-.5l1.937-1.087-.027-2.222a1.323 1.323 0 0 1 .185-.686l1.133-1.91-1.134-1.911a1.328 1.328 0 0 1-.184-.683l.027-2.224-1.937-1.088a1.3 1.3 0 0 1-.5-.5l-1.089-1.938-2.221.027a1.339 1.339 0 0 1-.685-.183l-1.912-1.135-1.911 1.134a1.292 1.292 0 0 1-.667.184l-2.24-.028-1.091 1.934a1.309 1.309 0 0 1-.5.5L23.081 38.8l.027 2.221a1.33 1.33 0 0 1-.183.685l-1.135 1.913 1.134 1.911a1.326 1.326 0 0 1 .184.685l-.027 2.222 1.937 1.087a1.311 1.311 0 0 1 .5.5l1.088 1.937z"/>
            </g>
        </g>
    </g>
</svg>
