<svg xmlns="http://www.w3.org/2000/svg" width="65.615" height="60.255" viewBox="0 0 65.615 60.255">
    <g transform="translate(-573.748 -1111.749)">
        <circle data-name="타원 39" cx="19.168" cy="19.168" r="19.168" transform="translate(601.027 1133.667)" style="fill:#e2e5ff"/>
        <g data-name="그룹 85">
            <path data-name="빼기 2" d="M14.541 44.551H0V0h42.948v42.556h-1.431V1.66H1.431v41.228h13.11v1.662z" style="stroke:#000;stroke-width:.5px" transform="translate(573.998 1111.999)"/>
            <path data-name="사각형 1732" d="M575.143 1120.48h28.798v2.083h-28.798z"/>
            <path data-name="사각형 1733" d="M606.232 1120.48h9.376v2.083h-9.376z"/>
            <g data-name="그룹 974" transform="translate(604.445 1115.333)">
                <circle data-name="타원 44" cx="1.25" cy="1.25" r="1.25"/>
                <circle data-name="타원 45" cx="1.25" cy="1.25" r="1.25" transform="translate(5)"/>
            </g>
            <path data-name="사각형 1742" d="M581.061 1128.433h18.082v2.083h-18.082z"/>
            <path data-name="사각형 1743" d="M581.084 1133.735h11.385v2.083h-11.385z"/>
        </g>
        <g data-name="그룹 1005">
            <path data-name="패스 457" d="M209.5 299.718a8.165 8.165 0 1 1 5.779-2.389 8.148 8.148 0 0 1-5.779 2.389zm0-15.075a6.907 6.907 0 1 0 4.886 2.021 6.889 6.889 0 0 0-4.886-2.021z" transform="translate(389.999 856.198)" style="stroke:#0021ff;fill:#0021ff"/>
            <path data-name="패스 457 - 윤곽선" d="M209.42 299.8a8.332 8.332 0 1 1 5.9-2.438 8.283 8.283 0 0 1-5.9 2.438zm0-16.336a8 8 0 1 0 5.66 2.341 7.95 7.95 0 0 0-5.66-2.339zm0 15.076a7.068 7.068 0 1 1 5-2.07 7.031 7.031 0 0 1-5 2.072zm0-13.815a6.74 6.74 0 1 0 0 13.48 6.74 6.74 0 1 0 0-13.48z" transform="translate(390.082 856.28)" style="fill:#0021ff"/>
            <path data-name="패스 458" d="M223.471 308.321a2.382 2.382 0 0 1-1.691-.7l-2.742-2.742a4.239 4.239 0 0 1-1.225-2.631l-.024-.293a1.519 1.519 0 0 1 0-.309 1.555 1.555 0 0 1 1.717-1.372l.082.009a5.178 5.178 0 0 1 3.092 1.482l2.417 2.418a2.392 2.392 0 0 1 .061 3.439 2.386 2.386 0 0 1-1.687.699zm-4.134-6.795a.293.293 0 0 0-.292.262l.024.352a2.984 2.984 0 0 0 .861 1.848l2.742 2.742a1.13 1.13 0 0 0 1.6 0 .954.954 0 0 0 .073-.081 1.175 1.175 0 0 0-.122-1.562l-.008-.008-2.421-2.422a3.915 3.915 0 0 0-2.336-1.119l-.083-.009z" transform="translate(387.384 853.514)" style="stroke:#0021ff;fill:#0021ff"/>
            <path data-name="패스 458 - 윤곽선" d="M223.388 308.406a2.54 2.54 0 0 1-1.81-.75l-2.742-2.742a4.407 4.407 0 0 1-1.274-2.735l-.024-.293a1.686 1.686 0 0 1 0-.341 1.721 1.721 0 0 1 1.713-1.53 1.781 1.781 0 0 1 .188.01l.083.009a5.346 5.346 0 0 1 3.192 1.53l2.417 2.418a2.6 2.6 0 0 1 .244 3.471 2.631 2.631 0 0 1-.181.2 2.544 2.544 0 0 1-1.806.753zm-4.132-8.056a1.386 1.386 0 0 0-1.381 1.233 1.353 1.353 0 0 0 0 .275l.024.294a4.071 4.071 0 0 0 1.177 2.526l2.742 2.742a2.225 2.225 0 0 0 3.145 0 2.225 2.225 0 0 0-.059-3.2l-2.419-2.42a5.01 5.01 0 0 0-2.992-1.434l-.083-.009a1.448 1.448 0 0 0-.154-.007zm4.133 6.8a1.288 1.288 0 0 1-.918-.38l-2.742-2.742a3.151 3.151 0 0 1-.91-1.952l-.025-.369v-.014a.46.46 0 0 1 .458-.412h.053l.083.009a4.082 4.082 0 0 1 2.436 1.167l2.43 2.43a1.337 1.337 0 0 1 .136 1.783 1.1 1.1 0 0 1-.087.1 1.29 1.29 0 0 1-.915.375zm-4.257-5.434.022.334a2.813 2.813 0 0 0 .813 1.74l2.742 2.742a.955.955 0 0 0 .681.282.957.957 0 0 0 .681-.281.774.774 0 0 0 .06-.066 1 1 0 0 0-.107-1.337l-.01-.01-2.421-2.422a3.746 3.746 0 0 0-2.236-1.071l-.08-.009h-.019a.125.125 0 0 0-.124.1z" transform="translate(387.466 853.596)" style="fill:#0021ff"/>
            <path data-name="패스 459" d="M218.537 301.532a.632.632 0 0 1-.447-.184l-1.589-1.59a.631.631 0 0 1 .892-.891l1.589 1.589a.63.63 0 0 1-.446 1.077z" transform="translate(387.617 853.765)" style="fill:#0021ff"/>
            <path data-name="패스 459 - 윤곽선" d="M218.455 301.617a.8.8 0 0 1-.565-.233l-1.589-1.59a.8.8 0 0 1 1.129-1.128l1.589 1.589a.8.8 0 0 1-.564 1.362zm-1.589-2.85a.463.463 0 0 0-.328.79l1.589 1.59a.464.464 0 1 0 .655-.656l-1.589-1.589a.461.461 0 0 0-.327-.135z" transform="translate(387.699 853.848)" style="fill:#0021ff"/>
            <path data-name="패스 460" d="M213.932 289.26a.629.629 0 0 1-.447-.185 4.2 4.2 0 0 0-4.933-.757.631.631 0 1 1-.583-1.119 5.459 5.459 0 0 1 6.408.984.631.631 0 0 1-.446 1.077z" transform="translate(388.998 856.524)" style="fill:#0021ff"/>
            <path data-name="패스 460 - 윤곽선" d="M213.849 289.345a.794.794 0 0 1-.565-.234 4.021 4.021 0 0 0-2.859-1.189 4.085 4.085 0 0 0-1.878.462.807.807 0 0 1-.369.09.8.8 0 0 1-.368-1.506 5.683 5.683 0 0 1 2.616-.645 5.609 5.609 0 0 1 3.987 1.658.8.8 0 0 1-.564 1.362zm-3.424-1.758a4.353 4.353 0 0 1 3.1 1.287.463.463 0 1 0 .656-.654 5.277 5.277 0 0 0-3.751-1.561 5.346 5.346 0 0 0-2.461.606.463.463 0 1 0 .428.821 4.421 4.421 0 0 1 2.028-.499z" transform="translate(389.08 856.606)" style="fill:#0021ff"/>
        </g>
    </g>
</svg>
