<svg xmlns="http://www.w3.org/2000/svg" width="70" height="60" viewBox="0 0 70 60">
    <defs>
        <clipPath id="bqea8tr4fa">
            <path data-name="사각형 1766" style="fill:none" d="M0 0h49.081v55.464H0z"/>
        </clipPath>
    </defs>
    <g transform="translate(-285 -1082)">
        <ellipse data-name="타원 39" cx="19.5" cy="19" rx="19.5" ry="19" transform="translate(316 1104)" style="fill:#e2e5ff"/>
        <g data-name="그룹 1007" transform="translate(285 1082)" style="clip-path:url(#bqea8tr4fa)">
            <path data-name="패스 960" d="M47.384 33.196V12.808a4.184 4.184 0 0 0-4.179-4.179h-5.174a.6.6 0 1 1 0-1.194h5.174a5.379 5.379 0 0 1 5.373 5.373v20.388"/>
            <path data-name="패스 961" d="M49.081 33.198h-1.005V12.81a4.875 4.875 0 0 0-4.87-4.869h-5.174a.094.094 0 1 0 0 .188h5.174a4.687 4.687 0 0 1 4.682 4.682v20.387h-1.006V12.81a3.681 3.681 0 0 0-3.676-3.676h-5.174a1.1 1.1 0 1 1 0-2.2h5.174a5.882 5.882 0 0 1 5.876 5.876z"/>
            <path data-name="패스 962" d="m18.934 50.233-12.22.066a5.379 5.379 0 0 1-5.373-5.373V12.809a5.379 5.379 0 0 1 5.373-5.373h5.174a.6.6 0 0 1 0 1.194H6.714a4.184 4.184 0 0 0-4.179 4.179v32.117a4.183 4.183 0 0 0 4.179 4.179H19.12"/>
            <path data-name="패스 963" d="M6.716 50.802a5.883 5.883 0 0 1-5.878-5.875V12.809a5.882 5.882 0 0 1 5.876-5.875h5.173a1.1 1.1 0 1 1 0 2.2H6.714a3.68 3.68 0 0 0-3.676 3.675v32.118a3.68 3.68 0 0 0 3.676 3.676H19.12v1.005H6.714a4.687 4.687 0 0 1-4.682-4.682V12.809a4.687 4.687 0 0 1 4.682-4.682h5.173a.094.094 0 1 0 0-.188H6.714a4.875 4.875 0 0 0-4.87 4.869v32.119a4.876 4.876 0 0 0 4.87 4.87l12.218-.066.005 1.005z"/>
            <path data-name="패스 964" d="M28.949 13.188h-7.981a3.187 3.187 0 0 1-3.184-3.185V3.687A3.188 3.188 0 0 1 20.968.503h7.981a3.188 3.188 0 0 1 3.185 3.184v6.316a3.187 3.187 0 0 1-3.185 3.184m-7.981-11.49a1.992 1.992 0 0 0-1.99 1.99v6.316a1.992 1.992 0 0 0 1.99 1.99h7.981a1.992 1.992 0 0 0 1.99-1.99V3.687a1.992 1.992 0 0 0-1.99-1.99z"/>
            <path data-name="패스 965" d="M28.95 13.692h-7.982a3.691 3.691 0 0 1-3.686-3.686V3.687A3.691 3.691 0 0 1 20.968 0h7.981a3.691 3.691 0 0 1 3.687 3.686v6.318a3.691 3.691 0 0 1-3.687 3.686M20.968 1.006a2.684 2.684 0 0 0-2.681 2.681v6.318a2.684 2.684 0 0 0 2.681 2.681h7.981a2.684 2.684 0 0 0 2.682-2.681V3.687a2.684 2.684 0 0 0-2.682-2.681zM28.95 12.5h-7.982a2.5 2.5 0 0 1-2.493-2.493v-6.32a2.5 2.5 0 0 1 2.493-2.493h7.981a2.5 2.5 0 0 1 2.493 2.493v6.318A2.5 2.5 0 0 1 28.95 12.5M20.968 2.2a1.489 1.489 0 0 0-1.487 1.487v6.318a1.489 1.489 0 0 0 1.487 1.487h7.981a1.49 1.49 0 0 0 1.488-1.487V3.687A1.489 1.489 0 0 0 28.95 2.2z"/>
            <path data-name="패스 966" d="M14.709 23.745h-5.87a.6.6 0 0 1-.6-.6v-5.867a.6.6 0 0 1 .6-.6h5.871a.6.6 0 0 1 .6.6v5.871a.6.6 0 0 1-.6.6m-5.274-1.198h4.677v-4.68H9.436z"/>
            <path data-name="패스 967" d="M14.71 24.247H8.839a1.1 1.1 0 0 1-1.1-1.1v-5.87a1.1 1.1 0 0 1 1.1-1.1h5.871a1.1 1.1 0 0 1 1.1 1.1v5.871a1.1 1.1 0 0 1-1.1 1.1m-5.871-7.065a.094.094 0 0 0-.094.094v5.871a.094.094 0 0 0 .094.094h5.871a.094.094 0 0 0 .094-.094v-5.871a.094.094 0 0 0-.094-.094zm5.776 5.87H8.933v-5.685h5.682zm-4.676-1.005h3.67v-3.67h-3.67z"/>
            <path data-name="패스 968" d="M36.052 18.969h-15.87a.6.6 0 0 1 0-1.194h15.87a.6.6 0 1 1 0 1.194"/>
            <path data-name="패스 969" d="M36.051 19.471h-15.87a1.1 1.1 0 0 1 0-2.2h15.87a1.1 1.1 0 0 1 0 2.2m-15.87-1.194a.095.095 0 0 0 0 .189h15.87a.095.095 0 0 0 0-.189z"/>
            <path data-name="패스 970" d="M29.584 22.646h-9.4a.6.6 0 0 1 0-1.194h9.4a.6.6 0 1 1 0 1.194"/>
            <path data-name="패스 971" d="M29.584 23.153h-9.4a1.1 1.1 0 0 1 0-2.2h9.4a1.1 1.1 0 0 1 0 2.2m-9.4-1.194a.095.095 0 0 0 0 .189h9.4a.095.095 0 0 0 0-.189z"/>
            <path data-name="패스 972" d="M14.709 34.391h-5.87a.6.6 0 0 1-.6-.6v-5.867a.6.6 0 0 1 .6-.6h5.871a.6.6 0 0 1 .6.6v5.871a.6.6 0 0 1-.6.6m-5.273-1.194h4.677V28.52H9.436z"/>
            <path data-name="패스 973" d="M14.71 34.894H8.839a1.1 1.1 0 0 1-1.1-1.1v-5.87a1.1 1.1 0 0 1 1.1-1.1h5.871a1.1 1.1 0 0 1 1.1 1.1v5.871a1.1 1.1 0 0 1-1.1 1.1M8.839 27.83a.094.094 0 0 0-.094.094v5.871a.094.094 0 0 0 .094.094h5.871a.094.094 0 0 0 .094-.094v-5.871a.094.094 0 0 0-.094-.094zm5.776 5.87H8.933v-5.682h5.682zm-4.676-1.005h3.67v-3.67h-3.67z"/>
            <g data-name="그룹 1008">
                <path data-name="패스 974" d="M32.623 54.961a.593.593 0 0 1-.39-.145l-3.55-3.061-4.51 1.28a.6.6 0 0 1-.731-.758l2.888-8.919a.6.6 0 1 1 1.138.368l-2.544 7.861 3.744-1.068a.6.6 0 0 1 .553.122l2.947 2.546 1.021-8.3a.6.6 0 0 1 1.186.146l-1.159 9.404a.6.6 0 0 1-.377.484.6.6 0 0 1-.215.04"/>
                <path data-name="패스 975" d="M32.624 55.463a1.093 1.093 0 0 1-.719-.268l-3.34-2.883-4.249 1.206a1.1 1.1 0 0 1-1.346-1.4l2.887-8.919a1.1 1.1 0 0 1 2.026-.161 1.091 1.091 0 0 1 .066.839l-2.253 6.96 2.839-.806a1.09 1.09 0 0 1 1.019.225l2.229 1.928.907-7.369a1.1 1.1 0 0 1 2.183.268l-1.158 9.414a1.1 1.1 0 0 1-.7.891 1.076 1.076 0 0 1-.4.075m-3.816-4.266 3.816 3.261a.107.107 0 0 0 .033-.006.1.1 0 0 0 .06-.078l1.158-9.41a.1.1 0 0 0-.083-.106.1.1 0 0 0-.1.082l-1.136 9.236-3.659-3.154a.1.1 0 0 0-.085-.02l-4.652 1.32 2.834-8.751a.094.094 0 1 0-.179-.058l-2.888 8.919a.1.1 0 0 0 .023.095.093.093 0 0 0 .093.025z"/>
                <path data-name="패스 976" d="M37.139 52.714a.6.6 0 0 1-.538-.856l1.356-2.819a.6.6 0 0 1 .607-.335l2.6.3-3.784-5.831a.6.6 0 1 1 1-.649l4.475 6.897a.6.6 0 0 1-.569.917l-3.437-.4-1.172 2.437a.6.6 0 0 1-.538.338"/>
                <path data-name="패스 977" d="M37.139 53.218a1.1 1.1 0 0 1-.99-1.577l1.355-2.823a1.1 1.1 0 0 1 1.115-.616l1.542.178-3.2-4.936a1.1 1.1 0 1 1 1.845-1.2l4.475 6.894a1.1 1.1 0 0 1-1.046 1.691l-3.084-.356-1.017 2.114a1.1 1.1 0 0 1-.991.624m1.357-4.015a.1.1 0 0 0-.086.053l-1.355 2.821a.094.094 0 0 0 .044.127l.04.008a.093.093 0 0 0 .085-.053l1.327-2.76 3.793.438a.1.1 0 0 0 .09-.044.093.093 0 0 0 0-.1l-4.475-6.894-.13-.028a.106.106 0 0 0-.028.13l4.365 6.727-3.661-.423H38.5"/>
                <path data-name="패스 978" d="M32.194 40.902a4.358 4.358 0 1 1 4.358-4.358 4.363 4.363 0 0 1-4.358 4.358m0-7.522a3.164 3.164 0 1 0 3.164 3.164 3.168 3.168 0 0 0-3.164-3.164"/>
                <path data-name="패스 979" d="M32.195 41.406a4.861 4.861 0 1 1 4.861-4.861 4.867 4.867 0 0 1-4.861 4.861m0-8.717a3.855 3.855 0 1 0 3.856 3.856 3.86 3.86 0 0 0-3.856-3.856m0 7.522a3.667 3.667 0 1 1 3.666-3.666 3.671 3.671 0 0 1-3.666 3.666m0-6.328a2.661 2.661 0 1 0 2.661 2.662 2.665 2.665 0 0 0-2.661-2.662"/>
                <path data-name="패스 980" d="M32.194 46.493a.6.6 0 0 1-.3-.083l-2.018-1.2-2.346.028h-.008a.6.6 0 0 1-.52-.3l-1.149-2.046-2.047-1.149a.6.6 0 0 1-.3-.528l.028-2.347-1.205-2.016a.6.6 0 0 1 0-.609l1.2-2.018-.035-2.35a.6.6 0 0 1 .3-.528l2.047-1.148 1.153-2.047a.6.6 0 0 1 .52-.3h.008l2.346.028 2.018-1.2a.6.6 0 0 1 .609 0l2.017 1.2 2.351-.028h.008a.6.6 0 0 1 .52.3l1.149 2.047 2.046 1.153a.6.6 0 0 1 .3.528l-.028 2.347 1.2 2.018a.6.6 0 0 1 0 .609l-1.2 2.017.028 2.347a.6.6 0 0 1-.3.528l-2.046 1.149-1.146 2.041a.6.6 0 0 1-.52.3h-.008l-2.347-.028-2.017 1.2a.6.6 0 0 1-.3.083m-2.162-2.477a.6.6 0 0 1 .3.083l1.857 1.1 1.857-1.1a.6.6 0 0 1 .3-.083h.008l2.16.026 1.056-1.883a.6.6 0 0 1 .229-.229l1.887-1.055-.026-2.16a.6.6 0 0 1 .083-.312l1.1-1.857-1.1-1.857a.6.6 0 0 1-.083-.313l.026-2.159-1.883-1.057a.6.6 0 0 1-.229-.228l-1.058-1.883-2.16.026h-.008a.592.592 0 0 1-.3-.084l-1.857-1.1-1.857 1.1a.578.578 0 0 1-.312.084l-2.16-.026-1.057 1.883a.6.6 0 0 1-.228.228l-1.891 1.057.026 2.16a.6.6 0 0 1-.084.313l-1.1 1.857 1.1 1.857a.6.6 0 0 1 .084.312l-.026 2.159 1.883 1.057a.6.6 0 0 1 .228.229l1.057 1.883 2.16-.026zm-3.752-13.376z"/>
                <path data-name="패스 981" d="M32.192 46.997a1.1 1.1 0 0 1-.561-.153l-1.9-1.126-2.199.031a1.106 1.106 0 0 1-.972-.561l-1.08-1.924-1.923-1.079a1.1 1.1 0 0 1-.562-.973l.028-2.205-1.126-1.9a1.1 1.1 0 0 1 0-1.122l1.126-1.9-.031-2.203a1.1 1.1 0 0 1 .561-.973l1.924-1.08 1.079-1.923a1.1 1.1 0 0 1 .959-.561l2.219.027 1.9-1.125a1.1 1.1 0 0 1 1.123 0l1.9 1.125 2.206-.027a1.108 1.108 0 0 1 .972.561l1.079 1.923 1.923 1.08a1.1 1.1 0 0 1 .562.973l-.027 2.205 1.126 1.9a1.1 1.1 0 0 1 0 1.123l-1.125 1.9.027 2.206a1.1 1.1 0 0 1-.561.972l-1.93 1.071-1.079 1.923a1.1 1.1 0 0 1-.958.562l-2.219-.027-1.9 1.126a1.1 1.1 0 0 1-.561.153m-2.185-2.287 2.185 1.282a.1.1 0 0 0 .049-.013l2.141-1.269 2.487.029a.1.1 0 0 0 .084-.048l1.217-2.17 2.169-1.217a.094.094 0 0 0 .049-.082l-.03-2.488 1.27-2.14a.093.093 0 0 0 0-.1l-1.27-2.14.03-2.487a.1.1 0 0 0-.049-.084l-2.168-1.213-1.218-2.17a.093.093 0 0 0-.081-.048l-2.489.03-2.139-1.269a.091.091 0 0 0-.1 0l-2.14 1.269-2.487-.03a.1.1 0 0 0-.084.049l-1.141 2.039v.3l.043-.024 1.24-2.179 2.457.03 2.16-1.264 2.114 1.255 2.508-.017 1.2 2.144 2.18 1.239-.03 2.458 1.274 2.168-1.255 2.11.017 2.508-2.144 1.2-1.24 2.182-2.458-.03-2.166 1.269-2.17-1.268-2.451.03-1.2-2.144-2.179-1.24.03-2.458-1.269-2.159 1.254-2.114-.015-2.512 2.1-1.174v-.3l-.07.126-2.169 1.217a.1.1 0 0 0-.049.084l.031 2.487-1.27 2.14a.1.1 0 0 0 0 .1l1.27 2.139-.031 2.487a.1.1 0 0 0 .049.084l2.169 1.217 1.218 2.17a.093.093 0 0 0 .082.048zm.015-1.195h.01a1.1 1.1 0 0 1 .562.155l1.6.949 1.6-.95a1.1 1.1 0 0 1 .561-.154l1.874.023.912-1.623a1.1 1.1 0 0 1 .421-.421l1.623-.911-.023-1.862a1.108 1.108 0 0 1 .155-.575l.949-1.6-.95-1.6a1.113 1.113 0 0 1-.154-.572l.023-1.863-1.623-.912a1.092 1.092 0 0 1-.42-.42l-.91-1.629-1.861.023a1.122 1.122 0 0 1-.579-.149l-1.6-.951-1.6.95a1.082 1.082 0 0 1-.559.154l-1.875-.027-.912 1.624a1.1 1.1 0 0 1-.421.421l-1.623.912.023 1.861a1.114 1.114 0 0 1-.153.574l-.951 1.6.95 1.6a1.111 1.111 0 0 1 .154.574l-.023 1.862 1.623.911a1.1 1.1 0 0 1 .421.421l.912 1.623z"/>
            </g>
        </g>
    </g>
</svg>
