<svg xmlns="http://www.w3.org/2000/svg" width="98.432" height="72" viewBox="0 0 98.432 72">
    <defs>
        <clipPath id="wfyrc3j10a">
            <path data-name="사각형 1770" style="fill:none" d="M0 0h75.736v60H0z"/>
        </clipPath>
    </defs>
    <g transform="translate(-353.568 -1092)">
        <circle data-name="타원 39" cx="23" cy="23" r="23" transform="translate(406 1118)" style="fill:#e2e5ff"/>
        <g data-name="그룹 1017" style="clip-path:url(#wfyrc3j10a)" transform="translate(353.568 1092)">
            <path data-name="패스 1003" d="M74.256 59.752a1.232 1.232 0 0 1-1.232-1.232c0-8.5-9.959-15.423-22.2-15.423s-22.2 6.919-22.2 15.423a1.232 1.232 0 0 1-2.463 0c0-9.863 11.065-17.886 24.664-17.886s24.663 8.027 24.663 17.886a1.232 1.232 0 0 1-1.232 1.232"/>
            <path data-name="패스 1004" d="M74.474 60.091a1.232 1.232 0 0 1-1.232-1.232c0-8.5-9.959-15.423-22.2-15.423s-22.2 6.919-22.2 15.423a1.232 1.232 0 0 1-2.463 0c0-9.863 11.065-17.886 24.664-17.886S75.706 49 75.706 58.859a1.232 1.232 0 0 1-1.232 1.232z" transform="translate(-.218 -.339)" style="stroke-miterlimit:10;stroke-width:.5px;stroke:#000;fill:none"/>
            <path data-name="패스 1005" d="M50.823 34.317a12.206 12.206 0 1 1 12.206-12.2 12.219 12.219 0 0 1-12.206 12.2m0-21.948a9.742 9.742 0 1 0 9.743 9.748 9.754 9.754 0 0 0-9.743-9.743"/>
            <path data-name="패스 1006" d="M51.145 34.4a12.206 12.206 0 1 1 12.206-12.2 12.219 12.219 0 0 1-12.206 12.2zm0-21.948a9.742 9.742 0 1 0 9.743 9.748 9.754 9.754 0 0 0-9.743-9.748z" transform="translate(-.322 -.083)" style="stroke-miterlimit:10;stroke-width:.5px;stroke:#000;fill:none"/>
            <path data-name="패스 1007" d="M1.482 45.536A1.232 1.232 0 0 1 .25 44.3c0-8.936 10-16.206 22.291-16.206a29.281 29.281 0 0 1 10.146 1.767 1.232 1.232 0 1 1-.862 2.308 26.8 26.8 0 0 0-9.285-1.612c-10.933 0-19.828 6.165-19.828 13.742a1.232 1.232 0 0 1-1.232 1.232" transform="translate(-.002 -.232)" style="fill:#0021ff"/>
            <path data-name="패스 1008" d="M1.482 45.536A1.232 1.232 0 0 1 .25 44.3c0-8.936 10-16.206 22.291-16.206a29.281 29.281 0 0 1 10.146 1.767 1.232 1.232 0 1 1-.862 2.308 26.8 26.8 0 0 0-9.285-1.612c-10.933 0-19.828 6.165-19.828 13.742a1.232 1.232 0 0 1-1.23 1.237z" transform="translate(-.002 -.232)" style="stroke:#0021ff;stroke-miterlimit:10;stroke-width:.5px;fill:none"/>
            <path data-name="패스 1009" d="M22.636 22.441a11.1 11.1 0 1 1 11.1-11.1 11.108 11.108 0 0 1-11.1 11.1m0-19.728a8.633 8.633 0 1 0 8.632 8.632 8.642 8.642 0 0 0-8.632-8.632" transform="translate(-.095 -.002)" style="fill:#0021ff"/>
            <path data-name="패스 1010" d="M22.636 22.441a11.1 11.1 0 1 1 11.1-11.1 11.108 11.108 0 0 1-11.1 11.1zm0-19.728a8.633 8.633 0 1 0 8.632 8.632 8.642 8.642 0 0 0-8.632-8.632z" transform="translate(-.095 -.002)" style="stroke:#0021ff;stroke-miterlimit:10;stroke-width:.5px;fill:none"/>
        </g>
    </g>
</svg>
