<svg xmlns="http://www.w3.org/2000/svg" width="64" height="59.999" viewBox="0 0 64 59.999">
    <g transform="translate(-292 -1082.001)">
        <ellipse data-name="타원 39" cx="19.5" cy="19" rx="19.5" ry="19" transform="translate(317 1104)" style="fill:#e2e5ff"/>
        <g data-name="그룹 198">
            <path data-name="패스 88" d="M302.993 1132.158h-9.994a1 1 0 0 1-1-1v-8.025a1 1 0 0 1 1-1h9.994a1 1 0 0 1 1 1v8.025a1 1 0 0 1-1 1zm-8.994-2.006h8v-6.019h-8z"/>
        </g>
        <g data-name="그룹 199">
            <path data-name="패스 89" d="M313.525 1132.155h-10.451a1.029 1.029 0 0 1-1.045-1.015v-12.179a1.029 1.029 0 0 1 1.045-1.015h10.451a1.03 1.03 0 0 1 1.049 1.015v12.181a1.03 1.03 0 0 1-1.049 1.013zm-9.4-2.03h8.359v-10.151h-8.363z"/>
        </g>
        <g data-name="그룹 200">
            <path data-name="패스 90" d="M324.392 1132.156h-10.451a1.033 1.033 0 0 1-1.045-1.022v-16.352a1.033 1.033 0 0 1 1.045-1.022h10.451a1.033 1.033 0 0 1 1.049 1.022v16.347a1.033 1.033 0 0 1-1.049 1.027zm-9.4-2.043h8.359v-14.3h-8.363z"/>
        </g>
        <g data-name="그룹 201">
            <path data-name="패스 91" d="M335.26 1132.156h-10.451a1.054 1.054 0 0 1-1.045-1.064v-21.278a1.054 1.054 0 0 1 1.045-1.064h10.451a1.054 1.054 0 0 1 1.045 1.064v21.278a1.054 1.054 0 0 1-1.045 1.064zm-9.4-2.128h8.359v-19.15h-8.363z"/>
        </g>
        <g data-name="그룹 202">
            <path data-name="패스 92" d="M67.869 336.708a1.065 1.065 0 0 1-.755-.313l-2.89-2.89h-4.9a1.067 1.067 0 0 1-1.068-1.068v-4.9l-2.89-2.89a1.068 1.068 0 0 1 0-1.51l2.89-2.89v-4.9a1.067 1.067 0 0 1 1.068-1.068h4.9l2.89-2.89a1.066 1.066 0 0 1 1.51 0l2.89 2.89h4.9a1.067 1.067 0 0 1 1.068 1.068v4.9l2.89 2.89a1.068 1.068 0 0 1 0 1.51l-2.89 2.89v4.9a1.067 1.067 0 0 1-1.068 1.068h-4.9l-2.89 2.89a1.067 1.067 0 0 1-.755.313zm-7.469-5.339h4.271a1.071 1.071 0 0 1 .755.313l2.448 2.448 2.448-2.448a1.069 1.069 0 0 1 .755-.313h4.271V327.1a1.065 1.065 0 0 1 .313-.755L78.1 323.9l-2.448-2.448a1.063 1.063 0 0 1-.313-.755v-4.271h-4.267a1.065 1.065 0 0 1-.755-.313l-2.448-2.448-2.448 2.448a1.067 1.067 0 0 1-.755.313H60.4v4.271a1.068 1.068 0 0 1-.313.755l-2.453 2.448 2.448 2.448a1.069 1.069 0 0 1 .313.755z" transform="translate(262.311 770.918)" style="fill:#0021ff"/>
        </g>
        <g data-name="그룹 203">
            <path data-name="패스 93" d="M67.363 328.76a5.338 5.338 0 1 1 5.338-5.338 5.345 5.345 0 0 1-5.338 5.338zm0-8.542a3.2 3.2 0 1 0 3.2 3.2 3.207 3.207 0 0 0-3.2-3.2z" transform="translate(262.783 771.392)" style="fill:#0021ff"/>
        </g>
        <g data-name="그룹 204">
            <path data-name="패스 94" d="M294.135 1120.438H292v-37.369a1.067 1.067 0 0 1 1.068-1.068h26.692v2.135h-25.625z"/>
        </g>
        <g data-name="그룹 205">
            <path data-name="사각형 114" d="M340.484 1104.57h2.09v27.586h-2.09z"/>
        </g>
        <g data-name="그룹 206">
            <path data-name="사각형 115" d="M293.067 1090.498h23.489v2.135h-23.489z"/>
        </g>
        <g data-name="그룹 207">
            <path data-name="사각형 116" d="M296.27 1086.272h2.135v2.135h-2.135z"/>
        </g>
        <g data-name="그룹 208">
            <path data-name="사각형 117" d="M300.496 1086.272h2.135v2.135h-2.135z"/>
        </g>
        <g data-name="그룹 209">
            <path data-name="사각형 118" d="M304.745 1086.272h2.135v2.135h-2.135z"/>
        </g>
    </g>
</svg>
