<svg xmlns="http://www.w3.org/2000/svg" width="78.001" height="71" viewBox="0 0 78.001 71">
    <defs>
        <clipPath id="fqgoms5c4a">
            <path data-name="사각형 1769" style="fill:none" d="M0 0h60.309v66.8H0z"/>
        </clipPath>
    </defs>
    <g transform="translate(-290.363 -1082.945)">
        <circle data-name="타원 39" cx="23" cy="23" r="23" transform="translate(322.364 1107.945)" style="fill:#e2e5ff"/>
        <g data-name="그룹 1015" style="clip-path:url(#fqgoms5c4a)" transform="translate(290.363 1082.945)">
            <path data-name="패스 994" d="M39.227 27.583H23.575a1.4 1.4 0 1 1 0-2.8h15.652a1.4 1.4 0 0 1 0 2.8"/>
            <path data-name="패스 995" d="M11.574 30.191a1.4 1.4 0 0 1-.9-.324L8.33 27.91a1.4 1.4 0 1 1 1.793-2.151l1.25 1.042 3.282-4.1a1.4 1.4 0 0 1 2.186 1.749l-4.174 5.218a1.4 1.4 0 0 1-.952.518 1.331 1.331 0 0 1-.141.007"/>
            <path data-name="패스 996" d="M36.923 10.626H12.835a2.4 2.4 0 0 1-2.4-2.4V2.4a2.4 2.4 0 0 1 2.4-2.4h24.088a2.4 2.4 0 0 1 2.4 2.4v5.826a2.4 2.4 0 0 1-2.4 2.4m-23.688-2.8h23.287V2.8H13.235z"/>
            <path data-name="패스 997" d="M25.012 62.8h-21A4.012 4.012 0 0 1 0 58.791V6.617a4.01 4.01 0 0 1 4.01-4.008h7.825a1.4 1.4 0 1 1 0 2.8H4.01A1.209 1.209 0 0 0 2.8 6.617v52.174A1.209 1.209 0 0 0 4.01 60h21a1.4 1.4 0 1 1 0 2.8"/>
            <path data-name="패스 998" d="M48.357 24.1a1.4 1.4 0 0 1-1.4-1.4V6.617a1.209 1.209 0 0 0-1.209-1.208h-7.826a1.4 1.4 0 1 1 0-2.8h7.826a4.008 4.008 0 0 1 4.009 4.008V22.7a1.4 1.4 0 0 1-1.4 1.4"/>
            <g data-name="그룹 1016">
                <path data-name="패스 999" d="M34.6 66.8a1.421 1.421 0 0 1-.557-.115c-6.716-2.91-11.273-8.565-13.178-16.352a34.185 34.185 0 0 1-.778-11.8 1.4 1.4 0 0 1 1.076-1.133c.089-.02 8.893-1.986 12.829-3.889a1.4 1.4 0 0 1 1.218 0c3.936 1.9 12.74 3.869 12.828 3.889a1.4 1.4 0 0 1 1.076 1.127c.036.205 2.821 20.885-13.956 28.155a1.421 1.421 0 0 1-.557.115m-11.835-26.89c-.247 3.755-.346 18.251 11.835 23.958 12.181-5.707 12.082-20.2 11.835-23.958A82.058 82.058 0 0 1 34.6 36.316a82.058 82.058 0 0 1-11.835 3.591" style="fill:#0021ff" transform="translate(10 -1)"/>
                <path data-name="패스 1000" d="M34.521 51.487a1.4 1.4 0 0 1-1.01-.431l-1.917-2a1.4 1.4 0 1 1 2.019-1.939l.881.918 5.065-5.552a1.4 1.4 0 1 1 2.067 1.887l-6.071 6.66a1.4 1.4 0 0 1-1.016.457z" style="fill:#0021ff" transform="translate(10 -1)"/>
                <path data-name="패스 1001" d="M34.6 57.479a8.058 8.058 0 1 1 2.416-15.747 1.4 1.4 0 1 1-.838 2.672 5.25 5.25 0 1 0 3.439 3.44A1.4 1.4 0 1 1 42.289 47 8.061 8.061 0 0 1 34.6 57.479" style="fill:#0021ff" transform="translate(10 -1)"/>
            </g>
            <path data-name="패스 1002" d="M10.7 43.322a1.4 1.4 0 0 1-.9-.324l-2.341-1.956a1.4 1.4 0 0 1 1.793-2.152l1.25 1.042 3.282-4.1a1.4 1.4 0 0 1 2.186 1.749L11.8 42.8a1.4 1.4 0 0 1-.952.518 1.331 1.331 0 0 1-.141.007"/>
        </g>
    </g>
</svg>
