<svg xmlns="http://www.w3.org/2000/svg" width="102.041" height="72" viewBox="0 0 102.041 72">
    <defs>
        <clipPath id="d8ximsibka">
            <path data-name="사각형 1772" style="fill:none" d="M0 0h80.232v60H0z"/>
        </clipPath>
    </defs>
    <g transform="translate(-265.959 -1082)">
        <circle data-name="타원 39" cx="23" cy="23" r="23" transform="translate(322 1108)" style="fill:#e2e5ff"/>
        <path data-name="패스 1013" d="M311.224 1136.033h-10.3a1.4 1.4 0 0 1 0-2.8h10.3a1.4 1.4 0 0 1 0 2.8z"/>
        <g data-name="그룹 1021">
            <g data-name="그룹 1020" style="clip-path:url(#d8ximsibka)" transform="translate(265.959 1082)">
                <path data-name="패스 1014" d="M73.838 60.062H6.396a6.465 6.465 0 0 1-6.458-6.458v-1.686a4.778 4.778 0 0 1 4.773-4.772h25.922a1.4 1.4 0 1 1 0 2.8H4.711a1.974 1.974 0 0 0-1.973 1.972v1.686a3.662 3.662 0 0 0 3.658 3.658h67.442a3.662 3.662 0 0 0 3.658-3.658v-1.686a1.974 1.974 0 0 0-1.973-1.972H49.601a1.4 1.4 0 0 1 0-2.8h25.922a4.778 4.778 0 0 1 4.773 4.772v1.686a6.465 6.465 0 0 1-6.458 6.458z"/>
                <path data-name="패스 1015" d="M6.396 43.203a1.4 1.4 0 0 1-1.4-1.4V6.396a6.465 6.465 0 0 1 6.458-6.458h57.325a6.465 6.465 0 0 1 6.458 6.458v13.488a1.4 1.4 0 1 1-2.8 0V6.396a3.662 3.662 0 0 0-3.658-3.658H11.454a3.662 3.662 0 0 0-3.658 3.658v35.407a1.4 1.4 0 0 1-1.4 1.4z"/>
                <path data-name="패스 1016" d="M68.464 41.662a1.212 1.212 0 0 1-1.092-.686l-2.46-5.1L60 38.422a1.212 1.212 0 0 1-1.768-1.146l1.175-20.251a1.212 1.212 0 0 1 1.894-.93l16.348 11.176a1.212 1.212 0 0 1-.127 2.077l-4.967 2.573 2.61 5.407a1.212 1.212 0 0 1-.583 1.627l-5.61 2.595a1.208 1.208 0 0 1-.508.112zm-3-8.645a1.212 1.212 0 0 1 1.092.685l2.484 5.146 3.409-1.577-2.586-5.359a1.212 1.212 0 0 1 .534-1.6l4.214-2.183-12.9-8.822-.931 15.983 4.12-2.137a1.212 1.212 0 0 1 .561-.135z" transform="translate(-.659 2.229)" style="fill:#0021ff"/>
                <path data-name="패스 1017" d="M37.417 29.354a1.25 1.25 0 0 1-.917-.4l-3.238-3.491a1.25 1.25 0 1 1 1.833-1.7l2.318 2.5 8.987-9.754a1.25 1.25 0 0 1 1.836 1.691l-9.9 10.748a1.248 1.248 0 0 1-.919.406z" transform="translate(-1.524 -.774)" style="fill:#0021ff"/>
                <path data-name="패스 1018" d="M37.483 36.464a10.8 10.8 0 1 1 4.47-20.643 1.25 1.25 0 0 1-1.035 2.279 8.306 8.306 0 1 0 4.869 7.563A8.36 8.36 0 0 0 45.6 23.9a1.25 1.25 0 1 1 2.444-.527 10.865 10.865 0 0 1 .242 2.285 10.8 10.8 0 0 1-10.8 10.8z" transform="translate(-1.245 -.718)" style="fill:#0021ff"/>
            </g>
        </g>
    </g>
</svg>
