<svg xmlns="http://www.w3.org/2000/svg" width="76" height="72" viewBox="0 0 76 72">
    <defs>
        <clipPath id="yy7i0000ca">
            <path data-name="사각형 1771" style="fill:none" d="M0 0h63.511v62.5H0z"/>
        </clipPath>
    </defs>
    <g transform="translate(-292 -1082)">
        <circle data-name="타원 39" cx="23" cy="23" r="23" transform="translate(322 1108)" style="fill:#e2e5ff"/>
        <path data-name="선 529" transform="translate(303.685 1098.902)" style="stroke-width:2.5px;stroke-linecap:round;stroke-linejoin:round;stroke:#000;fill:none" d="M0 0h19.565"/>
        <path data-name="선 530" transform="translate(303.685 1109.337)" style="stroke:#0021ff;stroke-width:2.5px;stroke-linecap:round;stroke-linejoin:round;fill:none" d="M0 0h23.478"/>
        <path data-name="선 531" transform="translate(303.685 1119.772)" style="stroke-width:2.5px;stroke-linecap:round;stroke-linejoin:round;stroke:#000;fill:none" d="M0 0h16.957"/>
        <g data-name="그룹 1019">
            <g data-name="그룹 1018" style="clip-path:url(#yy7i0000ca)" transform="translate(292 1082)">
                <path data-name="패스 1011" d="M10.38 56.033a5.217 5.217 0 0 0 5.22-5.217h40.432A10.434 10.434 0 0 1 45.6 61.25H9.076a7.825 7.825 0 0 1-7.826-7.826V3.859A2.608 2.608 0 0 1 3.858 1.25h2.675a3.9 3.9 0 0 0 7.694 0h6.654a3.9 3.9 0 0 0 7.694 0h6.653a3.9 3.9 0 0 0 7.695 0H45.6a2.609 2.609 0 0 1 2.609 2.609v19.435" style="stroke-width:2.5px;stroke-linecap:round;stroke-linejoin:round;stroke:#000;fill:none"/>
                <path data-name="패스 1012" d="M48.44 43.25h-5.8v-5.8a2.178 2.178 0 0 1 .638-1.539l11.895-11.893a2.178 2.178 0 0 1 3.079 0l3.621 3.622a2.175 2.175 0 0 1 0 3.078L49.979 42.612a2.174 2.174 0 0 1-1.539.638z" style="stroke:#0021ff;stroke-width:2.5px;stroke-linecap:round;stroke-linejoin:round;fill:none"/>
                <path data-name="선 532" transform="translate(53.68 25.588)" style="stroke-width:2px;stroke:#0021ff;stroke-linecap:round;stroke-linejoin:round;fill:none" d="m0 0 6.623 6.623"/>
                <path data-name="선 533" transform="translate(48.161 28.9)" style="stroke-width:2px;stroke:#0021ff;stroke-linecap:round;stroke-linejoin:round;fill:none" d="M8.831 0 0 8.831"/>
            </g>
        </g>
    </g>
</svg>
