<svg xmlns="http://www.w3.org/2000/svg" width="78.684" height="72.251" viewBox="0 0 78.684 72.251">
    <g transform="translate(-573.748 -1111.749)">
        <circle data-name="타원 39" cx="23" cy="23" r="23" transform="translate(606.432 1138)" style="fill:#e2e5ff"/>
        <g data-name="그룹 85">
            <path data-name="빼기 2" d="M17.448 53.457H0V0h51.534v51.063h-1.717V1.991h-48.1v49.47h15.731v1.994z" transform="translate(573.998 1111.999)" style="stroke:#000;stroke-width:.5px"/>
            <path data-name="사각형 1732" d="M575.372 1122.175h34.555v2.5h-34.555z"/>
            <path data-name="사각형 1733" d="M612.676 1122.175h11.25v2.5h-11.25z"/>
            <g data-name="그룹 974" transform="translate(610.532 1117)">
                <circle data-name="타원 44" cx="1.5" cy="1.5" r="1.5" transform="translate(0 -1)"/>
                <circle data-name="타원 45" cx="1.5" cy="1.5" r="1.5" transform="translate(6 -1)"/>
            </g>
            <path data-name="사각형 1742" d="M582.472 1131.718h21.697v2.5h-21.697z"/>
            <path data-name="사각형 1743" d="M582.5 1138.08h13.661v2.5H582.5z"/>
        </g>
        <g data-name="그룹 1005">
            <path data-name="패스 457" d="M211.136 302.984a9.8 9.8 0 1 1 6.934-2.867 9.776 9.776 0 0 1-6.934 2.867zm0-18.089A8.288 8.288 0 1 0 217 287.32a8.266 8.266 0 0 0-5.864-2.425z" transform="translate(393.464 861.712)" style="stroke:#0021ff;fill:#0021ff"/>
            <path data-name="패스 457 - 윤곽선" d="M211.087 303.135a10 10 0 1 1 7.076-2.926 9.939 9.939 0 0 1-7.076 2.926zm0-19.6a9.6 9.6 0 1 0 6.792 2.809 9.54 9.54 0 0 0-6.792-2.811zm0 18.09a8.481 8.481 0 1 1 6-2.484 8.437 8.437 0 0 1-6 2.482zm0-16.577a8.087 8.087 0 1 0 0 16.175 8.087 8.087 0 1 0 0-16.175z" transform="translate(393.513 861.761)" style="fill:#0021ff"/>
            <path data-name="패스 458" d="M224.608 309.932a2.858 2.858 0 0 1-2.029-.841l-3.29-3.29a5.086 5.086 0 0 1-1.47-3.157l-.029-.351a1.82 1.82 0 0 1 0-.37 1.866 1.866 0 0 1 2.061-1.647l.1.011a6.213 6.213 0 0 1 3.711 1.778l2.9 2.9a2.87 2.87 0 0 1 .073 4.126 2.863 2.863 0 0 1-2.027.841zm-4.96-8.153a.351.351 0 0 0-.35.314l.028.422a3.581 3.581 0 0 0 1.033 2.217l3.29 3.29a1.356 1.356 0 0 0 1.917 0 1.144 1.144 0 0 0 .088-.1 1.41 1.41 0 0 0-.146-1.874l-.01-.01-2.905-2.906a4.7 4.7 0 0 0-2.8-1.343l-.1-.011z" transform="translate(393.614 861.867)" style="stroke:#0021ff;fill:#0021ff"/>
            <path data-name="패스 458 - 윤곽선" d="M224.559 310.083a3.047 3.047 0 0 1-2.172-.9l-3.29-3.29a5.288 5.288 0 0 1-1.528-3.281l-.029-.352a2.021 2.021 0 0 1 0-.41 2.065 2.065 0 0 1 2.056-1.836 2.143 2.143 0 0 1 .226.012l.1.011a6.414 6.414 0 0 1 3.83 1.836l2.9 2.9a3.125 3.125 0 0 1 .293 4.164 3.168 3.168 0 0 1-.217.242 3.052 3.052 0 0 1-2.169.904zm-4.959-9.666a1.663 1.663 0 0 0-1.657 1.479 1.623 1.623 0 0 0 0 .33l.029.353a4.885 4.885 0 0 0 1.412 3.031l3.29 3.29a2.67 2.67 0 0 0 3.774 0 2.67 2.67 0 0 0-.07-3.84l-2.9-2.9a6.011 6.011 0 0 0-3.59-1.72l-.1-.011a1.735 1.735 0 0 0-.188-.012zm4.959 8.154a1.545 1.545 0 0 1-1.1-.457l-3.29-3.29a3.78 3.78 0 0 1-1.091-2.342l-.03-.443v-.017a.552.552 0 0 1 .55-.494h.064l.1.011a4.9 4.9 0 0 1 2.923 1.4l2.915 2.916a1.6 1.6 0 0 1 .163 2.139 1.329 1.329 0 0 1-.1.116 1.548 1.548 0 0 1-1.104.461zm-5.108-6.52.027.4a3.375 3.375 0 0 0 .975 2.088l3.29 3.29a1.146 1.146 0 0 0 .817.339 1.149 1.149 0 0 0 .817-.338.936.936 0 0 0 .072-.079 1.2 1.2 0 0 0-.128-1.6l-.013-.013-2.906-2.907a4.5 4.5 0 0 0-2.683-1.285l-.1-.011h-.019a.15.15 0 0 0-.093.032.148.148 0 0 0-.056.084z" transform="translate(393.663 861.916)" style="fill:#0021ff"/>
            <path data-name="패스 459" d="M218.981 302.1a.758.758 0 0 1-.536-.221l-1.906-1.907a.757.757 0 0 1 1.071-1.07l1.906 1.906a.756.756 0 0 1-.535 1.292z" transform="translate(393.601 861.852)" style="fill:#0021ff"/>
            <path data-name="패스 459 - 윤곽선" d="M218.932 302.254a.955.955 0 0 1-.677-.279l-1.907-1.908a.958.958 0 0 1 1.355-1.354l1.906 1.906a.957.957 0 0 1-.677 1.635zm-1.907-3.42a.556.556 0 0 0-.393.948l1.906 1.907a.556.556 0 0 0 .787-.787L217.419 299a.553.553 0 0 0-.394-.166z" transform="translate(393.65 861.901)" style="fill:#0021ff"/>
            <path data-name="패스 460" d="M215.192 289.8a.755.755 0 0 1-.536-.222 5.045 5.045 0 0 0-5.919-.908.757.757 0 1 1-.7-1.342 6.55 6.55 0 0 1 7.689 1.181.757.757 0 0 1-.535 1.292z" transform="translate(393.521 862.741)" style="fill:#0021ff"/>
            <path data-name="패스 460 - 윤곽선" d="M215.143 289.949a.953.953 0 0 1-.678-.281 4.824 4.824 0 0 0-3.431-1.426 4.9 4.9 0 0 0-2.253.554.968.968 0 0 1-.443.109.958.958 0 0 1-.442-1.807 6.819 6.819 0 0 1 3.139-.773 6.731 6.731 0 0 1 4.784 1.99.958.958 0 0 1-.677 1.635zm-4.108-2.109a5.224 5.224 0 0 1 3.715 1.544.556.556 0 1 0 .787-.785 6.331 6.331 0 0 0-4.5-1.873 6.415 6.415 0 0 0-2.953.728.556.556 0 1 0 .514.986 5.3 5.3 0 0 1 2.436-.6z" transform="translate(393.57 862.791)" style="fill:#0021ff"/>
        </g>
    </g>
</svg>
